<?xml version="1.0" encoding="UTF-8"?><svg id="Layer_1" xmlns="http://www.w3.org/2000/svg" xmlns:xlink="http://www.w3.org/1999/xlink" viewBox="0 0 787.021 787.021"><defs><style>.cls-1{fill:#fff;}.cls-2{fill:#96cca7;}.cls-3{fill:#2f383f;}.cls-4{fill:#fefbe2;}.cls-5{fill:#95cba3;}.cls-6{fill:#30333c;}.cls-7{fill:#243d44;}.cls-8{fill:#52aa78;}.cls-9{fill:#34815e;}.cls-10{fill:#95cb9f;}.cls-11{fill:#e2edd0;}.cls-12{fill:#009072;}.cls-13{fill:#037c60;}.cls-14{fill:#d2e6c7;}.cls-15{fill:#3b9e6b;}.cls-16{fill:#3a4342;}.cls-17{fill:#7ac193;}.cls-18{mask:url(#mask);}.cls-19{opacity:.57;}.cls-19,.cls-20{fill:#04655e;}.cls-21{fill:#38694f;}.cls-22{fill:#408d61;}.cls-23{fill:#fdfbe3;}.cls-24{fill:#087a69;}.cls-25{fill:#a8d3af;}.cls-26{fill:#8fc9a1;opacity:.28;}</style><mask id="mask" x="76.225" y="103.561" width="686.536" height="617.946" maskUnits="userSpaceOnUse"><g><g><ellipse class="cls-1" cx="392.436" cy="401.818" rx="266.4" ry="257.47"/><circle class="cls-1" cx="395.836" cy="394.16" r="274.393"/></g><ellipse class="cls-1" cx="392.436" cy="401.818" rx="266.4" ry="257.47"/></g></mask></defs><circle class="cls-19" cx="393.51" cy="393.51" r="393.51"/><circle class="cls-26" cx="395.493" cy="394.168" r="321.007"/><circle class="cls-6" cx="396.301" cy="395.609" r="286.391"/><g class="cls-18"><g><polygon class="cls-23" points="243.985 139.293 102.26 282.61 76.225 431.132 308.858 358.849 579.496 115.314 408.14 103.561 243.985 139.293"/><path class="cls-5" d="M561.365,174.134l-53.976-70.574-117.32,79.274c-1.369,.925-3.278,.632-4.262-.655h0c-6.161-8.051-18.105-9.872-26.657-4.062l-67.3,45.718c-8.427,5.724-10.335,16.779-4.266,24.714h0c.973,1.272,.676,3.039-.675,3.957-5.587,3.798-19.527,13.225-28.062,18.995-3.888,2.629-4.769,7.719-1.974,11.374h0c.435,.569,.297,1.361-.308,1.77l-98.539,66.583c-4.253,2.874-5.222,8.444-2.165,12.441h0c3.057,3.997,2.088,9.567-2.165,12.441l-69.223,46.774,30.056,97.76,30.55,55.759c2.95-1.992,39.855-32.511,41.975-29.739l13.177-11.026c2.12,2.772,59.242-27.125,62.191-29.118l33.041-62.346c2.919-1.972,15.491-29.458,13.393-32.201l17.342-7.536c-2.102-2.749-1.43-6.58,1.501-8.548l25.013-16.801,25.652-20.238,125.468-84.243c3.745-2.53,1.053-6.05,3.745-2.53l8.155-2.987c2.692,3.52,16.954-16.617,20.698-19.147l24.691-13.703c3.745-2.53,7.659-5.284,4.967-8.804l11.99,2.295c-2.692-3.52,26.743-30.518,30.488-33.048l-47.203-22.548Z"/><path class="cls-24" d="M220.725,484.802h0c-1.065-1.513-.658-3.574,.908-4.603l25.825-16.969c7.321-4.81,9.221-14.446,4.244-21.521h0c-4.977-7.075-14.947-8.912-22.268-4.101l-109.572,71.997c-1.566,1.029-1.972,3.09-.908,4.603l14.169,20.142c1.065,1.513,3.197,1.906,4.763,.877l7.555-4.964c1.566-1.029,3.698-.636,4.763,.877l3.97,5.644c1.065,1.513,3.197,1.906,4.763,.877l14.63-9.613c3.426-2.251,8.092-1.392,10.421,1.919h0c1.065,1.513,3.197,1.906,4.763,.877l60.247-39.587c4.108-2.7,5.175-8.107,2.381-12.078h0c-2.793-3.971-8.388-5.001-12.496-2.302l-13.395,8.801c-1.566,1.029-3.698,.636-4.763-.877Z"/><path class="cls-6" d="M347.426,662.466s224.38-113.174,307.539-192.396c83.159-79.222-96.936,216.507-96.936,216.507h-200.269l-10.333-24.111Z"/><polygon class="cls-12" points="158.058 598.314 212.565 670.951 750.389 372.636 712.022 256.999 158.058 598.314"/><path class="cls-13" d="M665.382,321.209l-14.802-21.79-3.57,2.425-4.022-5.921,12.45-8.457-59.135-87.052-68.958,46.843c-4.923,3.344-11.611,7.48-24.918,2.684h0c-3.251-1.941-11.377-4.082-16.3-.738l-7.236,4.915c-4.923,3.344-6.778,10.553-4.266,16.377h0c3.083,9.592-8.774,18.535-13.697,21.879l-35.13,23.864c-4.782,3.248-11.291,2.005-14.54-2.777h0c-3.248-4.782-9.758-6.025-14.54-2.777l-31.272,21.243c-4.782,3.248-6.025,9.758-2.777,14.54h0c3.248,4.782,2.005,11.291-2.777,14.54l-79.041,53.693c-11.445,7.775-14.42,23.355-6.646,34.8h0c7.775,11.445,4.799,27.026-6.646,34.8l-109.504,74.386,26.919,39.627,127.237-86.433c1.651-1.122,3.899-.692,5.021,.959h0c1.122,1.651,3.369,2.08,5.021,.959l41.12-27.933c5.419-3.681,12.797-2.272,16.478,3.147h0c3.681,5.419,11.059,6.828,16.478,3.147l17.732-12.046c5.419-3.681,6.828-11.059,3.147-16.478h0c-3.681-5.419-2.272-12.797,3.147-16.478l136.635-92.817c1.801-1.223,4.252-.755,5.476,1.046h0c1.223,1.801,.755,4.252-1.046,5.476l-83.714,60.189c-2.682,1.822-3.021,2.285-1.199,4.967l.685,.856c1.822,2.682,2.628,2.164,5.31,.343l85.127-60.805c2.045-1.389,8.346,1.179,9.735,3.225h0c1.39,2.045,.858,4.83-1.188,6.219l-25.212,17.127c-5.468,3.715-6.89,11.159-3.175,16.627h0c3.715,5.468,11.159,6.89,16.627,3.175l99.619-67.671,3.167-16.609-1.823-7.295Z"/><path class="cls-20" d="M659.846,285.983l4.878-3.314-17.438-25.67-130.744,98.341c-2.546,1.915-6.169,1.363-8.028-1.224h0c-1.832-2.548-5.382-3.128-7.93-1.297l-51.102,36.737c-2.972,2.136-3.649,6.277-1.513,9.249h0c2.103,2.925,1.479,6.995-1.403,9.157l-35.13,26.341c-3.52,2.639-4.345,7.579-1.873,11.218l.118,.173c2.655,3.909,7.926,4.917,11.796,2.277,18.387-12.546,67.454-45.884,78.663-53.499,1.047-.711,2.454-.353,3.062,.757,.174,.318,.378,.641,.609,.969,.013,.019,.03,.037,.047,.051h0c1.072,.904,1.006,2.576-.134,3.393l-27.036,19.369c-2.529,1.812-3.108,5.332-1.292,7.859l.085,.119c1.884,2.621,5.498,3.215,8.093,1.342,13.516-9.757,52.759-37.978,70.727-50.898,5.071-3.646,12.133-2.487,15.779,2.585h0c3.646,5.072,10.713,6.227,15.784,2.581l63.792-45.859-15.341-21.34,25.775-17.158c3.344-2.272,4.213-6.824,1.942-10.167-.593-.873-1.346-1.567-2.187-2.091Z"/><path class="cls-9" d="M724.59,350.394l38.171-23.166-27.735-40.829-85.663,62.943c-4.537,3.334-7.197,8.643-7.151,14.272h0c.024,2.936-1.42,5.69-3.849,7.339h0c-7.204,4.894-10.723,13.667-8.896,22.182h0c1.737,8.099-7.992,20.611-14.903,25.176l-64.816,42.813c-3.213,2.122-7.535,1.268-9.698-1.917h0c-2.184-3.215-6.56-4.05-9.774-1.867l-86.054,58.457c-2.853,1.938-3.594,5.821-1.657,8.674h0c1.932,2.844,1.201,6.715-1.635,8.659l-57.136,39.169c-8.992,5.94-49.189,27.513-58.819,32.35l-72.445,36.382,40.314,52.859,421.461-273.47-20.637-27.368,40.987-27.843-10.066-14.818Z"/><path class="cls-21" d="M681.934,449.965l-22.472-30.975c-1.289-1.777-3.774-2.172-5.551-.883l-113.235,82.152c-1.874,1.36-4.509,.836-5.721-1.137h0c-1.149-1.87-3.596-2.455-5.467-1.306l-88.422,54.313c-5.274,3.239-6.923,10.141-3.684,15.415h0c3.239,5.274,10.141,6.923,15.415,3.684l76.206-46.81c2.44-1.499,5.622-.866,7.304,1.451h0c1.875,2.584,1.153,6.217-1.567,7.888l-207.87,127.684c-1.87,1.149-2.455,3.596-1.306,5.467l7.571,12.325c1.149,1.87,3.596,2.455,5.467,1.306l216.053-132.71-.26-.424,126.657-91.889c1.777-1.289,2.172-3.774,.883-5.551Z"/><rect class="cls-3" x="529.121" y="393.573" width="64.005" height="11.876" rx="2.183" ry="2.183" transform="translate(-127.526 384.342) rotate(-34.188)"/><rect class="cls-2" x="544.63" y="404.89" width="102.293" height="11.876" rx="2.183" ry="2.183" transform="translate(-127.897 405.77) rotate(-34.188)"/><rect class="cls-2" x="538.155" y="275.29" width="126.096" height="14.639" rx="2.691" ry="2.691" transform="translate(-48.915 419.21) rotate(-37.043)"/><rect class="cls-4" x="320.462" y="207.234" width="125.98" height="15.973" rx="2.936" ry="2.936" transform="translate(-54.673 252.66) rotate(-34.188)"/><rect class="cls-15" x="447.508" y="364.127" width="55.211" height="17.018" rx="3.128" ry="3.128" transform="translate(-128.172 347.398) rotate(-35.712)"/><path class="cls-17" d="M561.496,185.888l-51.978-70.574-112.977,79.274c-1.319,.925-3.156,.632-4.105-.655h0c-5.933-8.051-17.435-9.872-25.67-4.062l-64.808,45.718c-8.115,5.724-9.952,16.779-4.108,24.714h0c.937,1.272,.651,3.039-.65,3.957-5.381,3.798-18.804,13.225-27.023,18.995-3.744,2.629-4.593,7.719-1.901,11.374h0c.419,.569,.286,1.361-.297,1.77l-94.891,66.583c-4.095,2.874-5.029,8.444-2.085,12.441h0c2.944,3.997,2.011,9.567-2.085,12.441l-66.66,46.774,20.097,57.951,73.959-50.976c2.84-1.992,6.797-1.359,8.838,1.412h0c2.042,2.772,6,3.404,8.84,1.411l74.299-52.134c2.811-1.972,3.451-5.795,1.431-8.538h0c-2.025-2.749-1.377-6.58,1.445-8.548l24.087-16.801,.124,.168,176.784-124.047c3.606-2.53,8.631-1.728,11.224,1.792h0c2.592,3.52,7.618,4.322,11.224,1.792l21.64-15.184c3.606-2.53,4.428-7.435,1.836-10.955h0c-2.592-3.52-1.771-8.425,1.836-10.955l21.574-15.138Z"/><rect class="cls-2" x="302.718" y="157.618" width="55.211" height="17.018" rx="3.128" ry="3.128" transform="translate(-34.857 224.051) rotate(-35.712)"/><rect class="cls-2" x="169.069" y="210.232" width="100.295" height="17.018" rx="3.128" ry="3.128" transform="translate(-86.461 169.091) rotate(-35.712)"/><rect class="cls-2" x="356.774" y="505.686" width="89.439" height="11.876" rx="2.183" ry="2.183" transform="translate(-218.109 314.018) rotate(-34.188)"/><rect class="cls-23" x="203.902" y="352.911" width="46.328" height="11.876" rx="2.183" ry="2.183" transform="translate(-162.405 189.604) rotate(-34.188)"/><rect class="cls-23" x="128.465" y="481.269" width="55.5" height="14.226" rx="2.615" ry="2.615" transform="translate(-247.435 172.175) rotate(-34.188)"/><rect class="cls-23" x="109.33" y="417.256" width="155.452" height="11.876" rx="2.183" ry="2.183" transform="translate(-205.475 178.24) rotate(-34.188)"/><rect class="cls-2" x="279.676" y="398.952" width="108.585" height="11.876" rx="2.183" ry="2.183" transform="translate(-169.803 257.63) rotate(-34.188)"/><rect class="cls-2" x="406.14" y="319.745" width="110.305" height="12.925" rx="2.376" ry="2.376" transform="translate(-103.67 330.6) rotate(-35.712)"/><path class="cls-2" d="M649.707,177.228h0c-3.452-4.164-9.626-4.741-13.789-1.289l-46.812,38.811c-2.047,1.697-3.224,4.05-3.483,6.499-.617,5.847-3.107,11.333-7.634,15.086l-32.872,27.254c-4.128,3.422-5.091,9.588-1.793,13.817,3.412,4.376,9.738,5.039,13.978,1.523l46.812-38.811c4.093-3.394,4.711-9.413,1.451-13.572l47.674-39.525c3.989-3.308,1.651-9.793-3.532-9.793Z"/><rect class="cls-2" x="171.685" y="527.269" width="222.461" height="11.876" rx="2.183" ry="2.183" transform="translate(-237.232 226.943) rotate(-31.56)"/><path class="cls-2" d="M409.337,531.601c-1.867-2.476-5.413-2.959-8.056-1.336l-93.913,57.686c-1.672,1.027-3.776,.4-4.813-1.266-.017-.027-.034-.054-.052-.081-1.779-2.757-5.565-3.397-8.361-1.68l-61.842,37.986c-3.266,2.006-5.938,6.783-5.938,10.616h0c.703,1.145,1.739,1.946,2.901,2.4l-6.985,4.291c-2.643,1.623-3.816,5.005-2.451,7.789,1.566,3.194,5.491,4.28,8.449,2.463l179.437-110.219c2.958-1.817,3.764-5.809,1.623-8.65Z"/><rect class="cls-16" x="460.806" y="616.223" width="32.529" height="11.876" rx="2.183" ry="2.183" transform="translate(-247.165 321.889) rotate(-30)"/><rect class="cls-16" x="545.732" y="558.958" width="44.228" height="11.876" rx="2.183" ry="2.183" transform="translate(-219.297 416.699) rotate(-34.188)"/><rect class="cls-7" x="193.672" y="576.452" width="137.505" height="11.876" rx="2.183" ry="2.183" transform="translate(-256.037 209.238) rotate(-30)"/><rect class="cls-3" x="174.113" y="655.192" width="204.187" height="17.634" rx="3.241" ry="3.241" transform="translate(-295 227.064) rotate(-30)"/><rect class="cls-3" x="371.581" y="575.405" width="97.801" height="12.986" rx="2.387" ry="2.387" transform="translate(-242.369 306.147) rotate(-31.56)"/><path class="cls-3" d="M704.074,386.76l-1.077-1.585c-2.015-2.966-6.053-3.737-9.019-1.723l-150.95,102.541c-2.265,1.538-5.367,.938-6.895-1.334l-.036-.053-.312-.459c-2.015-2.966-6.053-3.738-9.019-1.723l-69.928,47.502c-2.805,1.906-3.917,5.658-2.286,8.631,1.871,3.411,6.212,4.4,9.353,2.267l48.799-33.149c2.265-1.538,5.366-.937,6.892,1.336l.036,.053,1.389,2.045c2.015,2.966,6.053,3.737,9.019,1.722l33.007-22.422c3.427-2.328,8.092-1.437,10.42,1.99h0c2.328,3.427,1.437,8.092-1.99,10.42l-47.22,32.077c-2.713,1.843-3.418,5.536-1.575,8.248l.624,.919c1.843,2.713,5.535,3.418,8.248,1.575l165.901-112.697c2.713-1.843,3.418-5.536,1.575-8.248l-.624-.918c-1.843-2.713-5.536-3.418-8.248-1.575l-12.539,8.518-8.43-12.41,33.162-22.527c2.966-2.015,3.738-6.053,1.723-9.02Z"/><path class="cls-3" d="M702.567,296.599c-1.978-2.388-5.543-2.708-8.108-.965l-26.261,16.334-3.819-5.622,3.524-.889c2.565-1.743,3.582-5.174,2.091-7.893-1.711-3.119-5.681-4.024-8.553-2.073l-82.526,56.06c-2.565,1.743-3.582,5.174-2.091,7.893,1.711,3.119,5.681,4.024,8.553,2.073l48.315-32.821c1.552-1.055,3.666-.651,4.72,.901h0c1.055,1.552,.651,3.666-.901,4.72l-14.155,9.615c-2.565,1.743-3.582,5.174-2.091,7.893,1.711,3.119,5.681,4.024,8.553,2.073l71.524-48.587c2.872-1.951,3.494-5.975,1.224-8.715Z"/><rect class="cls-16" x="542.453" y="386.01" width="25.35" height="5.581" rx="1.026" ry="1.026" transform="translate(-122.562 397.143) rotate(-35.712)"/><path class="cls-23" d="M365.286,280.439l-1.492-2.197c-6.483-9.543-19.474-12.024-29.017-5.541l-25.796,17.831h0l-43.374,29.464c-3.633,2.468-4.578,7.414-2.11,11.047h0c2.468,3.633,7.414,4.578,11.047,2.11l39.249-26.662c2.278-1.548,5.38-.955,6.927,1.323h0c1.548,2.278,.955,5.38-1.323,6.927l-13.293,9.03c-3.633,2.468-4.578,7.414-2.11,11.047h0c2.468,3.633,7.414,4.578,11.047,2.11l39.237-26.654h0l6.252-4.329c8.316-5.757,10.437-17.14,4.754-25.506Z"/><rect class="cls-4" x="424.259" y="190.721" width="106.251" height="11.921" rx="2.191" ry="2.191" transform="translate(-28.024 302.238) rotate(-34.188)"/><circle class="cls-2" cx="167.192" cy="300.516" r="8.85"/><circle class="cls-14" cx="212.088" cy="284.073" r="16.92"/><circle class="cls-2" cx="243.985" cy="251.087" r="5.911"/></g></g><circle class="cls-10" cx="118.36" cy="245.176" r="23.871"/><circle class="cls-22" cx="118.36" cy="245.176" r="20.668"/><circle class="cls-8" cx="120.53" cy="241.865" r="16.215"/><circle class="cls-10" cx="122.3" cy="238.839" r="12.389"/><circle class="cls-10" cx="602.826" cy="382.329" r="30.921"/><circle class="cls-10" cx="642.45" cy="240.892" r="5.627"/><circle class="cls-23" cx="685.505" cy="385.755" r="2.814"/><circle class="cls-23" cx="541.34" cy="153.236" r="2.814"/><circle class="cls-23" cx="136.745" cy="215.221" r="2.814"/><circle class="cls-10" cx="555.496" cy="153.636" r="7.924"/><circle class="cls-10" cx="587.853" cy="613.289" r="7.924"/><g><path class="cls-23" d="M116.747,408.822c-.018,0-.035,.001-.052,.001,.031,.481,.052,.965,.052,1.453,0-.489,.021-.972,.052-1.453-.018,0-.035-.001-.052-.001Z"/><path class="cls-23" d="M116.747,410.277c0,12.304-9.961,22.281-22.258,22.309v.003c11.808,.027,21.456,9.228,22.206,20.853,.018,0,.035,.001,.052,.001s.035-.001,.052-.001c.75-11.625,10.397-20.825,22.205-20.853v-.003c-12.297-.028-22.258-10.005-22.258-22.309Z"/></g><g><path class="cls-23" d="M648.077,488.084c-.018,0-.035,.001-.052,.001,.031,.481,.052,.965,.052,1.453,0-.489,.021-.972,.052-1.453-.018,0-.035-.001-.052-.001Z"/><path class="cls-23" d="M648.077,489.539c0,12.304-9.961,22.281-22.258,22.309v.003c11.808,.027,21.456,9.228,22.206,20.853,.018,0,.035,.001,.052,.001s.035-.001,.052-.001c.75-11.625,10.397-20.825,22.205-20.853v-.003c-12.297-.028-22.258-10.005-22.258-22.309Z"/></g><g><path class="cls-23" d="M664.724,476.151h-.028c.017,.258,.028,.517,.028,.778,0-.261,.011-.52,.028-.777h-.028Z"/><path class="cls-23" d="M664.724,476.929c0,6.581-5.327,11.917-11.905,11.932h0c6.315,.016,11.475,4.937,11.876,11.154h.056c.401-6.218,5.561-11.138,11.876-11.153h0c-6.577-.017-11.905-5.352-11.905-11.933Z"/></g><circle class="cls-10" cx="167.192" cy="604.29" r="5.627"/><circle class="cls-10" cx="181.906" cy="609.917" r="3.371"/><circle class="cls-22" cx="602.826" cy="382.329" r="26.771"/><circle class="cls-8" cx="598.98" cy="378.04" r="21.003"/><circle class="cls-10" cx="595.208" cy="374.12" r="16.048"/><path class="cls-25" d="M143.467,501.827s-30.585,44.813-27.961,58.59,18.366,13.723,76.05-13.31c56.485-26.471,328.093-232.694,377.299-291.085,49.206-58.391,62.328-77.418,49.206-89.883-16.402-5.249-49.879,14.495-49.879,14.495l-7.335-5.713s57.214-40.93,91.986-34.369c34.772,6.561-46.582,99.725-46.582,99.725,0,0-119.407,140.402-347.402,285.281-121.936,77.484-170.629,84.986-174.375,60.642-5.988-38.918,55.872-92.062,55.872-92.062l3.121,7.69Z"/><path class="cls-11" d="M141.289,496.46s-38.115,46.373-32.634,64.415c3.903,12.847,21.039,15.176,74.907-10.505,25.409-12.114,96.335-58.736,168.64-113.504,88.254-66.85,180.982-143.461,207.796-172.724,40.007-43.66,61.443-70.586,62.799-86.369,.543-6.314-4.979-13.705-11.317-13.643-17.25,.169-45.928,14.457-45.928,14.457l-5.165-4.025s52.754-38.602,83.918-30.729c32.722,8.267-52.323,101.365-52.323,101.365,0,0-155.738,154.314-335.833,271.865-116.691,76.166-149.681,77.872-161.062,59.343-17.149-27.919,45.259-82.267,45.259-82.267l.943,2.323Z"/></svg>