<?xml version="1.0" encoding="UTF-8"?><svg id="Layer_1" xmlns="http://www.w3.org/2000/svg" xmlns:xlink="http://www.w3.org/1999/xlink" viewBox="0 0 785.221 785.221"><defs><style>.cls-1{fill:#2b2a56;}.cls-2{fill:#3e4c79;}.cls-3{fill:#fff;}.cls-4{fill:#facaba;}.cls-5{fill:#969cbc;}.cls-6{fill:#8a6bad;opacity:.28;}.cls-7{fill:#f8c2b3;}.cls-8{stroke:#141f33;stroke-miterlimit:10;stroke-width:17.166px;}.cls-8,.cls-9{fill:#1f1d40;}.cls-10{fill:#f9bd92;}.cls-11{fill:#fdedde;}.cls-12{fill:#beadbd;}.cls-13{fill:#6b7da2;}.cls-14{fill:#fdf7eb;}.cls-15{mask:url(#mask);}.cls-16{fill:#2e325c;}.cls-17{fill:#3c2256;opacity:.57;}.cls-18{fill:#fcfbf7;}</style><mask id="mask" x="57.552" y="106.39" width="633.834" height="574.864" maskUnits="userSpaceOnUse"><circle class="cls-18" cx="394.811" cy="392.61" r="272.116"/></mask></defs><circle class="cls-17" cx="392.61" cy="392.61" r="392.61"/><circle class="cls-6" cx="394.811" cy="394.168" r="320.273"/><circle class="cls-8" cx="394.811" cy="392.61" r="272.116"/><g class="cls-15"><g><path class="cls-9" d="M394.811,671.83c4.094,1.337,67.696-.669,98.742-16.715,31.047-16.046,77.848-35.435,107.266-65.522,29.418-30.087,47.116-56.766,50.97-77.525,3.854-20.758,22.575-48.125-19.547-49.151-42.121-1.026-156.444,29.73-201.243,65.834-44.799,36.104-85.713,81.283-88.322,87.777-2.609,6.494,.065,36.581,10.762,45.941,10.697,9.36,41.37,9.36,41.37,9.36Z"/><path class="cls-1" d="M353.44,662.469c5.349-1.337,6.023-30.755,77.56-54.156,71.536-23.401,175.168-72.876,191.214-98.951,16.046-26.075,54.156-55.493,61.51-94.271,7.354-38.778,16.641-72.208-10.735-72.208s-78.188,41.515-103.594,65.888c-25.406,24.372-232.96,180.822-256.215,212.915-23.256,32.092-21.25,58.167-5.872,59.505,15.378,1.337,46.133-18.721,46.133-18.721Z"/><path class="cls-16" d="M312.168,647.845s29.906-44.88,88.742-60.926c58.836-16.046,144.416-57.499,176.508-90.928,32.092-33.43,74.882-72.876,92.265-122.352,17.383-49.476-6.686-114.093-62.179-59.387-55.493,54.706-344.324,292.056-340.981,320.137,3.343,28.081,1.337,47.47,16.046,37.441,14.709-10.029,29.599-23.985,29.599-23.985Z"/><path class="cls-2" d="M275.215,647.76c.669-2.006,33.368-60.842,96.246-78.894,62.878-18.052,165.173-58.167,212.643-110.986,47.47-52.819,67.723-77.557,78.992-110.317,11.268-32.761,31.994-127.032-66.288-44.127-98.283,82.905-370.399,297.523-369.062,322.261,1.337,24.738,47.47,22.063,47.47,22.063Z"/><path class="cls-13" d="M235.1,614.999s34.098-8.692,67.528-36.772,43.458-18.721,76.219-40.784c32.761-22.063,64.185-47.425,134.387-74.525,70.202-27.101,153.107-119.366,149.764-164.162-3.343-44.796-93.326-11.953-135.92,33.47-42.594,45.423-334.099,255.361-328.082,275.419,6.017,20.058,36.104,7.354,36.104,7.354Z"/><path class="cls-5" d="M215.711,602.296s52.819-15.378,92.934-60.173c40.115-44.796,106.306-84.242,165.81-93.603,59.505-9.36,178.514-109.203,177.325-152.884-1.189-43.681-44.87-58.539-67.751-18.423-22.881,40.115-413.771,319.362-413.771,319.362l45.452,5.722Z"/><path class="cls-12" d="M195.653,589.593s40.115-12.703,64.185-40.115c24.069-27.412,84.242-92.265,140.404-102.963,56.162-10.697,185.868-92.934,209.269-128.369,23.401-35.435,36.772-50.919,31.424-69.586-5.349-18.668-5.349-51.429-58.836-29.365-53.487,22.063-434.584,298.191-434.584,322.261s6.017,52.819,18.721,54.824c12.703,2.006,29.418-6.686,29.418-6.686Z"/><path class="cls-7" d="M138.154,540.117s-.669,27.412,104.969-38.11c105.637-65.522,106.306-90.928,187.205-120.346,80.899-29.418,197.234-108.98,187.205-155.782-10.029-46.801-55.493-46.801-69.533-32.092-14.04,14.709-423.886,299.529-423.218,301.534,.669,2.006,13.372,44.796,13.372,44.796Z"/><path class="cls-4" d="M118.096,484.624s32.092,8.023,65.522-4.012c33.43-12.035,76.888-43.458,97.614-44.127,20.726-.669,70.202-46.801,75.551-57.499s38.11-32.761,60.173-39.447c22.063-6.686,183.084-75.011,171.773-148.492-11.311-73.48-316.857,169.218-328.223,176.572-11.366,7.354-166.391,80.899-164.429,82.905,1.962,2.006,22.02,34.098,22.02,34.098Z"/><path class="cls-10" d="M122.108,448.52s40.115,24.738,84.242,9.36c44.127-15.378,25.406-27.412,60.173-34.098,34.767-6.686,56.162-33.43,74.214-52.819,18.052-19.389,62.179-30.087,115.666-56.162,53.487-26.075,129.707-77.557,132.381-119.009,2.674-41.453-74.214-30.755-87.585-22.732-13.372,8.023-254.733,127.178-282.145,152.512-27.412,25.333-117.003,66.786-122.352,75.478-5.349,8.692,25.406,47.47,25.406,47.47Z"/><path class="cls-11" d="M118.096,394.364s45.464,26.744,100.957,7.354c55.493-19.389,60.842-61.51,110.986-80.231,50.144-18.721,150.521-50.144,174.212-85.58,23.691-35.435,60.463-40.784,62.469-75.551,2.006-34.767-43.458-50.813-54.824-50.813S241.786,316.808,113.416,339.54c-128.369,22.732,4.68,54.824,4.68,54.824Z"/><path class="cls-14" d="M118.096,353.58s45.464,14.04,83.574,6.686,44.127-26.744,70.202-39.447c26.075-12.703,83.574-28.749,108.312-54.824,24.738-26.075,66.19-25.814,90.928-50.014,24.738-24.2,64.853-44.926,63.516-67.658-1.337-22.732-290.168-23.401-338.975,48.807-48.807,72.208-77.557,156.45-77.557,156.45Z"/><path class="cls-18" d="M122.108,316.808s49.476,14.709,73.545,6.017c24.069-8.692,48.139-34.098,80.899-38.778,32.761-4.68,80.899-32.092,95.608-48.807,14.709-16.715,92.265-43.458,108.98-64.185,16.715-20.726,32.761-26.075,16.046-43.458-16.715-17.383-238.018-37.441-292.174,0-54.156,37.441-82.905,189.211-82.905,189.211Z"/></g></g><circle class="cls-18" cx="414.13" cy="663.643" r="8.527"/><circle class="cls-18" cx="490.19" cy="464.181" r="5.164"/><circle class="cls-5" cx="383.923" cy="557.322" r="2.972"/><circle class="cls-18" cx="488.388" cy="480.856" r="3.063"/><circle class="cls-18" cx="540.138" cy="417.295" r="2.102"/><circle class="cls-18" cx="534.661" cy="327.062" r="5.164"/><circle class="cls-18" cx="540.196" cy="152.075" r="3.12"/><circle class="cls-18" cx="243.611" cy="640.098" r="2.582"/><circle class="cls-18" cx="656.555" cy="470.507" r="8.554"/><path class="cls-3" d="M143.164,489.723c-14.001-.943-25.068-12.591-25.068-26.831,0,14.24-11.067,25.888-25.068,26.831,14.001,.943,25.068,12.591,25.068,26.831,0-14.24,11.067-25.888,25.068-26.831Z"/><path class="cls-3" d="M651.789,380.758c-14.001-.943-25.068-12.591-25.068-26.831,0,14.24-11.067,25.888-25.068,26.831,14.001,.943,25.068,12.591,25.068,26.831,0-14.24,11.067-25.888,25.068-26.831Z"/><path class="cls-3" d="M626.721,192.416c-8.09-.545-14.485-7.276-14.485-15.504,0,8.228-6.395,14.959-14.485,15.504,8.09,.545,14.485,7.276,14.485,15.504,0-8.228,6.395-14.959,14.485-15.504Z"/><path class="cls-3" d="M161.847,506.709c-8.005-.539-14.332-7.199-14.332-15.34,0,8.142-6.327,14.801-14.332,15.34,8.005,.539,14.332,7.199,14.332,15.34,0-8.142,6.327-14.801,14.332-15.34Z"/></svg>