<?xml version="1.0" encoding="UTF-8"?><svg id="Layer_1" xmlns="http://www.w3.org/2000/svg" viewBox="0 0 849.139 439.706"><defs><style>.cls-1{fill:#fff;}.cls-2{fill:#d8d8d8;}.cls-3{fill:#3b519f;}.cls-4{fill:#1e2c4c;}.cls-5{fill:#3c60aa;}.cls-6{fill:#4f6ab1;}.cls-7{fill:#839ecd;}.cls-8{stroke:#102033;stroke-linejoin:round;stroke-width:8.596px;}.cls-8,.cls-9,.cls-10{fill:none;}.cls-9{stroke-width:22.565px;}.cls-9,.cls-10{stroke:#151f33;stroke-miterlimit:10;}.cls-10{stroke-width:28.812px;}.cls-11{fill:#3a6cb3;}</style></defs><path class="cls-10" d="M617.466,182.482c-15.202-38.815-52.896-66.347-97.101-66.347H118.746c-44.205,0-81.897,27.532-97.101,66.347-4.616,11.787-7.24,24.572-7.24,37.995,0,57.626,46.714,104.34,104.34,104.34h401.619c57.627,0,104.342-46.714,104.342-104.34,0-13.423-2.624-26.208-7.241-37.995Z"/><path class="cls-2" d="M617.467,182.482c-15.203-38.815-52.896-66.347-97.101-66.347H118.747c-44.204,0-81.897,27.532-97.1,66.347-4.616,11.786-7.24,24.572-7.24,37.994,0,57.626,46.715,104.341,104.341,104.341h401.62c57.626,0,104.341-46.715,104.341-104.341,0-13.422-2.624-26.208-7.24-37.994Z"/><rect class="cls-1" x="32.882" y="130.135" width="571.48" height="180.684" rx="90.342" ry="90.342"/><rect class="cls-9" x="420.716" y="11.282" width="417.141" height="417.141" rx="208.57" ry="208.57"/><rect class="cls-2" x="420.613" y="11.282" width="417.141" height="417.141" rx="208.57" ry="208.57"/><rect class="cls-1" x="440.706" y="19.933" width="377.159" height="377.159" rx="188.579" ry="188.579"/><g><g><path class="cls-3" d="M774.808,189.338l.029-.04,.031-.043-3.286,.556,.026-.036-6.05,1.023,.031-.043-6.027,1.019-5.59,.945c-10.02-60.15-62.397-106.16-125.347-106.16-.056,0-.111,.003-.167,.003-.09,0-.179-.003-.268-.003-5.943,0-11.815,.433-17.601,1.231-2.536,.35-5.061,.749-7.56,1.248-18.531,3.702-35.966,11.508-51.346,23.117-17.348,13.093-31.17,30.653-39.9,50.438-3.309,7.498,.734,16.203,8.581,18.566,.432,.13,.866,.235,1.3,.321,1.019,.201,2.039,.279,3.044,.246,1.785,0,3.532-.348,5.152-1.011,3.202-1.311,5.903-3.828,7.399-7.212,13.025-29.464,39.907-50.956,71.224-57.515,1.242-.26,2.496-.475,3.751-.688,.755-.102,1.509-.207,2.269-.292,.441-.092,.889-.158,1.332-.244,4.13-.548,8.315-.865,12.549-.877,49.397,.096,90.466,36.274,98.242,83.526l-24.716,4.179,37.19,26.432,5.458,3.879,.146-.205,.289,.205,2.483-3.494,27.797-39.111,.031-.043-.494,.084Z"/><path class="cls-3" d="M738.004,248.329h0c-.999-.3-2.005-.47-3.005-.537-.395-.026-.788-.03-1.18-.023-2.415-.029-4.766,.579-6.83,1.738-2.529,1.421-4.628,3.644-5.881,6.479-13.212,29.891-40.687,51.577-72.585,57.79-.632,.083-1.262,.173-1.897,.244-1.241,.26-2.496,.475-3.75,.688-.755,.102-1.51,.207-2.27,.292-3.493,.389-7.028,.593-10.592,.603-49.411-.081-90.495-36.265-98.271-83.527l24.716-4.18-39.111-27.797-3.537-2.514-.146,.205-.289-.205-3.822,5.378-26.432,37.19-.057,.079,.494-.084-.003,.004-.056,.08,6.05-1.023-.031,.043,12.039-2.036,2.832-.479c10.006,60.166,62.393,106.191,125.354,106.191,.062,0,.123-.003,.184-.003,.084,0,.167,.003,.251,.003,5.353,0,10.652-.333,15.881-.98,2.747-.34,5.475-.768,8.179-1.283,18.942-3.608,36.762-11.495,52.446-23.333,17.348-13.093,31.169-30.653,39.9-50.437,3.309-7.498-.734-16.204-8.582-18.567Z"/></g><g><path class="cls-8" d="M772.016,189.81l.026-.036-6.05,1.023,.031-.043-6.027,1.019-6.013,1.017c-9.99-60.185-62.385-106.231-125.36-106.231-5.943,0-11.815,.433-17.601,1.231-2.536,.35-5.061,.749-7.56,1.248-18.531,3.702-35.966,11.508-51.346,23.117-17.348,13.093-31.17,30.653-39.9,50.438-3.308,7.498,.734,16.203,8.581,18.566,.432,.13,.866,.235,1.3,.321,2.673,.527,5.357,.22,7.761-.765,3.202-1.311,5.903-3.828,7.399-7.212,13.025-29.464,39.907-50.956,71.224-57.515,1.242-.26,2.496-.475,3.751-.688,.755-.102,1.509-.207,2.269-.292,.441-.092,.889-.158,1.332-.244,4.208-.559,8.473-.881,12.789-.881,49.484,0,90.651,36.216,98.437,83.531l-24.716,4.179,37.19,26.432,5.458,3.879,2.483-3.494,27.797-39.111,.031-.043-3.286,.556Z"/><path class="cls-8" d="M738.004,248.329h0c-.999-.3-2.005-.47-3.005-.537-2.675-.179-5.299,.437-7.575,1.716-2.529,1.421-4.628,3.644-5.881,6.478-13.212,29.89-40.687,51.577-72.585,57.79-.632,.083-1.262,.173-1.897,.244-1.241,.26-2.496,.475-3.75,.688-.755,.102-1.51,.207-2.27,.292-3.581,.399-7.205,.606-10.861,.606-49.485,0-90.652-36.216-98.438-83.531l24.716-4.18-39.111-27.797-3.537-2.514-3.822,5.378-26.432,37.19-.056,.08,6.05-1.023-.031,.043,12.039-2.036,3.255-.55c9.977,60.201,62.38,106.262,125.366,106.262,5.353,0,10.652-.333,15.881-.98,2.747-.34,5.475-.767,8.179-1.283,18.942-3.608,36.762-11.495,52.446-23.333,17.348-13.093,31.169-30.653,39.9-50.437,3.309-7.498-.734-16.204-8.582-18.567Z"/></g><g><path class="cls-7" d="M648.719,341.285c-1.028,.232-2.058,.456-3.093,.663,2.747-.34,5.475-.768,8.179-1.283-.72,.102-1.437,.213-2.16,.303-.972,.12-1.949,.218-2.926,.317Z"/><path class="cls-4" d="M728.289,249.828c.692,.208,1.342,.482,1.973,.784,.84-.801,1.746-1.522,2.747-2.084,.501-.282,1.024-.519,1.556-.736-2.675-.18-5.299,.437-7.575,1.716,.434,.086,.868,.191,1.3,.321h0Z"/><polygon class="cls-4" points="515.573 201.983 516.913 200.098 513.376 197.584 509.553 202.963 513.09 205.476 515.573 201.983"/><polygon class="cls-7" points="489.172 239.13 483.122 240.153 483.065 240.232 489.115 239.209 489.141 239.173 489.172 239.13"/><path class="cls-4" d="M526.383,180.178c-.692-.208-1.342-.482-1.973-.784-.84,.801-1.747,1.522-2.747,2.084,2.673,.527,5.357,.22,7.761-.765-.579-.038-1.16-.1-1.742-.215-.434-.086-.868-.191-1.3-.321Z"/><polygon class="cls-7" points="774.837 189.297 774.868 189.254 771.581 189.81 771.551 189.853 774.837 189.297"/><polygon class="cls-4" points="741.582 224.529 739.099 228.023 744.557 231.902 747.04 228.408 745.119 227.043 741.582 224.529"/><path class="cls-7" d="M609.047,88.057c.51-.102,1.028-.173,1.54-.268-2.536,.35-5.061,.749-7.56,1.248,.972-.12,1.949-.218,2.927-.317,1.028-.232,2.058-.456,3.093-.663Z"/><path class="cls-4" d="M635.765,341.948c-62.999,0-115.412-46.08-125.373-106.299l-6.013,1.017c9.977,60.201,62.38,106.262,125.366,106.262,5.353,0,10.652-.333,15.881-.98,1.035-.207,2.065-.431,3.093-.663-4.277,.431-8.597,.663-12.954,.663Z"/><polygon class="cls-4" points="513.09 205.476 509.553 202.963 483.122 240.153 489.172 239.13 513.09 205.476"/><path class="cls-4" d="M727.127,255.006c.757-1.713,1.851-3.17,3.135-4.394-.63-.302-1.281-.575-1.973-.784h0c-.432-.13-.866-.235-1.3-.321-2.529,1.421-4.628,3.644-5.881,6.479-13.212,29.89-40.687,51.577-72.585,57.79,34.434-4.517,64.568-27.014,78.604-58.769Z"/><path class="cls-11" d="M765.557,190.796l.031-.043-6.027,1.019,.007,.037,5.989-1.013Z"/><path class="cls-4" d="M520.363,181.157c.432,.13,.866,.235,1.3,.321,1-.562,1.907-1.283,2.747-2.084-6.519-3.121-9.626-10.946-6.609-17.782,8.73-19.785,22.552-37.345,39.9-50.438,14.521-10.96,30.875-18.527,48.253-22.454-.977,.098-1.954,.197-2.927,.317-18.531,3.702-35.966,11.508-51.346,23.117-17.348,13.093-31.17,30.653-39.9,50.438-3.309,7.498,.734,16.203,8.581,18.566Z"/><path class="cls-4" d="M707.929,200.611l24.716-4.179c-7.786-47.315-48.952-83.531-98.437-83.531-6.391,0-12.677,.662-18.809,1.861,4.208-.559,8.472-.881,12.789-.881,49.484,0,90.651,36.216,98.437,83.531l-24.716,4.179,37.19,26.432,2.483-3.494-33.653-23.918Z"/><path class="cls-7" d="M746.15,266.895c3.309-7.498-.734-16.204-8.582-18.567h0c-.999-.301-2.005-.47-3.005-.537-.532,.217-1.055,.454-1.556,.736,.434,.086,.868,.191,1.3,.321h0c7.848,2.362,11.891,11.069,8.582,18.567-8.73,19.784-22.552,37.344-39.9,50.437-15.38,11.609-32.814,19.415-51.345,23.117,.722-.089,1.44-.201,2.16-.303,18.942-3.608,36.762-11.495,52.446-23.333,17.348-13.093,31.169-30.653,39.9-50.437Z"/><path class="cls-7" d="M552.763,228.415l-24.716,4.179c7.786,47.315,48.952,83.531,98.438,83.531,4.317,0,8.581-.323,12.789-.881,.443-.087,.891-.152,1.332-.244-3.581,.399-7.205,.606-10.861,.606-49.485,0-90.652-36.216-98.438-83.531l24.716-4.179-39.111-27.797-1.34,1.885,37.19,26.432Z"/><path class="cls-5" d="M639.274,315.243c1.205-.16,2.407-.333,3.602-.536-.755,.102-1.51,.207-2.27,.292-.441,.092-.889,.158-1.332,.244Z"/><path class="cls-5" d="M495.104,238.196l-5.989,1.013-.031,.043,12.039-2.036-.007-.037-6.013,1.017Z"/><path class="cls-5" d="M495.098,238.165l-5.957,1.007-.026,.036,5.989-1.013-.006-.031Z"/><path class="cls-5" d="M501.117,237.18l-.006-.031-6.013,1.017,.006,.031,6.013-1.017Z"/><path class="cls-7" d="M536.824,173.501c13.025-29.464,39.907-50.956,71.224-57.515-.635,.071-1.265,.161-1.898,.244-31.898,6.213-59.374,27.9-72.587,57.79-1.253,2.834-3.352,5.057-5.88,6.478,.581,.115,1.162,.177,1.742,.215,3.202-1.311,5.903-3.828,7.399-7.212Z"/><path class="cls-5" d="M611.799,115.298c-1.897,.256-3.78,.568-5.649,.932,.632-.083,1.263-.173,1.898-.244,1.242-.26,2.496-.475,3.751-.688Z"/><polygon class="cls-7" points="745.119 227.043 747.04 228.408 774.837 189.297 771.551 189.853 745.119 227.043"/><path class="cls-7" d="M624.928,87.077c62.986,0,115.389,46.061,125.366,106.262l3.255-.55c-9.99-60.185-62.385-106.231-125.36-106.231-5.943,0-11.815,.433-17.601,1.231-.512,.096-1.03,.166-1.54,.268,5.228-.646,10.528-.98,15.88-.98Z"/><path class="cls-5" d="M753.555,192.826l6.013-1.017-.007-.037-6.013,1.017,.007,.037Z"/><path class="cls-5" d="M753.555,192.826l-.007-.037-3.255,.55,.007,.037,3.255-.55Z"/><path class="cls-5" d="M648.523,313.775c-.632,.083-1.262,.173-1.897,.244-1.241,.26-2.496,.475-3.75,.688,1.897-.256,3.779-.568,5.647-.932Z"/><path class="cls-5" d="M501.117,237.18l.007,.037,3.255-.55-.007-.037-3.255,.55Z"/><path class="cls-3" d="M736.87,268.395c-8.73,19.784-22.552,37.344-39.9,50.437-14.521,10.96-30.874,18.527-48.252,22.453,.977-.098,1.954-.196,2.926-.317,18.531-3.702,35.965-11.508,51.345-23.117,17.348-13.093,31.169-30.653,39.9-50.437,3.309-7.498-.734-16.204-8.582-18.567h0c-.432-.13-.866-.235-1.3-.321-1,.562-1.907,1.283-2.747,2.084,6.519,3.121,9.626,10.946,6.609,17.783Z"/><path class="cls-3" d="M528.047,232.594l24.716-4.179-37.19-26.432-2.483,3.494,33.653,23.918-24.716,4.179c7.786,47.315,48.952,83.531,98.438,83.531,6.391,0,12.677-.662,18.809-1.861-4.208,.559-8.473,.881-12.789,.881-49.485,0-90.652-36.216-98.438-83.531Z"/><path class="cls-5" d="M495.098,238.165l-.007-.037-5.92,1.001-.031,.043,5.957-1.007Z"/><path class="cls-3" d="M635.765,341.948c4.357,0,8.677-.232,12.954-.663,17.378-3.927,33.731-11.493,48.252-22.453,17.348-13.093,31.169-30.653,39.9-50.437,3.017-6.837-.09-14.663-6.609-17.783-1.284,1.225-2.377,2.681-3.135,4.394-14.037,31.756-44.17,54.253-78.604,58.769-1.868,.364-3.75,.676-5.647,.932-1.195,.203-2.396,.376-3.602,.536-6.132,1.199-12.418,1.861-18.809,1.861-49.485,0-90.652-36.216-98.438-83.531l24.716-4.179-33.653-23.918-23.918,33.653,5.92-1.001,.007,.037,6.013-1.017,.006,.031,3.255-.55,.007,.037,6.013-1.017c9.961,60.219,62.374,106.299,125.373,106.299Z"/><polygon class="cls-5" points="771.581 189.81 771.607 189.773 765.557 190.796 765.531 190.833 771.581 189.81"/><polygon class="cls-5" points="765.5 190.876 771.551 189.853 771.581 189.81 765.531 190.833 765.5 190.876"/><path class="cls-5" d="M759.574,191.84l5.958-1.007,.026-.036-5.989,1.013,.006,.031Z"/><path class="cls-5" d="M765.5,190.876l.031-.043-5.958,1.007,.007,.037,5.92-1.001Z"/><path class="cls-5" d="M614.067,115.007c.441-.092,.889-.158,1.332-.244-1.205,.16-2.406,.333-3.6,.536,.755-.102,1.509-.207,2.269-.292Z"/><path class="cls-3" d="M527.683,180.499c2.528-1.421,4.628-3.644,5.88-6.478,13.213-29.89,40.688-51.578,72.587-57.79-34.435,4.517-64.569,27.015-78.606,58.77-.757,1.713-1.85,3.169-3.134,4.393,.63,.302,1.281,.575,1.973,.784,.432,.13,.866,.235,1.3,.321Z"/><polygon class="cls-3" points="745.119 227.043 771.551 189.853 765.5 190.876 741.582 224.529 745.119 227.043"/><path class="cls-3" d="M744.281,194.356l6.013-1.017c-9.976-60.201-62.38-106.262-125.366-106.262-5.353,0-10.652,.333-15.88,.98-1.035,.207-2.065,.431-3.093,.663,4.277-.431,8.596-.663,12.954-.663,62.999,0,115.411,46.08,125.373,106.299Z"/><path class="cls-5" d="M759.574,191.84l-.006-.031-6.013,1.017,.006,.031,6.013-1.017Z"/><path class="cls-3" d="M732.645,196.432l-24.716,4.179,33.653,23.918,23.918-33.653-5.92,1.001-.007-.037-6.013,1.017-.006-.031-3.255,.55-.007-.037-6.013,1.017c-9.961-60.219-62.374-106.299-125.373-106.299-4.357,0-8.677,.232-12.954,.663-17.378,3.927-33.732,11.493-48.253,22.454-17.348,13.093-31.17,30.653-39.9,50.438-3.017,6.837,.09,14.662,6.609,17.782,1.284-1.224,2.377-2.681,3.134-4.393,14.038-31.756,44.171-54.253,78.606-58.77,1.869-.364,3.752-.676,5.649-.932,1.194-.203,2.395-.376,3.6-.536,6.132-1.199,12.418-1.861,18.809-1.861,49.484,0,90.651,36.216,98.437,83.531Z"/></g></g><g><path class="cls-6" d="M109.412,250.612l30.442-68.52h11.844l30.345,68.52h-14.193l-6.167-14.193h-31.812l-6.265,14.193h-14.193Zm24.863-25.353h23.003l-11.453-25.842h-.196l-11.354,25.842Z"/><path class="cls-6" d="M224.131,242.781c-2.056,3.817-7.929,8.908-16.151,8.908-10.669,0-18.696-5.482-18.696-21.73v-30.443h12.236v28.779c0,8.81,3.916,11.941,10.082,11.941,6.265,0,10.572-4.992,10.572-13.019v-27.702h12.235v51.097h-7.929l-2.349-7.831Z"/><path class="cls-6" d="M280.805,248.165c-4.405,2.937-9.299,3.524-12.529,3.524-10.669,0-17.228-5.678-17.228-18.305v-22.71h-6.46v-10.963h6.95v-11.062h11.746v11.062h15.662v10.963h-15.662v22.71c0,5.481,1.762,7.146,5.58,7.146,2.839,0,4.894-.686,7.929-2.153l4.013,9.788Z"/><path class="cls-6" d="M313.986,198.44c15.27,0,26.527,11.648,26.527,26.625s-11.257,26.625-26.527,26.625-26.527-11.648-26.527-26.625,11.257-26.625,26.527-26.625Zm14.095,26.625c0-8.908-5.775-15.466-14.095-15.466s-14.193,6.558-14.193,15.466c0,8.81,5.873,15.466,14.193,15.466s14.095-6.656,14.095-15.466Z"/></g></svg>