<?xml version="1.0" encoding="UTF-8"?><svg id="Layer_1" xmlns="http://www.w3.org/2000/svg" viewBox="0 0 735.169 735.169"><defs><style>.cls-1{fill:#fff;}.cls-2{fill:#d8d8d8;}.cls-3{fill:#3b519f;}.cls-4{fill:#7094cd;}.cls-5{fill:#1e2c4c;}.cls-6{fill:none;stroke:#122033;stroke-miterlimit:10;stroke-width:13.784px;}.cls-7{fill:#839ecd;}.cls-8{fill:#2a3b6b;}</style></defs><rect class="cls-2" width="735.169" height="735.169" rx="195.292" ry="195.292"/><rect class="cls-1" x="39.166" y="15.545" width="657.192" height="657.192" rx="212.169" ry="212.169"/><path class="cls-3" d="M597.981,210.456c-7.613-19.747-26.488-33.753-48.623-33.753H185.513c-22.135,0-41.01,14.006-48.622,33.753-2.312,5.996-3.626,12.501-3.626,19.329,0,29.316,23.392,53.082,52.248,53.082h363.845c28.856,0,52.248-23.766,52.248-53.082,0-6.828-1.314-13.333-3.626-19.329Z"/><path class="cls-6" d="M598.275,209.914c-7.617-19.449-26.504-33.244-48.653-33.244H185.546c-22.149,0-41.035,13.795-48.653,33.244-2.313,5.906-3.628,12.312-3.628,19.038,0,28.874,23.407,52.281,52.281,52.281h364.076c28.875,0,52.282-23.407,52.282-52.281,0-6.726-1.315-13.132-3.628-19.038Z"/><path class="cls-3" d="M598.454,344.865c-7.617-19.449-26.504-33.244-48.653-33.244H185.724c-22.149,0-41.036,13.795-48.653,33.244-2.313,5.905-3.628,12.312-3.628,19.037,0,28.874,23.407,52.281,52.281,52.281h364.076c28.874,0,52.281-23.407,52.281-52.281,0-6.725-1.315-13.132-3.628-19.037Z"/><path class="cls-3" d="M598.454,483.918c-7.617-19.449-26.504-33.244-48.653-33.244H185.724c-22.149,0-41.036,13.795-48.653,33.244-2.313,5.905-3.628,12.312-3.628,19.037,0,28.874,23.407,52.281,52.281,52.281h364.076c28.874,0,52.281-23.407,52.281-52.281,0-6.725-1.315-13.132-3.628-19.037Z"/><g><path class="cls-8" d="M549.556,243.159H185.48c-22.149,0-41.036-13.795-48.653-33.244-2.313,5.905-3.628,12.312-3.628,19.037,0,28.874,23.407,52.281,52.281,52.281h364.076c28.874,0,52.281-23.407,52.281-52.281,0-6.725-1.315-13.132-3.628-19.037-7.617,19.449-26.504,33.244-48.653,33.244Z"/><path class="cls-3" d="M185.48,243.159h364.076c22.149,0,41.036-13.795,48.653-33.244-7.617-19.449-26.504-33.244-48.653-33.244H185.48c-22.149,0-41.036,13.795-48.653,33.244,7.617,19.449,26.504,33.244,48.653,33.244Z"/><g><line class="cls-4" x1="370.549" y1="199.125" x2="539.213" y2="199.125"/><path class="cls-7" d="M539.215,206.655h-168.666c-4.16,0-7.531-3.373-7.531-7.531s3.371-7.531,7.531-7.531h168.666c4.16,0,7.531,3.373,7.531,7.531s-3.371,7.531-7.531,7.531Z"/></g></g><path class="cls-6" d="M598.275,344.865c-7.617-19.449-26.504-33.244-48.653-33.244H185.546c-22.149,0-41.035,13.795-48.653,33.244-2.313,5.906-3.628,12.312-3.628,19.038,0,28.874,23.407,52.281,52.281,52.281h364.076c28.875,0,52.282-23.407,52.282-52.281,0-6.726-1.315-13.132-3.628-19.038Z"/><g><path class="cls-8" d="M549.622,378.109H185.546c-22.149,0-41.036-13.795-48.653-33.244-2.313,5.905-3.628,12.312-3.628,19.037,0,28.874,23.407,52.281,52.281,52.281h364.076c28.874,0,52.281-23.407,52.281-52.281,0-6.725-1.315-13.132-3.628-19.037-7.617,19.449-26.504,33.244-48.653,33.244Z"/><path class="cls-3" d="M185.546,378.109h364.076c22.149,0,41.036-13.795,48.653-33.244-7.617-19.449-26.504-33.244-48.653-33.244H185.546c-22.149,0-41.036,13.795-48.653,33.244,7.617,19.449,26.504,33.244,48.653,33.244Z"/><g><line class="cls-4" x1="370.615" y1="334.075" x2="539.28" y2="334.075"/><path class="cls-7" d="M539.281,341.606h-225.347c-4.16,0-7.531-3.373-7.531-7.531s3.371-7.531,7.531-7.531h225.347c4.16,0,7.531,3.373,7.531,7.531s-3.371,7.531-7.531,7.531Z"/></g></g><path class="cls-6" d="M598.275,483.918c-7.617-19.449-26.504-33.244-48.653-33.244H185.546c-22.149,0-41.035,13.795-48.653,33.244-2.313,5.906-3.628,12.312-3.628,19.038,0,28.874,23.407,52.281,52.281,52.281h364.076c28.875,0,52.282-23.407,52.282-52.281,0-6.726-1.315-13.132-3.628-19.038Z"/><g><path class="cls-8" d="M181.925,539.219h372.449c20.145,0,37.63-11.13,46.743-27.53,.48-2.846,.787-5.751,.787-8.733,0-6.725-1.315-13.132-3.628-19.037-7.617,19.449-26.504,33.244-48.653,33.244H185.547c-22.149,0-41.036-13.795-48.653-33.244-2.313,5.905-3.628,12.312-3.628,19.037,0,1.906,.115,3.784,.314,5.638,8.55,18.085,26.954,30.626,48.345,30.626Z"/><path class="cls-5" d="M185.547,555.237h364.076c25.892,0,47.33-18.84,51.494-43.548-9.112,16.401-26.598,27.53-46.743,27.53H181.925c-21.391,0-39.795-12.541-48.345-30.626,2.813,26.221,24.999,46.644,51.967,46.644Z"/><path class="cls-5" d="M185.547,416.184h364.076c25.892,0,47.33-18.84,51.494-43.548-9.112,16.401-26.598,27.53-46.743,27.53H181.925c-21.391,0-39.795-12.541-48.345-30.626,2.813,26.221,24.999,46.644,51.967,46.644Z"/><path class="cls-5" d="M185.547,281.233h364.076c25.892,0,47.33-18.84,51.494-43.548-9.112,16.401-26.598,27.53-46.743,27.53H181.925c-21.391,0-39.795-12.541-48.345-30.626,2.813,26.221,24.999,46.644,51.967,46.644Z"/></g><path class="cls-3" d="M185.546,517.163h364.076c22.149,0,41.036-13.795,48.653-33.244-7.617-19.449-26.504-33.244-48.653-33.244H185.546c-22.149,0-41.036,13.795-48.653,33.244,7.617,19.449,26.504,33.244,48.653,33.244Z"/><g><line class="cls-4" x1="370.615" y1="473.128" x2="539.28" y2="473.129"/><path class="cls-7" d="M539.281,480.659h-168.666c-4.16,0-7.531-3.373-7.531-7.531s3.371-7.531,7.531-7.531h168.666c4.16,0,7.531,3.373,7.531,7.531s-3.371,7.531-7.531,7.531Z"/></g></svg>