<?xml version="1.0" encoding="UTF-8"?><svg id="Layer_1" xmlns="http://www.w3.org/2000/svg" xmlns:xlink="http://www.w3.org/1999/xlink" viewBox="0 0 841.494 736.452"><defs><style>.cls-1{fill:#086885;}.cls-2{fill:#4e6269;}.cls-3{fill:#64766b;}.cls-4{fill:#f1f3fa;}.cls-5{fill:#6e8287;}.cls-6{fill:#034159;}.cls-7{fill:#506468;}.cls-8{fill:#cecfbc;}.cls-9{fill:#16262b;}.cls-10{fill:#05ab78;}.cls-11{fill:#ed6b15;}.cls-12{fill:#dfd8ce;}.cls-13{fill:#aaaa9b;}.cls-14{fill:url(#radial-gradient);}.cls-15{fill:#868e7a;}.cls-16{fill:#f2a47a;}.cls-17{fill:#fbf7f0;}.cls-18{fill:#faf8e1;}.cls-19{fill:#526267;}.cls-20{fill:#bee2e3;}.cls-21{fill:#1c1a18;}.cls-22{fill:#150b0a;}.cls-23{fill:#0a2230;}.cls-24{fill:#100b0b;}.cls-25{fill:#f8faee;}.cls-26{fill:#162932;}.cls-27{fill:#fcf9e7;}</style><radialGradient id="radial-gradient" cx="420.747" cy="359.666" fx="420.747" fy="359.666" r="422.254" gradientTransform="translate(223.408 -56.897) rotate(40.547) scale(1 .523)" gradientUnits="userSpaceOnUse"><stop offset="0" stop-color="#2e2d35"/><stop offset=".839" stop-color="#0f314b"/></radialGradient></defs><rect class="cls-23" y="84.115" width="841.494" height="652.337" rx="38.223" ry="38.223"/><rect class="cls-1" width="841.494" height="678.363" rx="38.223" ry="38.223"/><rect class="cls-14" x="8.492" y="40.08" width="824.51" height="639.172" rx="38.223" ry="38.223"/><path class="cls-6" d="M442.824,163.039h0c0-12.403,9.079-22.458,20.278-22.458h304.906c12.651,0,22.906-11.358,22.906-25.368h0c0-14.011-10.255-25.368-22.906-25.368H274.135c-11.199,0-20.278,10.055-20.278,22.458h0c0,12.403-9.079,22.458-20.278,22.458h-98.099c-11.872,0-21.497,10.659-21.497,23.807h0c0,13.149-9.624,23.807-21.497,23.807h-3.298c-23.615,0-42.758,21.201-42.758,47.354h0c0,26.153,19.143,47.354,42.758,47.354h232.386c10.65,0,19.284,9.562,19.284,21.357h0c0,11.795,8.634,21.357,19.284,21.357h286.651c12.651,0,22.906-11.358,22.906-25.368h0c0-14.01-10.255-25.368-22.906-25.368h-122.231c-10.65,0-19.284-9.562-19.284-21.357h0c0-11.795-8.634-21.357-19.284-21.357H231.843c-10.186,0-18.443-9.145-18.443-20.425h0c0-11.281,8.257-20.425,18.443-20.425h190.703c11.199,0,20.278-10.055,20.278-22.458Z"/><path class="cls-6" d="M394.521,476.193h0c0-12.403-9.079-22.458-20.278-22.458H69.337c-12.651,0-22.906-11.358-22.906-25.368h0c0-14.011,10.255-25.368,22.906-25.368h493.873c11.199,0,20.278,10.055,20.278,22.458h0c0,12.403,9.079,22.458,20.278,22.458h91.442c15.549,0,28.153,10.659,28.153,23.807h0c0,13.149,12.605,23.807,28.153,23.807h0c21.759,0,39.399,14.917,39.399,33.317v14.037c0,26.153-25.071,47.354-55.998,47.354h-219.145c-10.65,0-19.284,9.562-19.284,21.357h0c0,11.795-8.634,21.357-19.284,21.357H190.552c-12.651,0-22.906-11.358-22.906-25.368h0c0-14.01,10.255-25.368,22.906-25.368h122.231c10.65,0,19.284-9.562,19.284-21.357h0c0-11.795,8.634-21.357,19.284-21.357h254.151c10.186,0,18.443-9.145,18.443-20.425h0c0-11.281-8.257-20.425-18.443-20.425h-190.703c-11.199,0-20.278-10.055-20.278-22.458Z"/><g><path class="cls-22" d="M769.119,629.573c-.513-2.776-1.026-6.251-1.57-9.929-.506-3.424-1.029-6.964-1.619-10.419-1.631-9.554-5.834-16.656-12.492-21.108-7.552-5.051-15.972-5.106-20.481-4.651-1.91-8.038-5.832-14.138-11.697-18.146-7.839-5.355-16.714-5.236-21.149-4.735-1.868-8.263-5.825-14.518-11.798-18.601-7.748-5.297-16.516-5.242-21-4.755-1.882-8.192-5.83-14.398-11.769-18.455-7.664-5.236-16.315-5.239-20.843-4.767-1.896-8.119-5.831-14.275-11.735-18.308-7.926-5.414-16.92-5.235-21.304-4.719-1.841-8.18-5.853-14.545-11.66-18.609l7.453-10.523-45.407-32.163c2.432-21.583-7.054-43.094-24.896-55.733l-54.778-38.801h0l-74.474-52.75c-4.958-3.512-10.988-4.883-16.976-3.86-4.835,.826-9.177,3.131-12.519,6.598l-34.983-24.779c2.384-8.929-.852-18.808-8.824-24.455l-2.717-1.924,14.378-20.299c15.768-22.262,10.485-53.201-11.777-68.969l-45.595-32.295c3.619-10.884-.088-23.323-9.921-30.288-5.831-4.13-12.923-5.743-19.967-4.54-7.044,1.203-13.198,5.077-17.329,10.908L76.103,308.125c-8.544,12.063-6.202,28.886,5.22,37.502,5.833,4.401,13.019,6.208,20.228,5.088,4.978-.773,9.519-2.869,13.242-6.051l45.321,32.101c12.912,9.145,29.598,11.532,44.635,6.388,9.903-3.388,18.317-9.669,24.334-18.164l13.705-19.349,2.716,1.924c4.958,3.512,10.987,4.881,16.977,3.86,3.75-.641,7.203-2.171,10.123-4.442l34.642,24.537c-4.26,8.737-2.325,19.817,5.112,27.021l1.014-1.047-.918,1.163c.05,.044,.101,.088,.152,.131,.144,.143,.291,.284,.443,.42l.277,.247,47.675,33.768-20.532,28.987-1.091-.772c-6.083-4.31-13.48-5.994-20.831-4.737-7.349,1.255-13.769,5.296-18.079,11.38s-5.992,13.481-4.737,20.831,5.296,13.77,11.38,18.079l28.725,20.347c4.888,3.461,10.517,5.124,16.094,5.124,8.754,0,17.382-4.098,22.816-11.77,4.309-6.083,5.991-13.481,4.736-20.83-1.255-7.35-5.296-13.77-11.38-18.078l-8.969-6.354,20.532-28.987,9.241,6.546h0l54.778,38.799c17.845,12.642,41.287,14.45,60.841,4.992l45.404,32.162,8.474-11.963c4.908,1.593,9.227,2.033,11.264,2.154,2.134,8.007,7.351,14.321,15.2,18.352,7.726,3.965,15.595,4.538,17.812,4.621,2.048,8.244,7.315,14.738,15.325,18.85,7.263,3.729,14.653,4.458,17.356,4.6,2.114,8.064,7.335,14.426,15.222,18.475,7.398,3.799,14.934,4.485,17.508,4.608,2.093,8.123,7.328,14.529,15.257,18.6,7.541,3.871,15.236,4.51,17.661,4.615,2.071,8.183,7.322,14.633,15.293,18.725,8.205,4.212,16.578,4.597,18.16,4.632l.858,.636c2.422,1.795,5.978,2.534,12.23,2.534,.108,0,.219,0,.329,0,7.058-.028,15.193-1.004,15.537-1.046l6.981-.845-1.277-6.916ZM117.705,330.529h0l40.139-56.669-12.611,17.805-27.528,38.865Zm110.234-156.607c-4.97,2.544-28.268,32.226-38.953,46.048,12.812-16.972,33.714-43.895,38.953-46.048Zm-49.197,59.785l-21.615,29.929c11.719-16.242,21.399-29.631,21.615-29.929Z"/><path class="cls-7" d="M403.235,444.654l74.749-102.705,59.399,46.066,10.654,23.657v18.219l45.205,32.234-43.246,61.314-43.796-32.702s-55.358-13.196-56.759-14.247-46.207-31.835-46.207-31.835Z"/><path class="cls-18" d="M264.652,125.774l7.932-7.708,55.355,44.847,5.533,26.247-8.409,25.957-108.83,151.358-17.976,14.365-.777-7.007,123.813-179.737s-17.953-40.411-21.457-42.629-28.668-12.634-31.216-16.705-3.969-8.987-3.969-8.987Z"/><path class="cls-19" d="M225.56,112.81s-1.051-7.007,0-7.883,13.489-3.854,16.818-3.328,13.664,11.212,13.664,11.212c0,0,5.431,11.212,5.431,12.964s-2.277,7.182-4.204,8.409-9.46-3.328-15.591-8.934-16.117-12.438-16.117-12.438Z"/><path class="cls-27" d="M345.721,343.263l-15.811,2.435s2.109,12.31,2.223,12.426,48.727,42.949,54.245,45.314,32.295,19.423,32.295,19.423l3.968-7.335s-16.131-10.149-19.628-13.089-57.291-59.173-57.291-59.173Z"/><path class="cls-13" d="M321.294,367.963c-.085-.788-2.187-9.167-1.136-9.839s7.781-4.11,7.781-4.11l2.993,13.949,3.679,3.153,74.628,53.606s5.056,6.623,3.745,7.322-12.103,4.502-14.099,2.926-70.945-60.175-70.945-60.175l-6.645-6.832Z"/><polygon class="cls-12" points="764.508 631.728 761.749 611.96 741.996 606.168 745.249 628.563 763.085 634.416 764.508 631.728"/><path class="cls-15" d="M745.687,620.458l-2.348-10.702-10.758-4.534s3.285,14.609,3.81,16.055,8.308,.311,8.308,.311l.988-1.13Z"/><g><path class="cls-22" d="M645.044,565.677l-8.248-.086c-.974-.01-9.767-.227-18.355-4.637-8.574-4.401-14.008-11.53-15.712-20.615-3.362-17.911-8.141-40.929-8.188-41.159l-1.296-6.235,6.236-1.538s.134-.033,.34-.074c2.306-.468,13.767-2.339,23.58,4.365,6.534,4.464,10.666,11.519,12.279,20.967,4.251,24.892,7.616,40.787,7.65,40.944l1.714,8.068Zm-35.993-61.551c1.706,8.361,4.482,22.131,6.668,33.775,.95,5.062,3.814,8.757,8.759,11.295,1.331,.684,2.693,1.22,4.005,1.642-1.414-7.227-3.492-18.248-5.832-31.949-.987-5.781-3.243-9.912-6.706-12.278-2.197-1.501-4.67-2.198-6.894-2.484Z"/><path class="cls-22" d="M677.623,588.752l-8.249-.086c-.974-.01-9.767-.227-18.355-4.637-8.574-4.401-14.008-11.53-15.712-20.615-3.362-17.911-8.141-40.929-8.188-41.159l-1.335-6.427,6.576-1.413c2.212-.453,13.75-2.385,23.619,4.357,6.534,4.464,10.666,11.519,12.279,20.967,4.254,24.919,7.616,40.786,7.649,40.943l1.716,8.069Zm-35.994-61.551c1.706,8.361,4.482,22.131,6.668,33.775,.95,5.062,3.814,8.757,8.759,11.295,1.331,.684,2.692,1.22,4.005,1.642-1.414-7.228-3.493-18.248-5.832-31.949-.987-5.781-3.243-9.912-6.706-12.278-2.197-1.501-4.67-2.198-6.894-2.484Z"/><path class="cls-22" d="M710.387,611.96l-8.25-.087c-.975-.01-9.767-.228-18.354-4.636-8.575-4.402-14.009-11.532-15.713-20.617-3.362-17.913-8.141-40.928-8.188-41.158l-1.3-6.256,6.545-1.585c2.215-.455,13.76-2.38,23.621,4.362,6.531,4.465,10.66,11.518,12.273,20.963,4.254,24.918,7.616,40.786,7.649,40.944l1.717,8.069Zm-35.995-61.551c1.707,8.362,4.483,22.131,6.668,33.773,.95,5.062,3.815,8.758,8.759,11.296,1.329,.682,2.69,1.218,4.004,1.639-1.414-7.227-3.492-18.248-5.831-31.946-.986-5.779-3.242-9.91-6.703-12.276-2.197-1.501-4.671-2.198-6.896-2.485Z"/><path class="cls-22" d="M743.339,635.301l-8.249-.087c-.975-.01-9.767-.228-18.354-4.636-8.576-4.403-14.01-11.532-15.714-20.617-3.361-17.91-8.14-40.929-8.188-41.159l-1.327-6.39,6.567-1.45c2.213-.453,13.751-2.385,23.62,4.357,6.534,4.465,10.665,11.519,12.278,20.967,4.251,24.892,7.617,40.787,7.65,40.945l1.716,8.069Zm-35.994-61.553c1.706,8.362,4.482,22.132,6.667,33.775,.95,5.062,3.815,8.757,8.76,11.296,1.329,.682,2.69,1.218,4.004,1.639-1.414-7.227-3.492-18.248-5.832-31.947-.986-5.781-3.243-9.912-6.705-12.277-2.197-1.501-4.671-2.198-6.894-2.485Zm-7.938-6.312h0Z"/><path class="cls-22" d="M747.984,638.38c-6.253,0-9.809-.739-12.23-2.534l-2.079-1.541-.479-2.543c-1.06-5.616-2.789-14.43-4.032-20.672-2.141-10.697-3.919-19.264-3.936-19.342l-1.324-6.358,6.334-1.439c1.329-.303,13.3-2.746,23.636,4.166,6.658,4.452,10.861,11.555,12.492,21.108,.59,3.455,1.113,6.995,1.619,10.419,.544,3.678,1.058,7.152,1.57,9.929l1.277,6.916-6.981,.845c-.344,.042-8.479,1.018-15.537,1.046-.11,0-.221,0-.329,0Zm-2.605-13.284c.75,.044,1.709,.07,2.882,.066,2.347-.01,4.879-.143,7.136-.307-.161-1.069-.323-2.165-.487-3.279-.496-3.352-1.008-6.817-1.573-10.127-.989-5.797-3.256-9.934-6.736-12.297-2.18-1.479-4.643-2.168-6.86-2.453,.666,3.265,1.493,7.345,2.386,11.803,.971,4.877,2.236,11.311,3.254,16.594Zm-2.548-.32h0Z"/><path class="cls-22" d="M352.366,532.46c-5.578,0-11.207-1.663-16.094-5.124l-28.725-20.347c-6.084-4.31-10.125-10.729-11.38-18.079s.427-14.747,4.737-20.831,10.73-10.125,18.079-11.38c7.351-1.256,14.748,.428,20.831,4.737l1.091,.772,20.532-28.987-47.675-33.768-.277-.247c-.152-.136-.299-.277-.443-.42-.052-.043-.103-.087-.152-.131l.918-1.163-1.014,1.047c-7.437-7.204-9.372-18.284-5.112-27.021l-34.642-24.537c-2.92,2.271-6.373,3.802-10.123,4.442-5.99,1.021-12.018-.349-16.977-3.86l-2.716-1.924-13.705,19.349c-6.017,8.495-14.432,14.776-24.334,18.164-15.037,5.145-31.723,2.757-44.635-6.388l-45.321-32.101c-3.723,3.182-8.264,5.278-13.242,6.051-7.209,1.12-14.395-.687-20.228-5.088-11.422-8.616-13.764-25.439-5.22-37.502L232.104,88.496c4.13-5.832,10.284-9.706,17.329-10.908,7.043-1.203,14.136,.41,19.967,4.54h0c9.833,6.965,13.54,19.404,9.921,30.288l45.595,32.295c22.262,15.768,27.545,46.708,11.777,68.969l-14.378,20.299,2.717,1.924c7.972,5.646,11.208,15.525,8.824,24.455l34.983,24.779c3.342-3.467,7.683-5.772,12.519-6.598,5.988-1.022,12.018,.348,16.976,3.86l85.188,60.34-83.468,117.835-19.953-14.133-20.532,28.987,8.969,6.354c6.084,4.309,10.125,10.729,11.38,18.078,1.255,7.349-.427,14.747-4.736,20.83-5.434,7.672-14.062,11.77-22.816,11.77Zm-28.655-62.945c-.831,0-1.668,.071-2.504,.214-3.869,.66-7.249,2.788-9.517,5.991-2.269,3.202-3.154,7.097-2.494,10.966s2.788,7.249,5.991,9.519l28.724,20.346c6.613,4.682,15.801,3.113,20.484-3.499,4.683-6.611,3.114-15.8-3.498-20.482l-28.725-20.347c-2.511-1.778-5.447-2.707-8.462-2.707Zm53.243-41.499l19.956,14.135,68.186-96.265-74.403-52.7c-2.077-1.471-4.602-2.046-7.111-1.617-2.509,.428-4.701,1.808-6.172,3.885l-5.637,7.959-49.799-35.272,3.079-4.347-5.393-3.82,.01-.014c3.025-4.287,2.005-10.236-2.278-13.269l-13.503-9.564,22.018-31.085c11.555-16.314,7.684-38.988-8.63-50.543l-50.049-35.45,3.147-4.444-5.393-3.82c2.09-2.95,2.906-6.538,2.297-10.102-.608-3.564-2.568-6.678-5.519-8.768h0c-2.951-2.09-6.537-2.908-10.103-2.297-3.564,.608-6.677,2.568-8.767,5.519L87.324,315.765c-4.456,6.291-3.382,14.954,2.394,19.31,2.955,2.229,6.589,3.144,10.239,2.579,3.65-.567,6.835-2.539,8.97-5.552l3.82-5.393,55.442,39.27c9.456,6.697,21.687,8.443,32.717,4.668,7.26-2.484,13.424-7.082,17.827-13.298l21.346-30.135,13.502,9.564c2.078,1.472,4.604,2.046,7.112,1.617,2.509-.428,4.701-1.808,6.172-3.885l3.82-5.393,55.191,39.091-5.635,7.958c-2.591,3.658-1.807,9.436,1.749,12.88h0l.026,.025c.039,.037,.077,.074,.115,.111l.376,.266,54.448,38.566Z"/><path class="cls-22" d="M611.905,542.207l-8.248-.087c-.975-.01-9.766-.228-18.354-4.636-7.85-4.03-13.066-10.345-15.2-18.352-2.037-.121-6.355-.562-11.264-2.154l-8.474,11.963-45.404-32.162c-19.554,9.458-42.996,7.649-60.841-4.992l-54.778-38.799,83.466-117.838,54.778,38.801c17.843,12.639,27.328,34.149,24.896,55.733l45.407,32.163-7.453,10.523c6.322,4.424,10.524,11.57,12.104,20.823,4.251,24.891,7.616,40.787,7.65,40.944l1.714,8.069Zm-36.032-61.78l1.4,6.93c2.123,10.517,3.909,19.626,5.307,27.073,.95,5.062,3.815,8.757,8.759,11.296,1.329,.682,2.691,1.218,4.005,1.639-1.414-7.227-3.492-18.248-5.832-31.946-1.334-7.812-4.869-12.447-10.809-14.171l-2.83-.82Zm-70.037,.775l41.384,29.312,7.089-10.008,5.048,2.47c1.198,.586,2.416,1.057,3.595,1.436-.542-2.768-1.182-6.101-1.9-9.948l-.514-2.751,9.247-13.054h0l9.681-13.666-41.386-29.314,.774-4.158c3.338-17.92-4.084-36.284-18.907-46.784l-43.992-31.161-68.186,96.266,43.993,31.159c14.822,10.501,34.611,11.409,50.409,2.312l3.666-2.11Z"/></g><rect class="cls-26" x="310.683" y="441.377" width="111.144" height="9.654" transform="translate(-209.56 487.173) rotate(-54.69)"/><g><path class="cls-17" d="M321.126,150.061l-50.049-35.45-4.904,6.924,43.673,30.934c19.319,13.684,23.887,40.437,10.203,59.756l-113.913,160.824c-.955,1.348-1.986,2.606-3.061,3.808,8.22-2.812,15.676-8.1,21.081-15.731l107.173-151.309c13.683-19.318,9.116-46.073-10.203-59.756Z"/><path class="cls-18" d="M320.049,212.225c13.684-19.319,9.116-46.073-10.203-59.756l-43.673-30.934L114.351,335.879l50.049,35.45c11.688,8.279,26.085,9.835,38.676,5.528,1.075-1.203,2.107-2.461,3.061-3.808l113.913-160.824Z"/></g><rect class="cls-4" x="274.983" y="288.995" width="92.623" height="54.504" transform="translate(-122.483 395.642) rotate(-54.69)"/><g><path class="cls-12" d="M568.005,474.298c4.626,2.656,8.839,7.571,10.789,16.459,5.508,25.108,9.621,40.801,9.621,40.801l-.064,.002c7.449,3.824,15.406,3.908,15.406,3.908,0,0-3.374-15.868-7.7-41.207-4.169-24.415-26.434-20.296-28.052-19.963Z"/><path class="cls-15" d="M578.793,490.758c-1.95-8.889-6.162-13.803-10.789-16.459-.061,.013-.102,.021-.102,.021,0,0,4.8,23.101,8.212,41.285,1.561,8.318,6.761,13.145,12.236,15.956l.064-.002s-4.113-15.692-9.621-40.801Z"/></g><g><path class="cls-12" d="M601.143,497.771c4.626,2.656,8.839,7.571,10.789,16.459,5.508,25.108,9.621,40.801,9.621,40.801l-.064,.002c7.449,3.824,15.406,3.908,15.406,3.908,0,0-3.374-15.868-7.7-41.207-4.169-24.415-26.434-20.296-28.052-19.963Z"/><path class="cls-15" d="M611.932,514.23c-1.95-8.889-6.162-13.803-10.789-16.459-.061,.013-.102,.021-.102,.021,0,0,4.8,23.101,8.212,41.285,1.561,8.318,6.761,13.145,12.236,15.956l.064-.002s-4.113-15.692-9.621-40.801Z"/></g><g><path class="cls-12" d="M633.721,520.846c4.626,2.656,8.839,7.571,10.789,16.459,5.508,25.108,9.621,40.801,9.621,40.801l-.064,.002c7.449,3.824,15.406,3.908,15.406,3.908,0,0-3.374-15.868-7.7-41.207-4.169-24.415-26.434-20.296-28.052-19.963Z"/><path class="cls-15" d="M644.51,537.305c-1.95-8.889-6.162-13.803-10.789-16.459-.061,.013-.102,.021-.102,.021,0,0,4.8,23.101,8.212,41.285,1.561,8.318,6.761,13.145,12.236,15.956l.064-.002s-4.113-15.692-9.621-40.801Z"/></g><g><path class="cls-12" d="M666.485,544.053c4.626,2.656,8.839,7.571,10.789,16.459,5.508,25.108,9.621,40.801,9.621,40.801l-.064,.002c7.449,3.824,15.406,3.908,15.406,3.908,0,0-3.374-15.868-7.7-41.207-4.169-24.415-26.434-20.296-28.052-19.963Z"/><path class="cls-15" d="M677.273,560.512c-1.95-8.889-6.162-13.803-10.789-16.459-.061,.013-.102,.021-.102,.021,0,0,4.8,23.101,8.212,41.285,1.561,8.318,6.761,13.145,12.236,15.956l.064-.002s-4.113-15.692-9.621-40.801Z"/></g><g><path class="cls-12" d="M699.437,567.393c4.626,2.656,8.839,7.571,10.789,16.459,5.508,25.108,9.621,40.801,9.621,40.801l-.064,.002c7.449,3.824,15.406,3.908,15.406,3.908,0,0-3.374-15.868-7.7-41.207-4.169-24.415-26.434-20.296-28.052-19.963Z"/><path class="cls-15" d="M710.226,583.853c-1.95-8.889-6.162-13.803-10.789-16.459-.061,.013-.102,.021-.102,.021,0,0,4.8,23.101,8.212,41.285,1.561,8.318,6.761,13.145,12.236,15.956l.064-.002s-4.113-15.692-9.621-40.801Z"/></g><g><path class="cls-12" d="M535.615,451.357c4.626,2.656,8.839,7.571,10.789,16.459,5.508,25.108,9.621,40.801,9.621,40.801l-.064,.002c7.449,3.824,15.406,3.908,15.406,3.908,0,0-3.374-15.868-7.7-41.207-4.169-24.415-26.434-20.296-28.052-19.963Z"/><path class="cls-15" d="M546.404,467.816c-1.95-8.889-6.162-13.803-10.789-16.459-.061,.013-.102,.021-.102,.021,0,0,4.8,23.101,8.212,41.285,1.561,8.318,6.761,13.145,12.236,15.956l.064-.002s-4.113-15.692-9.621-40.801Z"/></g><g><path class="cls-12" d="M731.727,590.353v.003l.1-.021c4.626,2.656,8.839,7.571,10.789,16.459,.721,3.288,1.966,8.822,2.634,11.772l17.836,12.164c-1.014-5.494-1.985-13.292-3.204-20.436-4.327-25.339-28.154-19.942-28.154-19.942Z"/><path class="cls-15" d="M731.827,590.335l-.099,.021c.007,.032,1.787,8.607,3.947,19.401l9.024,6.392c-.667-2.951-1.363-6.067-2.084-9.354-1.95-8.888-6.162-13.803-10.789-16.459Z"/><path class="cls-12" d="M763.085,630.73l-17.836-12.164c1.13,4.955,2.162,9.364,3.068,13.162,6.754-.027,14.769-.998,14.769-.998Z"/><path class="cls-15" d="M739.72,630.493c1.298,.962,4.744,1.25,8.597,1.234-.906-3.797-2.488-10.624-3.617-15.58l-9.024-6.392c1.169,5.87,2.931,14.834,4.045,20.737Z"/></g><g><path class="cls-24" d="M178.341,356.753l-25.603-18.135c-2.763-1.957-4.599-4.873-5.169-8.211-.57-3.338,.194-6.698,2.151-9.462l17.165-24.233c4.041-5.704,11.968-7.058,17.672-3.018l25.604,18.135-31.82,44.923Zm-1.104-57.458c-1.489,0-2.956,.697-3.88,2.001l-17.165,24.233c-.733,1.035-1.019,2.293-.806,3.543,.213,1.25,.901,2.341,1.936,3.074l19.131,13.551,22.652-31.98-19.132-13.551c-.831-.588-1.789-.872-2.737-.872Z"/><path class="cls-24" d="M191.375,363.133c-2.604,0-5.141-.803-7.311-2.34l-10.346-7.328,31.82-44.924,10.345,7.328c2.763,1.957,4.6,4.869,5.174,8.2,.574,3.336-.188,6.696-2.146,9.46l-17.185,24.261c-1.958,2.764-4.874,4.597-8.211,5.163-.714,.121-1.43,.18-2.14,.18Zm-6.601-11.555l3.874,2.744c2.135,1.512,5.1,1.013,6.606-1.115l17.185-24.261c.731-1.033,1.016-2.287,.802-3.531-.214-1.247-.904-2.339-1.942-3.074l-3.874-2.744-22.652,31.98Z"/></g><g><rect class="cls-8" x="164.858" y="327.97" width="47.12" height="4.392" transform="translate(-189.915 293.084) rotate(-54.69)"/><path class="cls-3" d="M170.118,299.009l-17.164,24.233c-2.781,3.927-1.939,9.303,1.88,12.008l18.174,12.873,27.236-38.452-18.174-12.873c-3.819-2.705-9.17-1.716-11.951,2.211Z"/></g><path class="cls-25" d="M215.672,331.242c-4.894,6.909-12.291,17.352-17.185,24.261-2.781,3.926-8.208,4.84-12.135,2.059l-7.109-5.036,27.236-38.452,7.109,5.036c3.927,2.781,4.866,8.205,2.084,12.132Z"/><path class="cls-22" d="M238.35,279.651c-4.425,0-8.889-1.319-12.767-4.065-4.826-3.418-8.033-8.512-9.028-14.342s.339-11.699,3.758-16.525c7.057-9.963,20.904-12.328,30.867-5.271,9.963,7.057,12.327,20.903,5.271,30.867-4.311,6.085-11.155,9.336-18.1,9.336Zm.051-36.34c-4.458,0-8.85,2.086-11.617,5.992-2.194,3.098-3.051,6.864-2.412,10.606,.639,3.742,2.697,7.011,5.795,9.205,6.395,4.531,15.282,3.012,19.811-3.383,4.529-6.395,3.012-15.282-3.383-19.811-2.488-1.763-5.355-2.609-8.194-2.609Z"/><path class="cls-22" d="M286.768,211.294c-4.425,0-8.89-1.319-12.767-4.066-4.826-3.418-8.033-8.512-9.028-14.342-.996-5.83,.339-11.699,3.757-16.525,7.057-9.962,20.904-12.327,30.867-5.271s12.327,20.903,5.271,30.867c-4.311,6.085-11.155,9.336-18.1,9.336Zm.051-36.341c-4.458,0-8.85,2.086-11.617,5.992-2.194,3.098-3.051,6.864-2.412,10.606,.639,3.742,2.697,7.011,5.794,9.205,6.394,4.528,15.282,3.012,19.811-3.383,4.529-6.395,3.012-15.282-3.383-19.811-2.488-1.763-5.355-2.609-8.194-2.609Z"/><rect class="cls-26" x="316.77" y="455.44" width="42.605" height="77.806" rx="21.303" ry="21.303" transform="translate(-260.735 484.491) rotate(-54.69)"/><path class="cls-2" d="M345.721,471.536h2.727c5.68,0,10.291,4.611,10.291,10.291v26.898c0,7.185-5.833,13.018-13.018,13.018h0c-7.185,0-13.018-5.833-13.018-13.018v-24.171c0-7.185,5.833-13.018,13.018-13.018Z" transform="translate(-259.381 491.7) rotate(-54.69)"/><g><path class="cls-17" d="M263.621,305.408l21.279,15.072,40.183-56.731c5.152-7.273,3.432-17.345-3.841-22.496l-8.11-5.744-49.51,69.899Z"/><path class="cls-8" d="M251.009,323.215l8.11,5.744c7.273,5.151,17.345,3.432,22.496-3.841l12.613-17.807-21.279-15.072-21.94,30.976Z"/><path class="cls-13" d="M241.681,336.384l8.11,5.744c7.273,5.151,17.345,3.432,22.496-3.841l12.613-17.807-21.279-15.072-21.94,30.976Z"/></g><g><path class="cls-19" d="M227.325,106.676L91.787,298.031s6.759,22.764,27.209,19.272c12.341-17.424,60.193-83.611,60.193-83.611,0,0,44.977-61.364,49.964-59.892l31.05-43.837s-1.567-28.634-32.878-23.288Z"/><path class="cls-5" d="M237.527,92.273l-10.202,14.404c31.311-5.346,32.878,23.288,32.878,23.288l10.202-14.404c6.43-9.079,4.284-21.652-4.795-28.082-9.079-6.431-21.652-4.284-28.083,4.795Z"/><path class="cls-9" d="M184.042,226.973l-55.364,76.661c-9.832,13.881-31.404,10.864-36.785-5.273-.071-.214-.106-.331-.106-.331l-9.826,13.872c-6.376,9.001-4.999,21.763,3.807,28.406,9.112,6.873,22.033,4.817,28.583-4.429l114.802-162.079c-3.023-2.141-45.111,53.173-45.111,53.173Z"/></g><circle class="cls-26" cx="124.649" cy="284.985" r="6.773"/><circle class="cls-26" cx="175.601" cy="213.05" r="6.773"/><circle class="cls-26" cx="224.02" cy="144.693" r="6.773"/><g><polygon class="cls-7" points="548.823 519.684 557.385 507.597 548.038 519.129 548.823 519.684"/><path class="cls-7" d="M527.397,445.427l12.017-16.965s4.839-9.235,3.33-18.071c-1.509-8.836-30.992-39.621-38.999-45.292-7.878-5.58-27.83-19.713-29.334-20.779l-54.228,76.56c-1.522,2.939-5.571,14.052,11.912,26.436l31.649,22.417c9.905,7.016,23.84,5.747,31.563-3.616,.421-.511,.834-1.049,1.235-1.616l60.843,43.095,31.321-44.22-43.327-30.689-12.017,16.965s-5.053,1.126-5.966-4.226Z"/><path class="cls-9" d="M495.307,466.117c-7.723,9.363-21.658,10.632-31.563,3.616l-31.649-22.417c-17.483-12.384-13.434-23.497-11.912-26.436l-21.597,30.491,49.386,34.98c17.56,12.438,40.027,12.722,57.527,2.645l43.295,30.731,8.592-12.131-60.843-43.095c-.402,.567-.814,1.106-1.235,1.616Z"/><path class="cls-5" d="M523.795,379.301l-32.834-23.256c-1.837-1.301-4.38-.867-5.681,.97h0c-1.325,1.871-.857,4.46,1.049,5.735,9.209,6.16,33.724,22.607,39.499,28.105,6.545,6.232,11.742,15.872,13.25,24.708h0c1.166,6.916-.455,14.012-4.509,19.736l-5.934,8.378c-1.127,1.591-.992,3.884,.538,5.094,.183,.145,.372,.269,.565,.376,1.661,.921,3.767,.304,4.865-1.247l10.775-15.212c3.697-19.851-4.025-40.95-21.584-53.387Z"/></g><rect class="cls-5" x="562.932" y="423.611" width="5.21" height="53.094" transform="translate(-128.689 651.463) rotate(-54.69)"/><rect class="cls-22" x="253.921" y="299.587" width="94.428" height="5.555" transform="translate(-119.662 373.333) rotate(-54.69)"/><rect class="cls-22" x="267.838" y="308.851" width="95.492" height="6.831" transform="translate(-121.645 389.303) rotate(-54.69)"/><rect class="cls-22" x="282.163" y="318.998" width="95.492" height="6.831" transform="translate(-123.88 405.275) rotate(-54.69)"/><circle class="cls-10" cx="238.381" cy="257.517" r="18.177"/><circle class="cls-11" cx="286.799" cy="189.16" r="18.177"/><path class="cls-20" d="M248.864,242.668c-1.721-1.219-3.585-2.077-5.504-2.626,12.296,15.75-.27,34.996-.278,35.009,3.947-1.06,7.562-3.449,10.109-7.044,5.802-8.192,3.865-19.537-4.327-25.339Z"/><path class="cls-16" d="M297.305,174.327c-1.721-1.219-3.585-2.077-5.504-2.626,12.296,15.75-.27,34.996-.278,35.009,3.947-1.06,7.562-3.449,10.109-7.044,5.802-8.192,3.865-19.537-4.327-25.339Z"/><rect class="cls-22" x="58.881" y="223.506" width="272.824" height="5.21" transform="translate(-102.101 254.784) rotate(-54.69)"/><rect class="cls-22" x="212.836" y="286.93" width="131.115" height="6.512" transform="translate(-119.32 349.636) rotate(-54.69)"/><rect class="cls-24" x="536.891" y="490.172" width="69.055" height="6.541" transform="translate(-161.529 674.528) rotate(-54.69)"/><rect class="cls-22" x="370.11" y="431.094" width="6.339" height="12.634" transform="translate(-199.42 489.195) rotate(-54.69)"/><g><path class="cls-27" d="M317.308,393.671c.057,.05,.121,.094,.179,.143-.022-.021-.044-.043-.066-.064l-.113-.08Z"/><path class="cls-13" d="M317.913,394.231l.804,.57c-.435-.308-.837-.644-1.231-.986,.144,.137,.278,.284,.427,.417Z"/><path class="cls-13" d="M317.487,393.814c.394,.342,.796,.678,1.231,.986l79.796,56.52,.371-.524-81.463-57.047c.022,.021,.044,.043,.066,.064Z"/><g><path class="cls-27" d="M394.543,287.749c-7.273-5.151-17.345-3.432-22.496,3.841l-39.914,56.352c.841,3.782,4.992,12.905,24.562,26.766,26.359,18.67,63.984,45.32,63.984,45.32l53.661-75.759-79.796-56.52Z"/><path class="cls-8" d="M332.132,347.942l-8.241,11.635s-4.807,7.587,22.781,27.127c27.587,19.54,65,46.04,65,46.04l9.007-12.716s-37.625-26.65-63.984-45.32c-19.57-13.862-23.721-22.984-24.562-26.766Z"/><path class="cls-13" d="M323.891,359.577l-2.369,3.344-6.646,9.383c-4.663,6.583-3.107,15.972,2.545,21.446l81.463,57.047,12.787-18.053s-37.413-26.5-65-46.04c-27.587-19.54-22.781-27.127-22.781-27.127Z"/></g></g><circle class="cls-21" cx="407.252" cy="384.152" r="5.731"/><circle class="cls-21" cx="425.688" cy="358.124" r="5.731"/><rect class="cls-22" x="292.73" y="326.837" width="95.492" height="6.831" transform="translate(-125.817 417.206) rotate(-54.69)"/><rect class="cls-22" x="367.783" y="395.823" width="135.457" height="6.831" transform="translate(-142.008 523.869) rotate(-54.69)"/></g></svg>