<?xml version="1.0" encoding="UTF-8"?><svg id="Layer_1" xmlns="http://www.w3.org/2000/svg" xmlns:xlink="http://www.w3.org/1999/xlink" viewBox="0 0 841.494 736.452"><defs><style>.cls-1{fill:#fff4e0;}.cls-2{fill:#086885;}.cls-3{stroke-width:4.668px;}.cls-3,.cls-4,.cls-5,.cls-6{stroke-miterlimit:10;}.cls-3,.cls-4,.cls-5,.cls-7{stroke:#1b0a07;}.cls-3,.cls-5,.cls-6,.cls-7{fill:none;}.cls-8{fill:#fff;}.cls-9{fill:#edcba2;}.cls-4,.cls-5{stroke-width:14.003px;}.cls-4,.cls-10{fill:#1c1a18;}.cls-11{fill:#b79b7d;}.cls-12{fill:#034159;}.cls-13{fill:#faebd6;}.cls-14{fill:#b7baac;}.cls-15{fill:#f0d7b6;}.cls-16{fill:url(#radial-gradient);}.cls-17{fill:#08191e;}.cls-18{fill:#1b0a07;}.cls-6{stroke:#150b0a;}.cls-6,.cls-7{stroke-width:11.669px;}.cls-19{fill:#0a2230;}.cls-20{fill:#888983;}.cls-7{stroke-linejoin:round;}.cls-21{fill:#fefefe;}</style><radialGradient id="radial-gradient" cx="420.747" cy="359.666" fx="420.747" fy="359.666" r="368.842" gradientTransform="matrix(1, 0, 0, 1, 0, 0)" gradientUnits="userSpaceOnUse"><stop offset="0" stop-color="#2e2d35"/><stop offset=".887" stop-color="#0f314b"/></radialGradient></defs><rect class="cls-19" y="84.115" width="841.494" height="652.337" rx="38.223" ry="38.223"/><rect class="cls-2" width="841.494" height="678.363" rx="38.223" ry="38.223"/><rect class="cls-16" x="8.492" y="40.08" width="824.51" height="639.172" rx="38.223" ry="38.223"/><path class="cls-12" d="M448.15,155.189h0c0-12.403,9.079-22.458,20.278-22.458h304.906c12.651,0,22.906-11.358,22.906-25.368h0c0-14.011-10.255-25.368-22.906-25.368H279.461c-11.199,0-20.278,10.055-20.278,22.458h0c0,12.403-9.079,22.458-20.278,22.458h-98.099c-11.872,0-21.497,10.659-21.497,23.807h0c0,13.149-9.624,23.807-21.497,23.807h-3.298c-23.615,0-42.758,21.201-42.758,47.354h0c0,26.153,19.143,47.354,42.758,47.354h232.386c10.65,0,19.284,9.562,19.284,21.357h0c0,11.795,8.634,21.357,19.284,21.357h286.651c12.651,0,22.906-11.358,22.906-25.368h0c0-14.01-10.255-25.368-22.906-25.368h-122.231c-10.65,0-19.284-9.562-19.284-21.357h0c0-11.795-8.634-21.357-19.284-21.357H237.169c-10.186,0-18.443-9.145-18.443-20.425h0c0-11.281,8.257-20.425,18.443-20.425h190.703c11.199,0,20.278-10.055,20.278-22.458Z"/><path class="cls-12" d="M399.847,468.343h0c0-12.403-9.079-22.458-20.278-22.458H74.663c-12.651,0-22.906-11.358-22.906-25.368h0c0-14.011,10.255-25.368,22.906-25.368h493.873c11.199,0,20.278,10.055,20.278,22.458h0c0,12.403,9.079,22.458,20.278,22.458h91.442c15.549,0,28.153,10.659,28.153,23.807h0c0,13.149,12.605,23.807,28.153,23.807h0c21.759,0,39.399,14.917,39.399,33.317v14.037c0,26.153-25.071,47.354-55.998,47.354h-219.145c-10.65,0-19.284,9.562-19.284,21.357h0c0,11.795-8.634,21.357-19.284,21.357H195.878c-12.651,0-22.906-11.358-22.906-25.368h0c0-14.01,10.255-25.368,22.906-25.368h122.231c10.65,0,19.284-9.562,19.284-21.357h0c0-11.795,8.634-21.357,19.284-21.357h254.151c10.186,0,18.443-9.145,18.443-20.425h0c0-11.281-8.257-20.425-18.443-20.425h-190.703c-11.199,0-20.278-10.055-20.278-22.458Z"/><g><polygon class="cls-9" points="222.198 539.57 201.343 509.97 180.488 480.37 130.196 489.983 152.011 507.94 124.732 527.159 125.954 527.371 144.66 530.613 108.157 575.76 108.158 575.76 108.158 575.761 162.828 556.4 159.374 576.328 159.374 576.328 159.374 576.328 186.653 557.109 196.221 583.694 196.221 583.694 196.221 583.694 222.198 539.571 222.198 539.57 222.198 539.57"/><path class="cls-9" d="M250.509,517.462l-37.447-53.149c-3.038-4.311-8.03-6.413-12.931-5.978-2.663-.743-5.584-.495-8.151,.868l.023-.024c-.057,.029-.109,.064-.165,.095-.075,.04-.147,.084-.221,.126-.246,.143-.49,.297-.73,.461-.034,.023-.07,.042-.103,.065-.014,.01-.026,.022-.04,.032l-.039,.026-.028,.018-.011,.009-.026,.017c-4.604,3.244-5.968,9.363-3.39,14.21,.272,2.267,1.092,4.502,2.5,6.499l37.447,53.149c1.407,1.997,3.235,3.522,5.279,4.541,3.696,4.059,9.917,4.834,14.522,1.59l.025-.018,.012-.007,.026-.02c.425-.301,.827-.603,1.195-.952-.027,.014-.056,.024-.083,.037,2.061-1.905,3.254-4.467,3.493-7.129,2.201-4.52,1.943-10.066-1.156-14.466Z"/><path class="cls-9" d="M513.021,365.356l-3.701-5.253-.026-.036-51.734,36.45-.013-1.53c-4.579,3.226-8.514,6.547-11.909,9.93l-55.073,38.802-67.18,47.332,.026,.036-.034,.024,.005,.007c-1.364,.963-2.608,2.031-3.743,3.177-9.316,9.383-10.858,24.37-2.977,35.556l.029,.042h0l23.299,33.071-3.79,2.67,7.112,10.094,3.79-2.67,.078,.111,.04-.014,22.957,32.583-3.823,2.694,7.112,10.094,3.52-2.48,13.155,18.671,22.727-16.013-.009-.013s3.901-2.463,9.445-8.041l3.86-2.72-.554-.787c1.616-1.801,3.315-3.826,5.061-6.097l.713,1.012,8.506-5.993-2.905-4.123c4.451-7.104,8.867-15.776,12.604-26.233,4.557-12.752,6.205-26.324,5.71-39.857-.179-4.881,.003-10.914,1.075-17.566,1.333,1.459,2.131,2.248,2.131,2.248l-.096-11.543c2.895-10.384,8.205-21.583,17.593-31.938-.083-.117-.158-.233-.24-.35,.085-.095,.161-.191,.247-.285l-.007-.01c4.051-4.468,8.848-8.782,14.553-12.802,46.124-32.497,56.562-39.852,56.562-39.852"/><path class="cls-9" d="M547.111,413.74h0l.031,.043,32.259-22.728,1.178,1.672,8.506-5.993-1.178-1.672,8.497-5.987,1.178,1.672,8.506-5.993-1.178-1.672,37.94-26.731s15.934-13.205,32.382-30.817l1.884,2.673,8.506-5.993-3.243-4.603c13.862-15.936,26.475-34.142,28.305-49.185l-.002-.005-.013-.002-.01,.007-.012-.002,.006-.041v-.003h-.002l-.004-.01-.01,.007c-.364-.082-.754-.127-1.126-.198-.612-.117-1.22-.237-1.852-.326-.537-.075-1.092-.123-1.643-.178-.523-.052-1.046-.105-1.581-.14-.59-.038-1.191-.06-1.795-.078-.517-.015-1.038-.023-1.564-.023-.633,0-1.269,.006-1.916,.026-.507,.016-1.021,.046-1.536,.074-.681,.038-1.359,.072-2.053,.13-.432,.037-.874,.091-1.311,.135-1.655,.168-3.337,.385-5.049,.659-.22,.035-.436,.062-.657,.099-.84,.14-1.69,.304-2.541,.467-.424,.081-.846,.158-1.273,.245-.843,.171-1.691,.358-2.542,.55-.427,.096-.854,.193-1.282,.295-.875,.206-1.751,.42-2.633,.646-.377,.096-.755,.198-1.133,.298-.947,.25-1.893,.504-2.845,.774-.122,.035-.245,.073-.368,.108-3.494,1.003-7.013,2.133-10.52,3.357-.089,.031-.179,.061-.268,.092-1.116,.391-2.227,.792-3.338,1.2-.158,.058-.316,.116-.474,.174-1.131,.418-2.256,.843-3.379,1.275l-.163,.063c-.329,.127-.655,.257-.983,.385l-2.459-3.49-8.506,5.993,1.1,1.561c-22.12,9.56-39.924,20.112-39.924,20.112l-.022-.031-95.709,67.432,.026,.036,.03,.043h0l12.272,17.419"/><path class="cls-9" d="M410.76,220.214s-10.439,7.355-56.562,39.852c-5.705,4.02-11.382,7.085-16.954,9.396-12.844,5.329-25.117,6.575-35.832,5.831l-.058-.005c-.218-.015-.424-.043-.64-.06l-10.778-3.953s.461,.986,1.355,2.677c-.338-.065-.689-.121-1.022-.189-.127-.026-.256-.051-.382-.077-5.814-1.214-10.888-2.885-14.978-4.517-12.577-5.021-25.912-8.036-39.454-8.036-11.282,0-21.069,1.278-29.339,3.125l-2.824-4.008-8.506,5.993,.655,.929c-2.727,.891-5.193,1.82-7.425,2.742l-1.168-1.658-4.73,3.333,.524,.743c-6.248,3.062-9.439,5.557-9.439,5.557l-.009-.013-22.728,16.013,.334,.474-.303,.214,12.548,17.81-3.52,2.48,7.112,10.094,3.823-2.694,22.297,31.646-3.823,2.694,7.112,10.094,3.823-2.694,24.03,34.106h0l.031,.043c7.337,10.413,20.525,14.244,31.97,10.194l3.134,4.448-4.248,2.993-3.265-4.634-4.73,3.333,3.265,4.634-10.994,7.746h-.001l-8.008,5.643-1.612-2.288-.018-.023c-.281-.397-.579-.777-.891-1.137-.073-.084-.154-.156-.229-.238-.253-.277-.507-.552-.778-.805-.071-.066-.147-.122-.219-.187-.285-.256-.573-.508-.875-.738-.051-.039-.106-.071-.158-.109-.33-.245-.666-.48-1.013-.693-.028-.017-.057-.031-.085-.047-.376-.228-.759-.439-1.152-.63l-.015-.007c-2.478-1.199-5.26-1.661-7.994-1.321-.012,.002-.025,.005-.037,.006-.435,.055-.869,.128-1.3,.224-.056,.012-.111,.032-.167,.045-.387,.091-.773,.192-1.155,.316-.118,.038-.232,.091-.349,.132-.318,.113-.636,.225-.948,.362-.213,.093-.419,.209-.628,.313-.212,.106-.428,.201-.636,.319-.416,.234-.824,.491-1.223,.772l-.008,.006-.008,.005c-6.438,4.536-7.979,13.431-3.444,19.869l56.452,80.124c4.536,6.438,13.431,7.979,19.869,3.444l.008-.006,.009-.005c.402-.284,.785-.584,1.149-.9,.328-.285,.635-.586,.931-.894,.088-.091,.171-.185,.256-.279,.212-.233,.415-.471,.61-.716,.078-.098,.157-.194,.232-.294,.253-.335,.494-.677,.714-1.03,.22-.354,.419-.719,.606-1.089,.056-.11,.106-.221,.159-.331,.132-.277,.254-.557,.367-.841,.045-.113,.091-.225,.134-.339,.285-.773,.502-1.567,.65-2.375,.022-.119,.039-.239,.058-.358,.047-.302,.085-.604,.113-.908,.011-.12,.024-.239,.032-.359,.055-.821,.039-1.647-.049-2.471-.013-.121-.031-.241-.047-.361-.041-.305-.091-.61-.152-.913-.024-.12-.046-.24-.073-.36-.185-.814-.443-1.617-.776-2.401-.049-.115-.103-.229-.155-.344-.132-.289-.274-.574-.427-.856-.061-.112-.12-.225-.184-.336-.041-.072-.078-.145-.12-.216l5.854-4.124c1.004-.472,1.987-1.019,2.926-1.68l10.436-7.353,1.831,2.599,4.73-3.333-1.831-2.599,4.248-2.993,1.831,2.599,8.506-5.993-1.831-2.599,302.387-213.05,1.283,1.821,8.506-5.993-1.283-1.821,7.286-5.133c80.883-56.987,72.54-110,72.54-110,0,0-.055-.03-.155-.081-.015-.113-.024-.174-.024-.174,0,0-9.018-4.919-25.936-5.68-2.417-.109-4.995-.133-7.731-.045-7.524,.24-16.243,1.322-26.089,3.796-.895,.225-1.8,.461-2.713,.71-18.273,4.967-40.251,14.7-65.527,32.509l-7.286,5.133-.657-.932-8.507,5.993,.657,.932-266.374,187.676-36.013,25.373-2.526-3.586,17.563-12.374,.532,.755,8.507-5.993-.531-.754,35.01-24.65c.179,.284,.28,.448,.28,.448l49.888-35.168-.312-.471,.169-.119c.092-.034,.143-.055,.143-.055l7.551-5.319c4.719-2.141,9.588-4.919,14.608-8.456l-1.712-.628,51.874-36.541-.027-.038h0l-.003-.004"/><path class="cls-9" d="M448.551,273.852l.004,.006h0l.027,.038,32.261-22.725,.48,.682,8.506-5.993-.48-.681,8.497-5.986,.479,.68,8.506-5.993-.479-.679s1.491-1.077,4.023-2.899l33.887-23.875s.954-.792,2.62-2.23c.868-.683,1.719-1.388,2.548-2.119,6.003-5.287,16.521-14.906,27.259-26.403l1.458,2.07,8.507-5.993-2.816-3.997c13.862-15.935,26.474-34.144,28.303-49.192h0l-.041,.028,.005-.034,.021-.015-.019-.004,.003-.019h0l-.02,.014c.001-.011,.005-.023,.006-.034h0c-14.782-3.342-36.173,2.409-55.846,10.1l-2.863-4.063-8.507,5.993,1.504,2.134c-22.12,9.562-39.917,20.122-39.917,20.122l-37.94,26.731-.509-.722-8.506,5.993,.509,.722-8.497,5.987-.509-.722-8.506,5.993,.509,.722-32.259,22.728"/></g><polygon class="cls-6" points="181.794 480.239 202.649 509.84 223.504 539.44 197.526 583.563 187.959 556.977 160.68 576.197 164.134 556.269 109.463 575.63 145.966 530.482 126.038 527.028 153.317 507.809 131.502 489.853 181.794 480.239"/><g><path class="cls-7" d="M510.626,359.972l-.026-.036,95.709-67.432,.022,.031s23.926-14.186,50.772-24.562l.162-.063c1.123-.433,2.248-.857,3.379-1.275,.158-.058,.316-.116,.473-.174,1.111-.408,2.222-.809,3.338-1.2,.089-.031,.179-.061,.268-.092,3.507-1.225,7.026-2.354,10.52-3.357,.123-.035,.246-.073,.368-.108,.952-.271,1.899-.524,2.845-.774,.378-.1,.756-.202,1.133-.298,.882-.226,1.758-.44,2.633-.646,.429-.101,.855-.198,1.282-.295,.852-.192,1.7-.378,2.543-.55,.427-.087,.848-.164,1.273-.245,.851-.163,1.701-.327,2.541-.467,.221-.037,.437-.064,.657-.099,1.712-.274,3.394-.491,5.049-.659,.437-.044,.879-.098,1.311-.135,.693-.059,1.372-.093,2.053-.13,.514-.029,1.029-.058,1.536-.074,.646-.021,1.283-.026,1.916-.026,.526,0,1.047,.008,1.564,.023,.604,.017,1.205,.04,1.795,.078,.535,.035,1.058,.088,1.581,.14,.551,.055,1.106,.103,1.643,.178,.632,.088,1.24,.209,1.852,.326,.372,.071,.762,.116,1.126,.198l.009-.007,.004,.009h.003v.004c-4.291,35.267-67.834,87.925-67.834,87.925l-95.709,67.432"/><path class="cls-7" d="M412.066,220.083l95.709-67.432s70.977-42.118,105.628-34.286h0c-.001,.012-.004,.023-.006,.035l.02-.014h0c-.265,2.182-.781,4.436-1.47,6.733-.011,.036-.023,.073-.034,.11-8.587,28.386-47.189,64.328-61.206,76.673-.235,.207-.484,.397-.722,.6-2.765,2.423-4.416,3.792-4.416,3.792l-95.709,67.432-.004-.006"/><path class="cls-7" d="M449.857,273.721l.004,.006-118.728,83.651-67.18,47.332-.009-.013-.009-.013h0c-12.545,8.849-29.889,5.848-38.731-6.701l-28.71-40.749-1.779-2.526-28.228-40.065-14.715-20.886,22.727-16.013,.009,.013s21.361-16.76,62.253-16.757c13.542,0,26.877,3.016,39.454,8.036,4.09,1.633,9.164,3.303,14.978,4.517,.126,.026,.255,.051,.382,.077,1.075,.22,2.172,.425,3.296,.61,.044,.007,.088,.016,.132,.023,2.447,.398,5.004,.706,7.658,.892l.058,.005c10.714,.744,22.988-.502,35.832-5.831,5.571-2.311,11.248-5.376,16.954-9.396l56.562-39.852"/><path class="cls-7" d="M548.395,413.579l-56.562,39.852c-5.705,4.02-10.501,8.334-14.553,12.802l.007,.01c-.286,.315-.547,.635-.825,.952-.666,.759-1.32,1.519-1.944,2.286-.422,.518-.83,1.039-1.234,1.561-.511,.661-1.004,1.325-1.486,1.99-.361,.498-.733,.995-1.077,1.496-.706,1.025-1.378,2.053-2.018,3.084-.346,.556-.668,1.113-.995,1.67-.354,.602-.7,1.205-1.033,1.808-.327,.592-.652,1.184-.959,1.777-.312,.602-.603,1.204-.896,1.806-.51,1.05-.993,2.098-1.445,3.145-.199,.461-.402,.922-.59,1.381-.29,.708-.567,1.413-.832,2.117-.136,.36-.264,.718-.393,1.077-.908,2.519-1.672,5.011-2.297,7.451-.028,.109-.056,.217-.083,.325-.9,3.575-1.524,7.039-1.936,10.322l-.007-.009c-.213,1.699-.378,3.352-.489,4.943-.136,1.959-.201,3.818-.215,5.581-.011,1.405,0,2.766,.045,4.026,.062,1.692,.091,3.384,.084,5.075-.046,11.838-1.807,23.624-5.794,34.782-5.16,14.441-11.615,25.501-17.668,33.686-1.009,1.364-2.007,2.648-2.985,3.855-.979,1.207-1.938,2.336-2.871,3.39-7.462,8.432-13.205,12.051-13.205,12.051l.009,.013-22.727,16.013-14.69-20.85-.025-.036-28.205-40.032-.041,.014-30.489-43.274c-8.842-12.55-5.831-29.892,6.724-38.727h0l-.009-.013,.034-.024-.026-.036,67.18-47.332,118.728-83.651,.026,.036"/></g><rect class="cls-5" x="174.668" y="484.711" width="93.533" height="28.517" rx="14.259" ry="14.259" transform="translate(-58.923 967.374) rotate(-125.167)"/><polygon class="cls-8" points="223.504 539.44 197.526 583.563 187.959 556.978 160.68 576.197 164.134 556.269 109.464 575.63 199.209 504.957 223.504 539.44"/><polygon class="cls-8" points="181.794 480.239 131.502 489.853 153.317 507.809 126.038 527.028 145.966 530.482 109.464 575.63 202.649 509.84 181.794 480.239"/><path class="cls-17" d="M324.723,490.962l-.013,.009c-12.545,8.839-15.549,26.173-6.711,38.718l73.45,104.25,22.718-16.026-89.445-126.952Z"/><path class="cls-20" d="M214.132,333.998c.009-.002,.022-.009,.031-.01,3.817-.439,61.967,14.482,62.85,15.735,.883,1.253,14.551,35.559,14.551,35.559l-.027,.038-27.563,19.42-.009-.013h0c-12.545,8.849-29.889,5.848-38.731-6.701l-30.489-43.274c6.899-8.524,16.896-20.388,19.387-20.754Z"/><path class="cls-20" d="M374.557,561.765c.005-.008,.016-.018,.02-.026,1.698-3.447,7.218-63.226,6.335-64.48s-28.588-25.669-28.588-25.669l-.045,.012-27.563,19.42,.009,.013h0c-12.555,8.835-15.566,26.177-6.724,38.727l30.489,43.274c10.349-3.628,24.885-9.049,26.068-11.271Z"/><path class="cls-14" d="M327.679,359.876l-20.993-45.413-83.805-35.893-45.685,20.341-11.386,11.523,.708,4.253,30.007,42.59s33.628-51.856,91.611,30.44l39.544-27.842"/><path class="cls-14" d="M388.444,446.121l35.699,35.052,5.596,90.996-34.53,36.175-14.683,6.844-3.767-2.098-30.007-42.59s60.148-14.215,2.166-96.511"/><g><path class="cls-1" d="M174.53,278.433l.009,.013,16.398,23.275c-7.914,3.269-16.061,7.722-24.42,13.611l-14.715-20.886,22.727-16.013Z"/><path class="cls-1" d="M190.937,301.721l-16.398-23.275s21.361-16.76,62.253-16.757c13.542,0,26.877,3.016,39.454,8.036,13.207,5.272,36.629,10.958,62.336,.294,2.486,3.528,5.033,6.342,7.59,8.596,16.011,23.456,31.397,46.738,31.397,46.738l-49.888,35.168s-56.069-92.118-136.742-58.8Z"/><path class="cls-1" d="M414.177,618.571l-.009-.013-16.398-23.275c-5.741,6.353-12.677,12.526-21.035,18.415l14.715,20.886,22.727-16.013Z"/><path class="cls-1" d="M397.77,595.284l16.398,23.275s22.971-14.474,36.73-52.982c4.557-12.753,6.205-26.324,5.71-39.857-.52-14.211,2.008-38.181,20.702-58.798-2.486-3.528-4.279-6.873-5.541-10.04-16.7-22.971-33.445-45.294-33.445-45.294l-49.905,35.143s67.875,83.799,9.351,148.554Z"/></g><g><path class="cls-8" d="M507.79,152.782l-95.709,67.432,18.897,26.821,95.709-67.432,86.731-61.107c-34.652-7.832-105.629,34.286-105.629,34.286Z"/><path class="cls-8" d="M355.615,260.001c-5.705,4.02-11.382,7.085-16.953,9.396,20.909,29.676,46.099,10.205,46.099,10.205l46.314-32.631-18.897-26.821s-10.439,7.355-56.562,39.852Z"/></g><path class="cls-13" d="M613.449,118.429h0l-86.731,61.107,1.043,1.48,17.68,25.094,.027-.019c1.83-1.288,3.592-2.667,5.271-4.146,15.17-13.361,59.168-54.37,62.71-83.516h0Z"/><path class="cls-15" d="M526.717,179.536l-95.709,67.432,18.879,26.796,57.773-40.696s19.588-14.151,37.78-26.958l-17.68-25.094-1.043-1.48Z"/><path class="cls-9" d="M384.695,279.599s-25.19,19.472-46.099-10.205c-18.068,7.496-34.991,6.905-48.048,4.066,47.502,67.407,87.02,51.247,87.02,51.247l72.321-50.944-18.879-26.796-46.314,32.631Z"/><g><path class="cls-8" d="M711.98,258.309l-.013-.002-.01,.007,.017,.003-86.722,61.101-95.709,67.432-.007-.01,18.904,26.831,95.709-67.432s63.544-52.658,67.833-87.925l-.002-.005Z"/><path class="cls-8" d="M483.229,419.482s-26.786,17.783-5.918,47.439c4.051-4.468,8.84-9.409,14.545-13.428,46.123-32.497,56.562-39.852,56.562-39.852l-18.875-26.79-46.314,32.631Z"/></g><g><path class="cls-13" d="M711.965,258.296c-29.034-6.533-83.472,21.913-100.399,31.331-1.732,.964-3.4,2.019-5.02,3.161l-.024,.017,17.702,25.124,1.036,1.471,86.722-61.101-.017-.003Z"/><path class="cls-15" d="M606.522,292.805c-18.241,12.865-38.318,26.657-38.318,26.657l-57.547,40.554,18.887,26.807,.007,.01,95.709-67.432-1.036-1.471-17.702-25.124Z"/></g><path class="cls-9" d="M483.237,419.463l46.314-32.631h0l-18.894-26.817-72.528,51.111s-28.523,31.78,18.984,99.208c.051,.072,.11,.127,.161,.199,1.673-13.32,6.774-28.984,20.037-43.612h0c-20.867-29.657,5.926-47.458,5.926-47.458Z"/><rect class="cls-10" x="518.053" y="380.088" width="22.998" height="13.492" rx="2.891" ry="2.891" transform="translate(518.326 1042.532) rotate(-125.167)"/><rect class="cls-10" x="419.495" y="240.202" width="22.998" height="13.492" rx="2.891" ry="2.891" transform="translate(477.356 741.508) rotate(-125.167)"/><path class="cls-4" d="M652.731,150.244c3.655-.993,7.161-1.796,10.516-2.434,6.71-1.277,12.814-1.897,18.286-2.072,1.368-.044,2.697-.06,3.985-.051,7.732,.052,14.027,.986,18.798,2.089,7.157,1.654,10.883,3.687,10.883,3.687,0,0,8.343,53.013-72.54,110l-346.1,243.848c-8.703,6.132-20.73,4.048-26.862-4.656l-28.134-39.931-6.135-8.708h0c-5.569-7.905-3.676-18.828,4.229-24.397l65.379-46.064,282.166-198.803c25.276-17.808,47.254-27.542,65.527-32.509Z"/><path class="cls-21" d="M715.021,151.209s-47.113-25.697-127.996,31.29L231.751,432.81c-3.637,2.562-4.508,7.587-1.945,11.224l46.177,65.541c2.562,3.637,7.587,4.508,11.224,1.945l355.274-250.312c80.883-56.987,72.54-110,72.54-110Z"/><rect class="cls-1" x="351.946" y="323.279" width="168.146" height="44.275" rx="8.609" ry="8.609" transform="translate(-119.363 314.177) rotate(-35.167)"/><rect class="cls-1" x="243.627" y="399.597" width="168.146" height="44.275" rx="8.609" ry="8.609" transform="translate(-183.09 265.718) rotate(-35.167)"/><g><path class="cls-1" d="M603.244,205.519l-97.047,68.376c.092,1.544,.591,3.082,1.547,4.439l15.583,22.118c2.739,3.887,8.109,4.818,11.996,2.079l123.38-86.929c3.887-2.739,4.818-8.109,2.079-11.996l-15.583-22.118c-.751-1.066-1.704-1.9-2.766-2.507-7.893,4.711-13.032,8.108-13.032,8.108l-26.158,18.43Z"/><path class="cls-9" d="M715.021,151.209s-47.113-25.697-127.996,31.289l-282.166,198.803-64.492,45.438c-8.395,5.915-10.406,17.516-4.491,25.911l5.51,7.82,264.811-186.575,97.047-68.376,26.158-18.43s5.139-3.398,13.032-8.108c19.263-11.497,54.957-30.828,72.587-27.772Z"/></g><circle class="cls-10" cx="536.792" cy="274.416" r="18.705"/><circle class="cls-10" cx="479.024" cy="315.117" r="18.705"/><circle class="cls-10" cx="392.441" cy="376.12" r="18.705"/><path class="cls-10" d="M652.524,195.242s-16.955-24.064-34.669-11.584l16.955,24.064,16.955,24.064c17.714-12.481,.759-36.545,.759-36.545Z"/><rect class="cls-18" x="637.162" y="286.269" width="57.758" height="10.406" transform="translate(811.384 1003.823) rotate(-125.167)"/><rect class="cls-18" x="550.041" y="344.873" width="67.388" height="10.406" transform="translate(633.764 1028.897) rotate(-125.167)"/><rect class="cls-18" x="450.785" y="203.997" width="67.388" height="10.406" transform="translate(592.504 725.742) rotate(-125.167)"/><rect class="cls-18" x="533.038" y="356.853" width="67.388" height="10.406" transform="translate(597.174 1033.877) rotate(-125.167)"/><rect class="cls-18" x="433.782" y="215.977" width="67.388" height="10.406" transform="translate(555.914 730.722) rotate(-125.167)"/><rect class="cls-18" x="167.832" y="320.591" width="153.348" height="10.406" transform="translate(119.003 713.317) rotate(-125.167)"/><rect class="cls-18" x="317.878" y="531.964" width="151.105" height="10.406" transform="translate(180.91 1168.174) rotate(-125.167)"/><rect class="cls-18" x="238.971" y="442.933" width="105.445" height="10.406" transform="translate(93.356 944.698) rotate(-125.167)"/><rect class="cls-18" x="228.105" y="452.899" width="105.445" height="5.786" transform="translate(69.973 947.88) rotate(-125.167)"/><rect class="cls-18" x="153.123" y="329.872" width="154.068" height="5.786" transform="translate(90.691 712.572) rotate(-125.167)"/><rect class="cls-18" x="189.69" y="342.396" width="44.98" height="12.348" transform="translate(586.395 511.31) rotate(144.833)"/><rect class="cls-18" x="160.281" y="300.656" width="44.98" height="12.348" transform="translate(508.905 452.386) rotate(144.833)"/><rect class="cls-18" x="367.114" y="594.219" width="44.98" height="12.348" transform="translate(1053.899 866.803) rotate(144.833)"/><rect class="cls-18" x="336.961" y="551.422" width="44.98" height="12.348" transform="translate(974.447 806.387) rotate(144.833)"/><rect class="cls-18" x="303.706" y="543.597" width="154.068" height="5.786" transform="translate(153.287 1172.494) rotate(-125.167)"/><rect class="cls-18" x="553.635" y="225.352" width="99.964" height="10.406" transform="translate(762.803 856.789) rotate(-125.167)"/><rect class="cls-18" x="538.196" y="145.804" width="57.758" height="10.406" transform="translate(770.244 701.551) rotate(-125.167)"/><path class="cls-3" d="M459.814,510.402s-68.666-67.843-.96-115.546"/><path class="cls-3" d="M291.243,271.144s40.777,87.493,108.483,39.789"/><rect class="cls-5" x="184.05" y="464.111" width="126.531" height="28.517" rx="14.259" ry="14.259" transform="translate(-1.296 956.066) rotate(-125.167)"/><g><path class="cls-9" d="M214.925,432.464l-.006,.005c.335-.236,.681-.447,1.029-.649-5.608,4.714-6.774,13.013-2.477,19.111l16.614,23.58c4.775-14.594,22.539-13.295,22.541-13.295h0l-17.831-25.309c-2.303-3.269-5.731-5.268-9.39-5.858-3.547-.571-7.31,.182-10.478,2.414Z"/><path class="cls-21" d="M284.057,505.667l-19.233-27.298h0s-2.406,17.842-20.065,16.809l17.975,25.512c4.297,6.099,12.504,7.794,18.83,4.1-.309,.259-.624,.514-.959,.751l.008-.005c.402-.284,.786-.584,1.149-.9,1.091-.948,2.008-2.034,2.742-3.213,2.937-4.717,2.954-10.928-.448-15.756Z"/><path class="cls-1" d="M226.036,468.698l21.864,31.032c17.659,1.033,20.065-16.808,20.065-16.809l-19.388-27.518s-17.766-1.299-22.541,13.295Z"/><path class="cls-1" d="M283.746,530.093h0l.008-.005c.402-.284,.786-.584,1.149-.9-.364,.316-.747,.616-1.149,.9l-.008,.005Z"/><path class="cls-1" d="M210.877,426.651c3.169-2.233,6.932-2.986,10.478-2.414-3.547-.571-7.31,.182-10.478,2.414l-.008,.006h.001l.006-.006Z"/><path class="cls-1" d="M215.816,474.512c-5.161,.892-12.161,3.487-15.516,10.866l35.224,49.994c3.181,4.515,9.153,5.932,13.953,3.555,4.006-3.703,4.759-9.884,1.531-14.465l-35.193-49.95Z"/><path class="cls-1" d="M248.34,539.862l.026-.02-.038,.028,.012-.007Z"/><path class="cls-1" d="M191.982,459.872l-.011,.009,.039-.026-.028,.018Z"/><path class="cls-11" d="M192.923,459.27c.073-.043,.146-.086,.221-.126-.074,.041-.147,.084-.221,.126Z"/><path class="cls-11" d="M192.089,459.797c-.014,.01-.026,.022-.04,.032,.048-.033,.096-.064,.143-.097-.034,.023-.07,.042-.103,.065Z"/><path class="cls-11" d="M191.898,473.451l8.403,11.926c3.355-7.379,10.355-9.974,15.516-10.866,.046-.008,.096-.019,.142-.027l-8.468-12.019c-3.243-4.602-9.357-5.966-14.203-3.393-3.891,3.716-4.581,9.847-1.388,14.378Z"/><path class="cls-9" d="M210.877,426.651l-.006,.005c.335-.236,.681-.447,1.029-.649-5.608,4.714-6.774,13.013-2.477,19.111l16.614,23.58c4.775-14.594,22.539-13.295,22.541-13.295h0l-17.831-25.309c-2.303-3.269-5.731-5.268-9.39-5.858-3.547-.571-7.31,.182-10.478,2.414Z"/><path class="cls-20" d="M235.524,535.372l-35.224-49.994-8.403-11.926c-3.193-4.531-2.503-10.662,1.388-14.378l.023-.024c-.057,.029-.109,.064-.165,.095-.075,.04-.147,.084-.221,.126-.246,.143-.49,.297-.73,.461-.048,.033-.096,.063-.143,.097l-.039,.026-.039,.026-.026,.017c-4.99,3.516-6.185,10.411-2.669,15.4l43.627,61.92c3.515,4.99,10.41,6.185,15.4,2.669l.025-.018,.038-.028c.425-.301,.827-.603,1.195-.952-.027,.014-.056,.024-.083,.037-4.8,2.377-10.772,.959-13.953-3.555Z"/><path class="cls-21" d="M287.198,510.219l-19.233-27.298h0s-2.406,17.842-20.065,16.809l17.975,25.512c4.297,6.099,12.504,7.794,18.83,4.1-.309,.259-.624,.514-.959,.751l.008-.005c.402-.284,.786-.584,1.149-.9,1.091-.948,2.008-2.034,2.742-3.213,2.937-4.717,2.954-10.928-.448-15.756Z"/><path class="cls-20" d="M284.705,529.342c-6.326,3.695-14.533,2-18.83-4.1l-17.975-25.512-21.864-31.032-16.614-23.58c-4.297-6.099-3.131-14.398,2.477-19.111-.348,.203-.693,.414-1.029,.649h-.001l-.008,.006c-6.437,4.536-7.979,13.431-3.444,19.869l56.452,80.124c4.536,6.438,13.431,7.979,19.869,3.444l.008-.006h0c.335-.237,.65-.492,.959-.751Z"/></g></svg>