<svg width="64" height="64" viewBox="0 0 64 64" fill="none" xmlns="http://www.w3.org/2000/svg">
<path d="M32 0C49.6613 0 64 14.3387 64 32C64 49.6613 49.6613 64 32 64H32C14.3387 64 0 49.6613 0 32.0001V31.9999C0 14.3387 14.3387 0 32 0Z" fill="white"/>
<path d="M32 60C47.464 60 60 47.464 60 32C60 16.536 47.464 4 32 4C16.536 4 4 16.536 4 32C4 47.464 16.536 60 32 60Z" fill="url(#paint0_linear_171_116)"/>
<mask id="mask0_171_116" style="mask-type:alpha" maskUnits="userSpaceOnUse" x="3" y="4" width="58" height="57">
<path d="M32 60.5328C48.0163 60.5328 61 47.8775 61 32.2664C61 16.6553 48.0163 4 32 4C15.9837 4 3 16.6553 3 32.2664C3 47.8775 15.9837 60.5328 32 60.5328Z" fill="url(#paint1_linear_171_116)"/>
</mask>
<g mask="url(#mask0_171_116)">
<path d="M15.1145 30.2822C10.8142 29.7269 6.4721 29.513 2.16912 30.1526C-0.723609 30.583 -3.55828 31.5048 -5.75838 33.4505C-7.78295 35.2403 -9.14324 37.6269 -10.1545 40.0727C-10.411 40.6939 -10.6453 41.3236 -10.864 41.9579C-10.943 42.1862 -10.5724 42.2843 -10.4941 42.0573C-9.59757 39.4627 -8.42428 36.8755 -6.5651 34.7909C-5.62538 33.7374 -4.5196 32.8406 -3.25787 32.1753C-1.88408 31.4509 -0.376616 31.0014 1.15042 30.704C5.75246 29.8078 10.4895 30.0355 15.1469 30.6534C15.1321 30.531 15.1219 30.4066 15.1145 30.2822Z" fill="white"/>
<path d="M63.0049 10.9845C62.8409 16.9237 60.9399 22.9273 56.8097 27.3991C54.9701 29.3909 52.7396 31.0464 50.231 32.1552C47.2924 33.4541 44.0486 33.8903 40.8454 33.9028C34.2667 33.9285 27.7872 32.444 21.3557 31.2774C20.3309 31.0918 19.3014 30.9129 18.2686 30.7451C18.2956 30.8767 18.3293 31.007 18.3664 31.1359C19.1448 31.2642 19.9198 31.3991 20.6894 31.5366C27.0986 32.6829 33.5227 34.1654 40.0683 34.272C43.2189 34.3233 46.4283 34.0088 49.3885 32.9014C51.9106 31.9578 54.1998 30.472 56.1279 28.6329C60.3904 24.5677 62.6728 18.9549 63.248 13.2303C63.3229 12.4834 63.3681 11.7346 63.3884 10.9852C63.3958 10.7437 63.0117 10.7437 63.0049 10.9845Z" fill="white"/>
<path d="M15.3407 31.6699C10.9668 31.0928 6.54771 30.8606 2.16912 31.512C-0.723606 31.9423 -3.55828 32.8642 -5.75837 34.8099C-7.78295 36.5997 -9.14324 38.9863 -10.1545 41.4321C-10.411 42.0532 -10.6453 42.6829 -10.864 43.3173C-10.943 43.5456 -10.5724 43.6436 -10.4941 43.4166C-9.59757 40.8221 -8.42428 38.2348 -6.5651 36.1503C-5.62538 35.0968 -4.5196 34.1999 -3.25787 33.5347C-1.88407 32.8102 -0.376615 32.3602 1.15042 32.0634C5.85305 31.1474 10.6968 31.4047 15.4521 32.0535C15.4115 31.9265 15.3744 31.7989 15.3407 31.6699Z" fill="white"/>
<path d="M63.0055 12.3432C62.8414 18.2824 60.9404 24.286 56.8102 28.7578C54.9706 30.7496 52.7402 32.4052 50.2316 33.5139C47.2929 34.8121 44.0491 35.2491 40.8459 35.2616C34.2672 35.2872 27.7877 33.8028 21.3562 32.6361C20.4989 32.4808 19.6381 32.3301 18.7754 32.186C18.8422 32.3249 18.9118 32.4624 18.986 32.5986C19.5558 32.6953 20.1249 32.794 20.6899 32.8947C27.0992 34.041 33.5232 35.5234 40.0689 35.63C43.2195 35.6814 46.4288 35.3668 49.389 34.2594C51.9112 33.3158 54.2004 31.8301 56.1284 29.9909C60.3909 25.9258 62.6733 20.313 63.2485 14.5883C63.3234 13.8415 63.3687 13.0927 63.3889 12.3432C63.3963 12.1024 63.0122 12.1024 63.0055 12.3432Z" fill="white"/>
<path d="M15.9668 33.3501C11.3884 32.7119 6.75601 32.423 2.16815 33.1054C-0.724584 33.5357 -3.55926 34.4576 -5.75935 36.4033C-7.78392 38.1931 -9.14422 40.5796 -10.1555 43.0254C-10.412 43.6466 -10.6463 44.2763 -10.865 44.9106C-10.944 45.139 -10.5734 45.237 -10.4951 45.01C-9.59855 42.4155 -8.42525 39.8282 -6.56608 37.7436C-5.62636 36.6902 -4.52057 35.7933 -3.25884 35.1281C-1.88505 34.4036 -0.377592 33.9535 1.14945 33.6568C6.08768 32.6948 11.1812 33.0264 16.1646 33.7469C16.0965 33.616 16.031 33.483 15.9668 33.3501Z" fill="white"/>
<path d="M63.0036 13.937C62.8396 19.8761 60.9386 25.8798 56.8084 30.3516C54.9688 32.3434 52.7383 33.9989 50.2297 35.1077C47.2911 36.4066 44.0473 36.8428 40.8441 36.8553C34.2654 36.881 27.7859 35.3965 21.3544 34.2299C20.8474 34.1377 20.3391 34.0483 19.8301 33.9601C19.9273 34.1042 20.0245 34.2476 20.1217 34.3891C20.3101 34.4227 20.4998 34.4549 20.6881 34.4885C27.0973 35.6347 33.5214 37.1172 40.067 37.2238C43.2176 37.2751 46.427 36.9606 49.3872 35.8532C51.9093 34.9096 54.1985 33.4238 56.1266 31.5847C60.389 27.5195 62.6715 21.9067 63.2467 16.1821C63.3216 15.4353 63.3668 14.6864 63.3871 13.937C63.3945 13.6961 63.0104 13.6961 63.0036 13.937Z" fill="white"/>
<path d="M23.2358 58.3197C22.9786 55.079 24.2936 52.0818 26.0198 49.3853C26.9521 47.9291 27.9951 46.5552 29.1144 45.2432C28.9152 45.2701 28.7208 45.3044 28.5318 45.3471C27.7413 46.2927 26.9886 47.2698 26.2892 48.2897C24.5785 50.7849 23.0663 53.5762 22.8442 56.6221C22.6208 59.6824 23.7252 62.6698 25.2077 65.3189C25.5891 66 25.9996 66.6652 26.4282 67.3193C26.5606 67.5213 26.8927 67.3344 26.7597 67.1304C25.0187 64.4734 23.4896 61.5117 23.2358 58.3197Z" fill="white"/>
<path d="M57.8408 8.79876C57.4412 2.73919 54.3129 -2.7953 49.9066 -6.98614C49.3706 -7.49609 48.815 -7.98565 48.2445 -8.4581C48.0575 -8.61339 47.7848 -8.34952 47.9732 -8.19358C52.7244 -4.2587 56.3719 1.07706 57.2832 7.17151C57.7619 10.3707 57.4635 13.6871 56.2713 16.7119C55.1344 19.5966 53.257 22.1517 51.1744 24.4573C47.2906 28.7561 42.6792 32.3448 38.231 36.0599C35.8669 38.0346 33.5244 40.0652 31.3594 42.2537C31.5288 42.2603 31.6983 42.2689 31.8664 42.2801C33.764 40.383 35.792 38.6025 37.8435 36.8765C42.2991 33.1266 46.9464 29.5509 50.9179 25.295C52.9998 23.0643 54.909 20.6244 56.1889 17.8634C57.506 15.0222 58.0454 11.9059 57.8408 8.79876Z" fill="white"/>
<path d="M6.31201 20.6028C6.55909 20.6028 6.55909 20.229 6.31201 20.229C6.06561 20.229 6.06493 20.6028 6.31201 20.6028Z" fill="white"/>
<path d="M33.4106 9.91135C33.6577 9.91135 33.6577 9.5376 33.4106 9.5376C33.1642 9.5376 33.1636 9.91135 33.4106 9.91135Z" fill="white"/>
<path d="M40.5098 44.8147C40.7569 44.8147 40.7569 44.4409 40.5098 44.4409C40.2627 44.4409 40.262 44.8147 40.5098 44.8147Z" fill="white"/>
<path d="M48.1443 41.7746C48.3914 41.7746 48.3914 41.4009 48.1443 41.4009C47.8972 41.4009 47.8972 41.7746 48.1443 41.7746Z" fill="white"/>
<path d="M12.6577 46.4919C12.9048 46.4919 12.9048 46.1182 12.6577 46.1182C12.4113 46.1175 12.4106 46.4919 12.6577 46.4919Z" fill="white"/>
<path d="M25.0476 19.6059C25.2947 19.6059 25.2947 19.2322 25.0476 19.2322C24.8005 19.2322 24.8005 19.6059 25.0476 19.6059Z" fill="white"/>
<path d="M5.3467 37.7917C5.59378 37.7917 5.59378 37.418 5.3467 37.418C5.09962 37.418 5.09894 37.7917 5.3467 37.7917Z" fill="white"/>
<path d="M47.2838 13.0166C47.6004 13.0284 47.8961 12.9639 48.1708 12.8231C48.4564 12.7323 48.7035 12.5777 48.9114 12.3592C49.1362 12.1559 49.2948 11.9151 49.3873 11.6374C49.5311 11.3702 49.5973 11.082 49.5858 10.7728C49.5581 10.574 49.5311 10.3753 49.5034 10.1766C49.3941 9.79629 49.197 9.46662 48.9114 9.18631C48.7561 9.06919 48.6009 8.95272 48.4456 8.8356C48.0864 8.63293 47.6996 8.53028 47.2838 8.52897C46.9672 8.51712 46.6715 8.58161 46.3967 8.72242C46.1112 8.81322 45.8641 8.96786 45.6561 9.18631C45.4313 9.38964 45.2727 9.63047 45.1802 9.90815C45.0364 10.1753 44.9703 10.4635 44.9817 10.7728C45.0094 10.9715 45.0364 11.1702 45.0641 11.3689C45.1735 11.7492 45.3706 12.0789 45.6561 12.3592C45.8114 12.4763 45.9667 12.5928 46.122 12.7099C46.4811 12.9133 46.8679 13.0153 47.2838 13.0166Z" fill="white"/>
<path d="M11.6379 15.9895C11.8492 15.9974 12.0464 15.9546 12.2293 15.8605C12.4197 15.8 12.5844 15.6973 12.7235 15.5512C12.8733 15.4157 12.9787 15.2551 13.0408 15.0696C13.1366 14.8912 13.1812 14.6991 13.1731 14.4932C13.1548 14.3609 13.1366 14.228 13.1184 14.0957C13.0455 13.8424 12.9138 13.6226 12.7235 13.4357C12.4231 13.1673 12.0545 12.9975 11.6386 12.9975C11.4273 12.9896 11.2302 13.0324 11.0472 13.1265C10.8569 13.187 10.6921 13.2897 10.5531 13.4357C10.4032 13.5713 10.2979 13.7318 10.2358 13.9174C10.1399 14.0957 10.0954 14.2879 10.1035 14.4938C10.1217 14.6261 10.1399 14.759 10.1582 14.8912C10.2311 15.1446 10.3627 15.3644 10.5531 15.5512C10.8535 15.8197 11.2221 15.9895 11.6379 15.9895Z" fill="white"/>
<path d="M52.9299 40.988C53.1412 40.9959 53.3384 40.9531 53.5213 40.859C53.7117 40.7985 53.8764 40.6958 54.0155 40.5498C54.1653 40.4142 54.2706 40.2537 54.3328 40.0681C54.4286 39.8898 54.4732 39.6976 54.4651 39.4917C54.4468 39.3594 54.4286 39.2265 54.4104 39.0943C54.3375 38.8409 54.2058 38.6211 54.0155 38.4343C53.7151 38.1658 53.3465 37.996 52.9306 37.996C52.7193 37.9881 52.5222 38.0309 52.3392 38.125C52.1489 38.1855 51.9841 38.2882 51.8451 38.4343C51.6952 38.5698 51.5899 38.7304 51.5278 38.9159C51.4319 39.0943 51.3874 39.2864 51.3955 39.4923C51.4137 39.6246 51.4319 39.7575 51.4501 39.8898C51.5231 40.1431 51.6547 40.3629 51.8451 40.5498C52.1448 40.8182 52.5141 40.988 52.9299 40.988Z" fill="white"/>
<path d="M47.3889 12.2683C47.6002 12.2762 47.7973 12.2334 47.9803 12.1393C48.1707 12.0788 48.3354 11.9761 48.4745 11.83C48.6243 11.6945 48.7296 11.5339 48.7917 11.3484C48.8876 11.1701 48.9322 10.9779 48.9241 10.772C48.9058 10.6397 48.8876 10.5068 48.8694 10.3745C48.7965 10.1212 48.6648 9.90142 48.4745 9.71455C48.174 9.44608 47.8054 9.27631 47.3896 9.27631C47.1783 9.26842 46.9812 9.31119 46.7982 9.40528C46.6078 9.46582 46.4431 9.56847 46.3041 9.71455C46.1542 9.85009 46.0489 10.0106 45.9868 10.1962C45.8909 10.3745 45.8463 10.5667 45.8545 10.7726C45.8727 10.9049 45.8909 11.0378 45.9091 11.1701C45.982 11.4234 46.1137 11.6432 46.3041 11.83C46.6038 12.0992 46.9731 12.2683 47.3889 12.2683Z" fill="white"/>
<path d="M-1.15505 22.6713C1.61346 24.238 4.94635 24.4939 8.03215 23.8136C11.1706 23.1213 13.9682 21.4447 16.3404 19.3628C18.7882 17.2144 20.8763 14.637 22.6632 11.9471C24.519 9.15253 26.0238 6.08754 26.7556 2.82252C27.5785 -0.848496 27.4185 -4.74455 25.8962 -8.22474C25.7997 -8.44517 25.4689 -8.25501 25.5647 -8.03589C28.2806 -1.82629 26.4275 5.1512 23.0048 10.7074C21.359 13.3789 19.3857 15.9188 17.1228 18.1238C14.9031 20.286 12.2777 22.1501 9.2662 23.097C5.92184 24.1485 2.13058 24.0978 -0.960626 22.3488C-1.1753 22.2271 -1.36905 22.5502 -1.15505 22.6713Z" fill="white"/>
<path d="M-1.15505 21.3216C1.61346 22.8884 4.94635 23.1443 8.03215 22.4639C11.1706 21.7717 13.9682 20.0951 16.3404 18.0132C18.7882 15.8648 20.8763 13.2874 22.6632 10.5975C24.519 7.80292 26.0238 4.73793 26.7556 1.47291C27.5785 -2.19811 27.4185 -6.09416 25.8962 -9.57435C25.7997 -9.79478 25.4689 -9.60462 25.5647 -9.3855C28.2806 -3.1759 26.4275 3.80159 23.0048 9.35779C21.359 12.0293 19.3857 14.5692 17.1228 16.7742C14.9031 18.9364 12.2777 20.8005 9.2662 21.7474C5.92184 22.7989 2.13058 22.7482 -0.960626 20.9992C-1.1753 20.8775 -1.36905 21.2006 -1.15505 21.3216Z" fill="white"/>
<path d="M-1.59382 17.8502C1.17469 19.4169 4.50757 19.6729 7.59338 18.9925C10.7318 18.3003 13.5294 16.6237 15.9016 14.5418C18.3495 12.3934 20.4375 9.81597 22.2244 7.12604C24.0802 4.33149 25.585 1.2665 26.3168 -1.99853C27.1397 -5.66954 26.9797 -9.56559 25.4574 -13.0458C25.3609 -13.2662 25.0301 -13.0761 25.126 -12.8569C27.8418 -6.64734 25.9887 0.330153 22.566 5.88635C20.9202 8.55786 18.9469 11.0978 16.684 13.3027C14.4644 15.4649 11.839 17.3291 8.82743 18.2759C5.48307 19.3274 1.6918 19.2768 -1.3994 17.5278C-1.61408 17.4061 -1.80715 17.7291 -1.59382 17.8502Z" fill="white"/>
<path d="M38.7352 38.2426C39.5804 38.2736 40.3689 38.1018 41.1 37.7274C41.8609 37.4859 42.5197 37.074 43.0753 36.4904C43.6741 35.9482 44.0967 35.3066 44.3445 34.565C44.7286 33.8518 44.9048 33.0839 44.8731 32.2601C44.8002 31.7297 44.7266 31.2 44.6537 30.6697C44.362 29.6563 43.8362 28.7759 43.0753 28.0297C42.6615 27.7178 42.247 27.4059 41.8332 27.0941C40.8759 26.5525 39.843 26.2808 38.7352 26.2775C37.89 26.2465 37.1015 26.4183 36.3704 26.7927C35.6096 27.0342 34.9507 27.4461 34.3951 28.0297C33.7963 28.5719 33.3737 29.2135 33.126 29.9551C32.7419 30.6683 32.5657 31.4362 32.5974 32.2601C32.6703 32.7904 32.7439 33.3201 32.8168 33.8505C33.1084 34.8638 33.6343 35.7442 34.3951 36.4904C34.809 36.8023 35.2235 37.1142 35.6373 37.4261C36.5945 37.9669 37.6274 38.2394 38.7352 38.2426Z" fill="white"/>
<path d="M15.8838 55.8612C16.4117 55.881 16.9045 55.7731 17.3622 55.5395C17.8381 55.3888 18.2493 55.1309 18.5969 54.7663C18.9709 54.4274 19.2356 54.0267 19.3902 53.5628C19.6305 53.1174 19.7405 52.637 19.7203 52.1218C19.6744 51.7902 19.6291 51.4592 19.5832 51.1275C19.401 50.4939 19.0722 49.9438 18.5963 49.4773C18.3377 49.2825 18.0785 49.0877 17.8199 48.8923C17.2218 48.5541 16.5764 48.3837 15.8838 48.3817C15.3559 48.3619 14.8631 48.4699 14.4053 48.7035C13.9294 48.8541 13.5183 49.1121 13.1706 49.4766C12.7966 49.8155 12.532 50.2162 12.3774 50.6801C12.1371 51.1256 12.027 51.6059 12.0473 52.1211C12.0932 52.4528 12.1384 52.7837 12.1843 53.1154C12.3666 53.749 12.6954 54.2991 13.1713 54.7657C13.4299 54.9604 13.6891 55.1552 13.9476 55.3506C14.5458 55.6888 15.1911 55.8593 15.8838 55.8612Z" fill="white"/>
<path d="M20.7229 50.0017C20.9342 50.0096 21.1313 49.9668 21.3143 49.8727C21.5046 49.8122 21.6694 49.7095 21.8084 49.5634C21.9583 49.4279 22.0636 49.2673 22.1257 49.0818C22.2216 48.9035 22.2661 48.7113 22.258 48.5054C22.2398 48.3731 22.2216 48.2402 22.2034 48.1079C22.1304 47.8546 21.9988 47.6348 21.8084 47.4479C21.508 47.1795 21.1394 47.0097 20.7236 47.0097C20.5123 47.0018 20.3151 47.0446 20.1322 47.1387C19.9418 47.1992 19.7771 47.3019 19.638 47.4479C19.4882 47.5835 19.3829 47.744 19.3208 47.9296C19.2249 48.1079 19.1803 48.3001 19.1884 48.506C19.2067 48.6383 19.2249 48.7712 19.2431 48.9035C19.316 49.1568 19.4477 49.3766 19.638 49.5634C19.9385 49.8319 20.307 50.0017 20.7229 50.0017Z" fill="white"/>
<path d="M40.1815 19.8181L12.7009 6.31055L12.4248 6.84485L39.1284 19.9707C39.4828 19.9352 39.8345 19.8852 40.1815 19.8181Z" fill="white"/>
<path d="M43.9205 21.6555C43.6916 21.7766 43.4607 21.8852 43.2285 21.9858L64.6745 32.5271L64.9507 31.9928L43.9205 21.6555Z" fill="white"/>
<path d="M40.5097 13.9369C39.1143 13.8455 38.0112 12.7137 38.0112 11.3306C38.0112 12.7137 36.9081 13.8455 35.5127 13.9369C36.9081 14.0284 38.0112 15.1602 38.0112 16.5433C38.0112 15.1602 39.1143 14.0284 40.5097 13.9369Z" fill="white"/>
<path d="M16.6747 39.4916C15.2793 39.4002 14.1762 38.2684 14.1762 36.8853C14.1762 38.2684 13.0731 39.4002 11.6777 39.4916C13.0731 39.5831 14.1762 40.7148 14.1762 42.098C14.1769 40.7142 15.28 39.5831 16.6747 39.4916Z" fill="white"/>
<path d="M5.34546 27.1232C4.6481 27.0771 4.09656 26.5119 4.09656 25.8203C4.09656 26.5119 3.54502 27.0778 2.84766 27.1232C3.54502 27.1692 4.09656 27.7345 4.09656 28.426C4.09588 27.7351 4.64743 27.1692 5.34546 27.1232Z" fill="white"/>
<path d="M27.8198 22.6992C28.0669 22.6992 28.0669 22.3254 27.8198 22.3254C27.5734 22.3248 27.5727 22.6992 27.8198 22.6992Z" fill="white"/>
<path d="M31.1528 20.2881C31.3999 20.2881 31.3999 19.9143 31.1528 19.9143C30.9064 19.9143 30.9058 20.2881 31.1528 20.2881Z" fill="white"/>
<path d="M39.1123 24.4809C39.3594 24.4809 39.3594 24.1072 39.1123 24.1072C38.8652 24.1065 38.8646 24.4809 39.1123 24.4809Z" fill="white"/>
<path d="M44.0574 24.6902C44.3045 24.6902 44.3045 24.3164 44.0574 24.3164C43.8103 24.3164 43.8103 24.6902 44.0574 24.6902Z" fill="white"/>
<path d="M9.32471 34.5427C9.57179 34.5427 9.57179 34.1689 9.32471 34.1689C9.0783 34.1689 9.07763 34.5427 9.32471 34.5427Z" fill="white"/>
<path d="M27.7127 56.3445C27.9597 56.3445 27.9597 55.9707 27.7127 55.9707C27.4656 55.97 27.4656 56.3445 27.7127 56.3445Z" fill="white"/>
<path d="M49.4346 14.4187C49.6817 14.4187 49.6817 14.0449 49.4346 14.0449C49.1875 14.0443 49.1868 14.4187 49.4346 14.4187Z" fill="white"/>
<path d="M45.2397 9.1777C45.4868 9.1777 45.4868 8.80396 45.2397 8.80396C44.9933 8.80396 44.9927 9.1777 45.2397 9.1777Z" fill="white"/>
<path d="M44.0574 11.4839C44.3045 11.4839 44.3045 11.1101 44.0574 11.1101C43.8103 11.1095 43.8103 11.4839 44.0574 11.4839Z" fill="white"/>
<path d="M55.2417 36.9533C55.4888 36.9533 55.4888 36.5796 55.2417 36.5796C54.9953 36.5796 54.9946 36.9533 55.2417 36.9533Z" fill="white"/>
<path d="M37.3914 53.6189C37.6384 53.6189 37.6384 53.2451 37.3914 53.2451C37.1443 53.2451 37.1443 53.6189 37.3914 53.6189Z" fill="white"/>
<path d="M40.4009 54.7717C40.648 54.7717 40.648 54.3979 40.4009 54.3979C40.1545 54.3979 40.1538 54.7717 40.4009 54.7717Z" fill="white"/>
<path d="M22.3026 22.2502C20.2801 22.2502 18.6396 23.8485 18.6396 25.8206C18.6396 27.792 20.2794 29.3903 22.3026 29.3903C24.3259 29.3903 25.9656 27.792 25.9656 25.8206C25.9656 23.8485 24.3259 22.2502 22.3026 22.2502ZM22.3026 27.9578C21.0916 27.9578 20.11 27.001 20.11 25.8206C20.11 24.6401 21.0916 23.6834 22.3026 23.6834C23.5137 23.6834 24.4953 24.6401 24.4953 25.8206C24.496 27.001 23.5137 27.9578 22.3026 27.9578Z" fill="white"/>
<path d="M49.434 44.707C45.3342 44.707 42.0107 47.9464 42.0107 51.9425C42.0107 55.9385 45.3342 59.1779 49.434 59.1779C53.5337 59.1779 56.8572 55.9385 56.8572 51.9425C56.8565 47.9464 53.5331 44.707 49.434 44.707ZM49.434 56.2741C46.9793 56.2741 44.9899 54.335 44.9899 51.9425C44.9899 49.55 46.9793 47.6108 49.434 47.6108C51.8886 47.6108 53.878 49.55 53.878 51.9425C53.878 54.3343 51.8886 56.2741 49.434 56.2741Z" fill="white"/>
<path d="M33.9256 49.7247C33.4834 49.3911 33.3336 48.8245 33.5179 48.3389C32.859 48.3073 32.196 48.5778 31.7613 49.1246C31.0552 50.0135 31.2226 51.2914 32.1339 51.9796C33.046 52.6679 34.357 52.5047 35.0631 51.6164C35.4972 51.0696 35.5998 50.3754 35.4034 49.7622C34.9673 50.0576 34.3678 50.0583 33.9256 49.7247Z" fill="white"/>
</g>
<defs>
<linearGradient id="paint0_linear_171_116" x1="32" y1="-3.63637" x2="32" y2="57.8639" gradientUnits="userSpaceOnUse">
<stop stop-color="#29235C"/>
<stop offset="0.078" stop-color="#263470"/>
<stop offset="0.203" stop-color="#224A8A"/>
<stop offset="0.341" stop-color="#205B9E"/>
<stop offset="0.497" stop-color="#1E67AD"/>
<stop offset="0.686" stop-color="#1D6EB5"/>
<stop offset="1" stop-color="#1D71B8"/>
</linearGradient>
<linearGradient id="paint1_linear_171_116" x1="32" y1="-3.70903" x2="32" y2="58.3764" gradientUnits="userSpaceOnUse">
<stop stop-color="#29235C"/>
<stop offset="0.078" stop-color="#263470"/>
<stop offset="0.203" stop-color="#224A8A"/>
<stop offset="0.341" stop-color="#205B9E"/>
<stop offset="0.497" stop-color="#1E67AD"/>
<stop offset="0.686" stop-color="#1D6EB5"/>
<stop offset="1" stop-color="#1D71B8"/>
</linearGradient>
</defs>
</svg>
