<?xml version="1.0" encoding="UTF-8"?><svg id="Layer_1" xmlns="http://www.w3.org/2000/svg" xmlns:xlink="http://www.w3.org/1999/xlink" viewBox="0 0 841.494 736.452"><defs><style>.cls-1{fill:#086885;}.cls-2{fill:#fff;}.cls-3{fill:#edcba2;}.cls-4{stroke-width:12.958px;}.cls-4,.cls-5,.cls-6,.cls-7,.cls-8{fill:none;}.cls-4,.cls-5,.cls-6,.cls-8{stroke-miterlimit:10;}.cls-4,.cls-5,.cls-7{stroke:#0e0b0c;}.cls-5{stroke-width:10.799px;}.cls-9{fill:#034159;}.cls-10{fill:#faebd6;}.cls-6{stroke-width:13.126px;}.cls-6,.cls-8{stroke:#100b0b;}.cls-11{fill:#0e0b0c;}.cls-7{stroke-linejoin:round;stroke-width:6.479px;}.cls-12{fill:url(#radial-gradient);}.cls-13{fill:#e4b785;}.cls-14{fill:#d1b08c;}.cls-15{fill:#fbcd9d;}.cls-16{fill:#0a2230;}.cls-8{stroke-width:13.093px;}</style><radialGradient id="radial-gradient" cx="420.747" cy="359.666" fx="420.747" fy="359.666" r="368.842" gradientTransform="matrix(1, 0, 0, 1, 0, 0)" gradientUnits="userSpaceOnUse"><stop offset="0" stop-color="#2e2d35"/><stop offset=".887" stop-color="#0f314b"/></radialGradient></defs><rect class="cls-16" y="84.115" width="841.494" height="652.337" rx="38.223" ry="38.223"/><rect class="cls-1" width="841.494" height="678.363" rx="38.223" ry="38.223"/><rect class="cls-12" x="8.492" y="40.08" width="824.51" height="639.172" rx="38.223" ry="38.223"/><path class="cls-9" d="M443.84,163.039h0c0-12.403,9.079-22.458,20.278-22.458h304.906c12.651,0,22.906-11.358,22.906-25.368h0c0-14.011-10.255-25.368-22.906-25.368H275.151c-11.199,0-20.278,10.055-20.278,22.458h0c0,12.403-9.079,22.458-20.278,22.458h-98.099c-11.872,0-21.497,10.659-21.497,23.807h0c0,13.149-9.624,23.807-21.497,23.807h-3.298c-23.615,0-42.758,21.201-42.758,47.354h0c0,26.153,19.143,47.354,42.758,47.354h232.386c10.65,0,19.284,9.562,19.284,21.357h0c0,11.795,8.634,21.357,19.284,21.357h286.651c12.651,0,22.906-11.358,22.906-25.368h0c0-14.01-10.255-25.368-22.906-25.368h-122.231c-10.65,0-19.284-9.562-19.284-21.357h0c0-11.795-8.634-21.357-19.284-21.357H232.859c-10.186,0-18.443-9.145-18.443-20.425h0c0-11.281,8.257-20.425,18.443-20.425h190.703c11.199,0,20.278-10.055,20.278-22.458Z"/><path class="cls-9" d="M395.537,476.193h0c0-12.403-9.079-22.458-20.278-22.458H70.353c-12.651,0-22.906-11.358-22.906-25.368h0c0-14.011,10.255-25.368,22.906-25.368h493.873c11.199,0,20.278,10.055,20.278,22.458h0c0,12.403,9.079,22.458,20.278,22.458h91.442c15.549,0,28.153,10.659,28.153,23.807h0c0,13.149,12.605,23.807,28.153,23.807h0c21.759,0,39.399,14.917,39.399,33.317v14.037c0,26.153-25.071,47.354-55.998,47.354h-219.145c-10.65,0-19.284,9.562-19.284,21.357h0c0,11.795-8.634,21.357-19.284,21.357H191.568c-12.651,0-22.906-11.358-22.906-25.368h0c0-14.01,10.255-25.368,22.906-25.368h122.231c10.65,0,19.284-9.562,19.284-21.357h0c0-11.795,8.634-21.357,19.284-21.357h254.151c10.186,0,18.443-9.145,18.443-20.425h0c0-11.281-8.257-20.425-18.443-20.425h-190.703c-11.199,0-20.278-10.055-20.278-22.458Z"/><g><path class="cls-4" d="M709.665,424.746l-1.525-14.676h-.005l-.95-9.149-14.193,1.474-12.517-120.493-2.434-23.426-.735-7.079,14.193-1.474-.877-8.444h.005l-3.573-34.398c-1.414-13.607-13.59-23.492-27.197-22.078l-9.491,.986-90.034,9.353-6.456,.671,6.133,59.035,1.613,15.523,2.434,23.426,13.467,129.642-58.33,6.059-17.514-168.591-5.39-51.885-6.423,.667-3.619-34.834c-2.499-24.057-24.22-46.889-48.444-44.372l-68.832,7.15c-24.224,2.516-41.923,29.443-39.424,53.5l3.619,34.834-5.468,.568,5.39,51.885,17.514,168.591-58.33,6.059-13.467-129.642-2.434-23.426-1.613-15.523-5.863-56.437-7.092,.737-97.467,10.125-1.299,.135c-13.675,1.421-23.609,13.658-22.189,27.333l.046,.441,3.245,31.235-.015,.002,.877,8.444,14.213-1.476,.735,7.079,.669,6.444,1.764,16.982,13.073,125.846-14.095,1.464,.394,3.796h0l1.422,14.687,5.706,54.924,.475,4.57c1.423,13.698,13.681,23.649,27.378,22.226l.215-.022,1.191-.124,104.411-10.846-8.635-83.121,58.33-6.059,8.635,83.121,168.591-17.514-8.635-83.121,58.33-6.059,6.402,61.624-2.293,.238,2.233,21.497,2.293-.238,105.816-10.992h0c9.417-.978,17.064-7.078,20.46-15.245,1.544-3.713,2.21-7.852,1.765-12.133l-.661-6.365h0l-5.397-51.954-.122-1.175ZM347.17,189.502c-1.497-14.408,9.11-32.664,23.619-34.171l68.832-7.15c14.509-1.507,27.507,14.297,29.004,28.705l1.477,14.214-121.455,12.617-1.477-14.214Z"/><rect class="cls-10" x="328.799" y="217.091" width="169.499" height="52.164" transform="translate(-22.913 44.032) rotate(-5.931)"/><path class="cls-10" d="M151.243,234.128h119.795v56.74H139.717v-45.214c0-6.362,5.165-11.527,11.527-11.527Z" transform="translate(-26.024 22.626) rotate(-5.931)"/><path class="cls-10" d="M555.451,188.321h119.852c6.33,0,11.469,5.139,11.469,11.469v47.884h-131.321v-59.353h0Z" transform="translate(-19.2 65.344) rotate(-5.931)"/><path class="cls-14" d="M195.082,260.951h495.673v9.872H190.511v-5.301c0-2.523,2.048-4.571,4.571-4.571Z" transform="translate(-25.114 46.952) rotate(-5.931)"/><path class="cls-10" d="M166.065,473.758h131.321v84.749h-119.776c-6.372,0-11.546-5.173-11.546-11.546v-73.204h0Z" transform="translate(-52.089 26.706) rotate(-5.931)"/><rect class="cls-10" x="354.149" y="437.441" width="169.499" height="99.505" transform="translate(-47.99 47.957) rotate(-5.931)"/><path class="cls-10" d="M581.934,430.557h131.321v73.204c0,6.372-5.173,11.546-11.546,11.546h-119.776v-84.749h0Z" transform="translate(-45.4 69.444) rotate(-5.931)"/><path class="cls-14" d="M527.64,527.995l-2.233-21.497-228.351,23.721c-16.924,1.758-32.806,9.014-45.214,20.658l-6.912,6.486,282.71-29.368Z"/><path class="cls-14" d="M692.48,510.871c13.698-1.423,23.649-13.681,22.226-27.379l-.661-6.365c-11.896,11.482-29.173,12.805-29.173,12.805l-102.735,10.672,2.233,21.497,108.11-11.231Z"/><rect class="cls-10" x="340.3" y="268.662" width="169.499" height="169.499" transform="translate(-34.241 45.81) rotate(-5.931)"/><rect class="cls-10" x="567.312" y="247.799" width="117.047" height="169.499" transform="translate(-31.011 66.445) rotate(-5.931)"/><rect class="cls-10" x="165.641" y="289.526" width="117.047" height="169.499" transform="translate(-37.472 25.165) rotate(-5.931)"/><path class="cls-10" d="M489.078,212.528l-156.7,16.278-3.97-38.221c-2.499-24.057,15.2-50.984,39.424-53.5l68.832-7.15c24.224-2.516,45.945,20.315,48.444,44.372l3.97,38.221Zm-141.572-9.559l121.455-12.617-1.477-14.214c-1.497-14.408-14.495-30.212-29.004-28.705l-68.832,7.15c-14.509,1.507-25.116,19.764-23.619,34.171l1.477,14.214Z"/><path class="cls-2" d="M195.811,562.466h0c-13.816,1.435-26.382-10.551-28.068-26.773l-7.23-69.6,546.488-56.77,1.647,15.851-519.487,53.965,7.841,83.204-1.191,.124Z"/><g><path class="cls-5" d="M291.119,331.963h58.644v234.982c0,1.576-1.279,2.855-2.855,2.855h-52.934c-1.576,0-2.855-1.279-2.855-2.855v-234.982h0Z" transform="translate(-44.872 35.523) rotate(-5.931)"/><path class="cls-5" d="M518.04,308.39h58.644v234.988c0,1.573-1.277,2.849-2.849,2.849h-52.945c-1.573,0-2.849-1.277-2.849-2.849v-234.988h0Z" transform="translate(-41.222 58.844) rotate(-5.931)"/></g><path class="cls-2" d="M143.36,265.735h4.654c1.107,0,2.006,.899,2.006,2.006v29.396h-8.666v-29.396c0-1.107,.899-2.006,2.006-2.006Z" transform="translate(-28.3 16.56) rotate(-5.931)"/><path class="cls-2" d="M208.708,187.874h7.189v96.327c0,.919-.746,1.664-1.664,1.664h-3.86c-.919,0-1.664-.746-1.664-1.664v-96.327h0Z" transform="translate(425.968 1.23) rotate(84.069)"/><rect class="cls-13" x="208.411" y="239.217" width="15.607" height="117.047" transform="translate(490.021 51.92) rotate(84.069)"/><rect class="cls-15" x="206.461" y="258.692" width="23.552" height="117.047" transform="translate(511.205 67.37) rotate(84.069)"/><rect class="cls-15" x="407.912" y="212.157" width="23.552" height="168.262" transform="translate(671.026 -151.768) rotate(84.069)"/><rect class="cls-15" x="608.133" y="216.965" width="23.552" height="117.047" transform="translate(829.871 -369.567) rotate(84.069)"/><rect class="cls-13" x="409.862" y="192.683" width="15.607" height="168.262" transform="translate(649.842 -167.218) rotate(84.069)"/><rect class="cls-13" x="610.082" y="197.491" width="15.607" height="117.047" transform="translate(808.687 -385.017) rotate(84.069)"/><polygon class="cls-2" points="186.573 463.385 174.711 464.618 159.479 317.994 173.106 333.743 186.573 463.385"/><rect class="cls-2" x="406.461" y="132.341" width="7.189" height="162.718" transform="translate(580.243 -216.241) rotate(84.069)"/><rect class="cls-2" x="600.987" y="148.233" width="7.189" height="90.519" transform="translate(734.569 -427.845) rotate(84.069)"/><path class="cls-2" d="M330.908,191.422h2.299c.547,0,.991,.444,.991,.991v26.179h-4.281v-26.179c0-.547,.444-.991,.991-.991Z" transform="translate(-19.405 35.407) rotate(-5.931)"/><path class="cls-2" d="M403.028,102.632h4.281v64.463c0,.547-.444,.991-.991,.991h-2.299c-.547,0-.991-.444-.991-.991V102.632h0Z" transform="translate(497.938 -281.627) rotate(84.069)"/><rect class="cls-8" x="267.38" y="213.42" width="58.738" height="45.118" transform="translate(-22.794 31.925) rotate(-5.931)"/><rect class="cls-6" x="496.637" y="189.586" width="59.04" height="44.268" transform="translate(-19.06 55.499) rotate(-5.931)"/><path class="cls-10" d="M291.119,331.963h58.644v234.96c0,1.588-1.289,2.877-2.877,2.877h-52.89c-1.588,0-2.877-1.289-2.877-2.877v-234.96h0Z" transform="translate(-44.872 35.523) rotate(-5.931)"/><path class="cls-10" d="M518.04,308.39h58.644v234.709c0,1.727-1.402,3.129-3.129,3.129h-52.386c-1.727,0-3.129-1.402-3.129-3.129v-234.709h0Z" transform="translate(-41.222 58.844) rotate(-5.931)"/><path class="cls-2" d="M291.253,334.545h8.666v237.837h-5.811c-1.576,0-2.855-1.279-2.855-2.855v-234.982h0Z" transform="translate(-45.272 32.969) rotate(-5.931)"/><path class="cls-2" d="M518.174,310.972h8.666v237.837h-5.554c-1.718,0-3.112-1.395-3.112-3.112v-234.725h0Z" transform="translate(-41.622 56.289) rotate(-5.931)"/><path class="cls-3" d="M278.989,335.629s21.343,43.999,63.079,39.664l-4.75-45.723-58.33,6.059Z"/><path class="cls-3" d="M505.91,312.056s21.343,43.999,63.079,39.664l-4.75-45.723-58.33,6.059Z"/><rect class="cls-5" x="275.522" y="277.184" width="58.644" height="47.104" transform="translate(-29.442 33.108) rotate(-5.931)"/><rect class="cls-5" x="502.443" y="253.611" width="58.644" height="47.104" transform="translate(-25.792 56.428) rotate(-5.931)"/><rect class="cls-10" x="275.522" y="277.184" width="58.644" height="47.104" transform="translate(-29.442 33.108) rotate(-5.931)"/><rect class="cls-10" x="502.443" y="253.611" width="58.644" height="47.104" transform="translate(-25.792 56.428) rotate(-5.931)"/><rect class="cls-2" x="275.655" y="279.766" width="8.666" height="47.104" transform="translate(-29.842 30.553) rotate(-5.931)"/><rect class="cls-2" x="300.467" y="250.143" width="4.333" height="58.644" transform="translate(549.333 -50.425) rotate(84.069)"/><rect class="cls-2" x="502.576" y="256.193" width="8.666" height="47.104" transform="translate(-26.192 53.874) rotate(-5.931)"/><rect class="cls-2" x="527.388" y="226.57" width="4.333" height="58.644" transform="translate(729.36 -297.269) rotate(84.069)"/><rect class="cls-10" x="268.421" y="213.647" width="59.04" height="45.118" transform="translate(-22.811 32.049) rotate(-5.931)"/><rect class="cls-2" x="294.155" y="185.861" width="3.245" height="59.04" transform="translate(479.444 -101.067) rotate(84.069)"/><rect class="cls-2" x="268.555" y="216.246" width="8.725" height="45.118" transform="translate(-23.214 29.478) rotate(-5.931)"/><rect class="cls-10" x="495.86" y="189.921" width="59.04" height="45.118" transform="translate(-19.142 55.422) rotate(-5.931)"/><rect class="cls-2" x="521.263" y="162.169" width="3.245" height="59.04" transform="translate(659.521 -348.204) rotate(84.069)"/><rect class="cls-2" x="495.663" y="192.554" width="8.725" height="45.118" transform="translate(-19.55 52.817) rotate(-5.931)"/><rect class="cls-11" x="498.61" y="240.018" width="59.073" height="8.797" transform="translate(-22.428 55.879) rotate(-5.931)"/><polygon class="cls-11" points="565.301 305.997 500.548 312.649 499.658 304.184 563.363 297.559 565.301 305.997"/><polygon class="cls-11" points="340.403 329.901 275.65 336.554 274.76 328.089 338.464 321.463 340.403 329.901"/><rect class="cls-11" x="271.903" y="263.568" width="59.073" height="8.797" transform="translate(-26.074 32.581) rotate(-5.931)"/><rect class="cls-11" x="139.516" y="291.147" width="129.749" height="8.489" transform="translate(438.208 568.082) rotate(174.069)"/><rect class="cls-11" x="159.692" y="450.238" width="129.319" height="9.199" transform="translate(494.499 884.058) rotate(174.069)"/><rect class="cls-11" x="350.561" y="428.626" width="163.656" height="9.199" transform="translate(907.227 819.456) rotate(174.069)"/><rect class="cls-11" x="576.916" y="406.494" width="137.056" height="9.199" transform="translate(1329.91 753.295) rotate(174.069)"/><rect class="cls-11" x="335.753" y="269.093" width="161.859" height="8.489" transform="translate(859.378 502.159) rotate(174.069)"/><rect class="cls-11" x="328.08" y="204.914" width="161.859" height="5.741" transform="translate(837.299 372.196) rotate(174.069)"/><rect class="cls-11" x="562.474" y="247.126" width="131.355" height="8.489" transform="translate(1278.913 436.491) rotate(174.069)"/><g><path class="cls-7" d="M474.446,386.578c.309-.683,.608-1.371,.886-2.069,2.877-7.226,4.096-15.234,3.237-23.506-2.839-27.328-27.294-47.181-54.623-44.342-14.684,1.525-27.202,9.297-35.209,20.396,27.796-10.346,73.451,30.701,85.709,49.521Z"/><path class="cls-7" d="M379.494,369.886c.035,.466,.061,.93,.11,1.398,2.839,27.328,27.294,47.181,54.623,44.342,7.487-.778,14.409-3.184,20.461-6.821-25.786-1.668-61.541-20.008-75.193-38.919Z"/></g><ellipse class="cls-7" cx="425.426" cy="373.682" rx="23.696" ry="48.31" transform="translate(-113.748 546.648) rotate(-59.081)"/><g><path class="cls-13" d="M474.233,386.084c.309-.683,.608-1.371,.886-2.069,2.877-7.226,4.096-15.234,3.237-23.506-2.839-27.328-27.294-47.181-54.623-44.342-14.684,1.525-27.202,9.297-35.209,20.396,27.796-10.346,73.451,30.701,85.709,49.521Z"/><path class="cls-13" d="M379.281,369.392c.035,.466,.061,.93,.11,1.398,2.839,27.328,27.294,47.181,54.623,44.342,7.487-.778,14.409-3.184,20.461-6.821-25.786-1.668-61.541-20.008-75.193-38.919Z"/></g><ellipse class="cls-13" cx="425.213" cy="373.188" rx="23.696" ry="48.31" transform="translate(-113.427 546.225) rotate(-59.081)"/><path class="cls-11" d="M467.241,361.552c-8.542,.31-15.98-6.05-16.876-14.678,.896,8.627-5.076,16.381-13.499,17.833,8.542-.31,15.98,6.05,16.876,14.678-.896-8.627,5.076-16.381,13.499-17.833Z"/><g><path class="cls-15" d="M465.617,332.114c-10.279-11.245-25.567-17.643-41.884-15.948-14.684,1.525-27.202,9.297-35.209,20.396,5.962-2.219,12.747-2.061,19.846-.278,7.138-6.333,16.247-10.582,26.463-11.643,11.259-1.17,22.002,1.717,30.784,7.473Z"/><path class="cls-15" d="M394.02,383.863c-6.045-4.592-11.158-9.51-14.739-14.472,.036,.466,.061,.93,.11,1.398,2.332,22.448,19.253,39.839,40.366,43.766-12.436-5.804-22.077-16.896-25.737-30.692Z"/><path class="cls-15" d="M403.561,341.218c-9.242-.582-16.544,1.723-19.793,7.147-4.321,7.216-.421,18.142,8.973,28.669-.018-.156-.044-.31-.061-.467-1.381-13.298,2.899-25.872,10.881-35.349Z"/></g></g></svg>