<?xml version="1.0" encoding="UTF-8"?><svg id="Layer_1" xmlns="http://www.w3.org/2000/svg" viewBox="0 0 1436.558 385.851"><defs><style>.cls-1{fill:#6584c2;}.cls-2{fill:#fff;}.cls-3{stroke:#151f33;stroke-miterlimit:10;stroke-width:44.971px;}.cls-3,.cls-4{fill:none;}.cls-5{fill:#ce2625;}.cls-6{fill:#4f6ab1;}.cls-7{fill:#3a507d;}</style></defs><g><path class="cls-3" d="M1261.735,22.485H178.095c-65.925,0-122.138,44.973-144.813,108.377-6.884,19.253-10.797,40.138-10.797,62.064,0,94.131,69.668,170.439,155.61,170.439H1261.735"/><path class="cls-3" d="M1258.463,22.485c65.925,0,122.138,44.973,144.813,108.377,6.884,19.253,10.797,40.138,10.797,62.064,0,94.131-69.668,170.439-155.61,170.439"/><path class="cls-6" d="M1406.549,130.862c-22.673-63.404-78.888-108.377-144.813-108.377H178.095c-65.925,0-122.139,44.973-144.812,108.377-6.885,19.252-10.798,40.139-10.798,62.063,0,94.131,69.669,170.44,155.61,170.44H1261.737c85.941,0,155.611-76.309,155.611-170.44,0-21.925-3.914-42.811-10.798-62.063Z"/><path class="cls-7" d="M178.095,333.691H1261.737c65.925,0,122.14-41.06,144.813-98.948,5.161-13.177,8.652-27.194,10.077-41.818,.462,4.883,.721,9.825,.721,14.829,0,20.016-3.914,39.086-10.798,56.663-22.673,57.888-78.888,98.948-144.813,98.948H178.095c-65.925,0-122.139-41.06-144.812-98.948-6.885-17.577-10.798-36.646-10.798-56.663,0-5.004,.26-9.946,.721-14.829,1.425,14.624,4.916,28.641,10.077,41.818,22.673,57.889,78.887,98.948,144.812,98.948Z"/><path class="cls-1" d="M1261.737,52.159H178.096c-65.925,0-122.14,41.06-144.813,98.948-5.161,13.177-8.652,27.194-10.077,41.818-.462-4.883-.721-9.825-.721-14.829,0-20.016,3.914-39.086,10.798-56.663C55.956,63.546,112.171,22.485,178.096,22.485H1261.737c65.925,0,122.139,41.06,144.812,98.948,6.885,17.577,10.798,36.646,10.798,56.663,0,5.004-.26,9.946-.721,14.829-1.425-14.624-4.916-28.641-10.077-41.818-22.673-57.889-78.887-98.948-144.812-98.948Z"/></g><g><path class="cls-2" d="M177.991,229.155l-29.681-74.13h18.604l19.74,51.55h.284l19.739-51.55h18.462l-29.538,74.13h-17.61Z"/><path class="cls-2" d="M269.448,153.462c22.154,0,38.486,16.899,38.486,38.627s-16.332,38.628-38.486,38.628-38.485-16.9-38.485-38.628,16.331-38.627,38.485-38.627Zm20.45,38.627c0-12.923-8.379-22.438-20.45-22.438s-20.592,9.516-20.592,22.438c0,12.781,8.521,22.438,20.592,22.438s20.45-9.657,20.45-22.438Z"/><path class="cls-2" d="M333.352,120.799c5.965,0,10.793,4.828,10.793,10.793s-4.828,10.793-10.793,10.793c-6.106,0-10.651-4.828-10.651-10.793s4.545-10.793,10.651-10.793Zm-8.663,108.356v-74.13h17.752v74.13h-17.752Z"/><path class="cls-2" d="M427.791,216.799c-8.237,9.373-18.178,13.918-30.107,13.918-22.154,0-38.485-16.9-38.485-38.628s16.331-38.627,38.485-38.627c11.787,0,22.296,4.687,29.823,13.633l-12.355,11.929c-5.112-6.248-10.367-9.373-17.468-9.373-12.071,0-20.592,9.516-20.592,22.438,0,12.781,8.521,22.438,20.592,22.438,5.965,0,12.071-2.131,17.326-9.8l12.781,12.071Z"/><path class="cls-2" d="M455.625,198.906c2.13,10.509,9.657,16.332,20.733,16.332,8.096,0,12.924-1.562,20.734-6.959l8.237,11.929c-9.089,7.527-17.468,10.51-29.539,10.51-22.438,0-38.344-16.9-38.344-38.628s16.615-38.627,37.634-38.627c22.864,0,34.793,17.751,34.793,38.912v6.532h-54.249Zm36.781-12.781c-.852-8.946-6.106-17.468-17.184-17.468-10.083,0-17.752,6.249-19.74,17.468h36.924Z"/></g><path class="cls-5" d="M1159.972,164.866l-64.41-65.457s-20.399-5.826-21.909-5.826-13.09,16.111-13.09,16.111c0,0,10.573,21.255,12.083,22.207,1.51,.952,31.123,29.541,31.123,29.541l31.218,29.369-19.546,19.172-43.298,43.966-11.58,19.164,9.38,17.323s17.339,1.007,19.587,0c2.248-1.007,49.089-51.759,49.089-51.759l21.427-20.693,29.615,31.565,36.139,34.876,17.684,6.458,13.186-9.006v-18.421l-67.049-71.223,20.814-26.507,34.829-29.426s13.16-15.26,13.16-18.667,2.517-17.431,0-18.223c-2.517-.792-21.395-5.826-21.395-5.826l-20.113,16.111-56.943,55.172Z"/><g><path class="cls-4" d="M1213.381,213.201c2.294-6.458,3.534-13.3,3.534-20.277s-1.239-13.818-3.533-20.276l-20.276,20.276,20.276,20.276Z"/><path class="cls-4" d="M1167.9,152.009v-34.166c0-2.515-1.224-4.098-2.367-4.739-.915-.515-1.802-.488-2.713,.067l-30.739,18.73,27.963,27.964,7.856-7.856Z"/><path class="cls-4" d="M1227.04,192.924c0,9.749-2.073,19.268-5.877,28.059l14.857,14.857c6.82-13.167,10.523-27.839,10.523-42.914s-3.702-29.748-10.523-42.916l-14.856,14.856c3.805,8.79,5.877,18.309,5.877,28.058Z"/><path class="cls-4" d="M1132.08,253.949l30.741,18.73c.917,.558,1.8,.576,2.713,.067,1.143-.644,2.367-2.227,2.367-4.739v-34.166l-7.856-7.856-27.964,27.964Z"/><path class="cls-4" d="M1081.232,147.172h-11.069c-1.987,0-3.665,2.333-3.665,5.093l-.002,81.321c0,2.76,1.68,5.091,3.667,5.091h11.071l45.751-45.752-45.753-45.754Z"/><path class="cls-4" d="M1250.028,265.85l-12.717-12.717-7.297-7.297-14.437-14.437-7.299-7.298-23.175-23.176-5.888-5.888-2.113-2.113,2.113-2.113,5.887-5.887,23.176-23.175,7.299-7.299,14.436-14.435,7.297-7.297,12.717-12.717c4.702-4.704,4.702-12.356,0-17.06-2.279-2.277-5.308-3.531-8.53-3.531s-6.249,1.254-8.528,3.531l-53.753,53.754-11.171,11.171-.145,.145-7.855,7.855-8.001-8.001-29.905-29.906-8.235-8.235-26.784-26.784c-2.279-2.277-5.308-3.531-8.528-3.531s-6.251,1.254-8.53,3.531c-4.702,4.704-4.702,12.356,0,17.06l15.855,15.855,11.316,11.316,37.753,37.753,8.001,8.001-8.001,8.001-37.75,37.75-11.316,11.316-15.859,15.859c-2.277,2.277-3.533,5.306-3.533,8.526s1.256,6.251,3.533,8.528c4.554,4.554,12.499,4.556,17.057,.002l26.783-26.782,8.235-8.235,29.907-29.907,8.001-8.001,7.856,7.856,.145,.145,11.171,11.171,53.753,53.753c4.56,4.556,12.504,4.554,17.056,0,2.279-2.279,3.534-5.308,3.534-8.53s-1.256-6.249-3.533-8.526v-.002Z"/><path class="cls-2" d="M1243.482,243.303c8.535-15.3,13.186-32.587,13.186-50.377s-4.651-35.078-13.186-50.379l14.546-14.546c4.417-4.416,6.85-10.287,6.85-16.531s-2.432-12.115-6.85-16.531c-4.414-4.416-10.285-6.848-16.531-6.848s-12.115,2.432-16.529,6.848l-45.753,45.753v-22.85c0-6.189-3.119-11.786-8.141-14.605-4.461-2.511-9.75-2.406-14.143,.268l-33.086,20.161-28.726-28.726c-4.414-4.416-10.285-6.848-16.529-6.848s-12.117,2.432-16.531,6.848c-4.417,4.416-6.85,10.287-6.85,16.531s2.432,12.115,6.85,16.531l7.879,7.879c-8.156,.134-14.759,7.42-14.759,16.385l-.002,81.321c0,8.964,6.604,16.25,14.762,16.383l-7.881,7.881c-4.417,4.414-6.85,10.285-6.85,16.529s2.432,12.117,6.848,16.531c4.416,4.418,10.287,6.85,16.533,6.85s12.115-2.432,16.529-6.85l28.724-28.724,33.088,20.16h.002c2.273,1.385,4.788,2.081,7.303,2.081,2.343,0,4.687-.604,6.839-1.813,5.022-2.82,8.141-8.418,8.141-14.605v-22.85l45.751,45.751c4.416,4.418,10.287,6.85,16.531,6.85s12.117-2.432,16.531-6.848c4.417-4.416,6.85-10.287,6.85-16.533s-2.432-12.115-6.85-16.529l-14.546-14.546Zm3.06-50.377c0,15.075-3.702,29.747-10.523,42.914l-14.857-14.857c3.805-8.791,5.877-18.31,5.877-28.059s-2.072-19.268-5.877-28.058l14.856-14.856c6.82,13.168,10.523,27.841,10.523,42.916Zm-29.628-.002c0,6.977-1.239,13.819-3.534,20.277l-20.276-20.276,20.276-20.276c2.294,6.457,3.533,13.298,3.533,20.276Zm-54.094-79.753c.911-.556,1.798-.582,2.713-.067,1.143,.642,2.367,2.225,2.367,4.739v34.166l-7.856,7.856-27.963-27.964,30.739-18.73Zm-92.658,125.506c-1.987,0-3.667-2.331-3.667-5.091l.002-81.321c0-2.76,1.678-5.093,3.665-5.093h11.069l45.753,45.754-45.751,45.752h-11.071Zm97.738,29.331c0,2.513-1.224,4.096-2.367,4.739-.913,.509-1.796,.49-2.713-.067l-30.741-18.73,27.964-27.964,7.856,7.856v34.166Zm82.126,14.901c-4.552,4.554-12.497,4.556-17.056,0l-53.753-53.753-11.171-11.171-.145-.145-7.856-7.856-8.001,8.001-29.907,29.907-8.235,8.235-26.783,26.782c-4.558,4.554-12.502,4.552-17.057-.002-2.277-2.277-3.533-5.306-3.533-8.528s1.256-6.249,3.533-8.526l15.859-15.859,11.316-11.316,37.75-37.75,8.001-8.001-8.001-8.001-37.753-37.753-11.316-11.316-15.855-15.855c-4.702-4.704-4.702-12.356,0-17.06,2.279-2.277,5.308-3.531,8.53-3.531s6.249,1.254,8.528,3.531l26.784,26.784,8.235,8.235,29.905,29.906,8.001,8.001,7.855-7.855,.145-.145,11.171-11.171,53.753-53.754c2.279-2.277,5.308-3.531,8.528-3.531s6.251,1.254,8.53,3.531c4.702,4.704,4.702,12.356,0,17.06l-12.717,12.717-7.297,7.297-14.436,14.435-7.299,7.299-23.176,23.175-5.887,5.887-2.113,2.113,2.113,2.113,5.888,5.888,23.175,23.176,7.299,7.298,14.437,14.437,7.297,7.297,12.717,12.717v.002c2.277,2.277,3.533,5.306,3.533,8.526s-1.256,6.251-3.534,8.53Z"/></g></svg>