<?xml version="1.0" encoding="UTF-8"?><svg id="Layer_1" xmlns="http://www.w3.org/2000/svg" viewBox="0 0 1435.815 385.651"><defs><style>.cls-1{fill:none;stroke:#151f33;stroke-miterlimit:10;stroke-width:44.947px;}.cls-2{fill:#6584c2;}.cls-3{fill:#fff;}.cls-4{fill:#4f6ab1;}.cls-5{fill:#3a507d;}</style></defs><g><path class="cls-1" d="M1261.083,22.474H178.003c-65.891,0-122.075,44.95-144.738,108.321-6.88,19.243-10.791,40.117-10.791,62.032,0,94.083,69.632,170.351,155.529,170.351H1261.083"/><path class="cls-1" d="M1257.812,22.474c65.891,0,122.075,44.95,144.738,108.321,6.88,19.243,10.791,40.117,10.791,62.032,0,94.083-69.632,170.351-155.529,170.351"/><path class="cls-4" d="M1405.822,130.794c-22.661-63.372-78.847-108.321-144.738-108.321H178.003c-65.891,0-122.076,44.949-144.737,108.321-6.881,19.242-10.793,40.118-10.793,62.031,0,94.082,69.633,170.352,155.53,170.352H1261.084c85.897,0,155.53-76.269,155.53-170.352,0-21.913-3.912-42.789-10.793-62.031Z"/><path class="cls-5" d="M178.003,333.519H1261.084c65.891,0,122.077-41.039,144.738-98.897,5.159-13.17,8.648-27.18,10.072-41.796,.462,4.881,.721,9.82,.721,14.821,0,20.006-3.912,39.066-10.793,56.634-22.661,57.858-78.847,98.897-144.738,98.897H178.003c-65.891,0-122.076-41.039-144.737-98.897-6.881-17.568-10.793-36.627-10.793-56.634,0-5.001,.259-9.94,.721-14.821,1.424,14.617,4.913,28.626,10.072,41.796,22.661,57.859,78.847,98.897,144.737,98.897Z"/><path class="cls-2" d="M1261.085,52.132H178.004c-65.891,0-122.077,41.039-144.738,98.897-5.159,13.17-8.648,27.18-10.072,41.796-.462-4.881-.721-9.82-.721-14.821,0-20.006,3.912-39.066,10.793-56.634C55.927,63.513,112.113,22.474,178.004,22.474H1261.085c65.891,0,122.076,41.039,144.737,98.897,6.881,17.568,10.793,36.627,10.793,56.634,0,5.001-.259,9.94-.721,14.821-1.424-14.617-4.913-28.626-10.072-41.796-22.661-57.859-78.847-98.897-144.737-98.897Z"/></g><g><path class="cls-3" d="M177.9,229.854l-29.665-74.091h18.594l19.729,51.523h.284l19.729-51.523h18.452l-29.523,74.091h-17.6Z"/><path class="cls-3" d="M269.309,154.202c22.142,0,38.465,16.891,38.465,38.606s-16.323,38.607-38.465,38.607-38.465-16.891-38.465-38.607,16.323-38.606,38.465-38.606Zm20.439,38.606c0-12.916-8.375-22.426-20.439-22.426s-20.581,9.51-20.581,22.426c0,12.774,8.516,22.427,20.581,22.427s20.439-9.652,20.439-22.427Z"/><path class="cls-3" d="M333.181,121.556c5.961,0,10.788,4.826,10.788,10.788s-4.826,10.787-10.788,10.787c-6.103,0-10.645-4.826-10.645-10.787s4.542-10.788,10.645-10.788Zm-8.658,108.298v-74.091h17.742v74.091h-17.742Z"/><path class="cls-3" d="M427.57,217.505c-8.232,9.368-18.168,13.91-30.091,13.91-22.142,0-38.465-16.891-38.465-38.607s16.323-38.606,38.465-38.606c11.781,0,22.284,4.684,29.807,13.626l-12.349,11.923c-5.109-6.245-10.361-9.368-17.458-9.368-12.065,0-20.581,9.51-20.581,22.426,0,12.774,8.516,22.427,20.581,22.427,5.961,0,12.064-2.13,17.316-9.794l12.774,12.064Z"/><path class="cls-3" d="M455.391,199.621c2.129,10.503,9.651,16.322,20.723,16.322,8.09,0,12.916-1.561,20.723-6.955l8.232,11.923c-9.084,7.523-17.458,10.504-29.523,10.504-22.426,0-38.323-16.891-38.323-38.607s16.606-38.606,37.613-38.606c22.852,0,34.774,17.742,34.774,38.891v6.529h-54.22Zm36.762-12.774c-.852-8.942-6.104-17.458-17.175-17.458-10.077,0-17.742,6.246-19.729,17.458h36.904Z"/></g><path class="cls-3" d="M1211.721,241.275c-1.189,0-2.384-.417-3.347-1.267-2.096-1.849-2.295-5.047-.445-7.143,9.757-11.056,15.13-25.275,15.13-40.04s-5.374-28.984-15.131-40.041c-1.85-2.096-1.65-5.293,.445-7.143,2.097-1.848,5.294-1.649,7.143,.446,11.391,12.908,17.664,29.506,17.664,46.738s-6.272,33.831-17.663,46.737c-1,1.133-2.395,1.712-3.796,1.712Z"/><path class="cls-3" d="M1233.133,262.975c-1.189,0-2.384-.417-3.347-1.267-2.096-1.849-2.295-5.047-.445-7.143,15.045-17.049,23.331-38.976,23.331-61.74s-8.286-44.691-23.331-61.741c-1.85-2.095-1.65-5.293,.445-7.143s5.295-1.649,7.143,.446c16.679,18.9,25.864,43.205,25.864,68.438s-9.186,49.537-25.864,68.438c-1,1.133-2.395,1.712-3.796,1.712Z"/><path class="cls-3" d="M1170.41,284.278c-2.515,0-5.026-.694-7.3-2.079l-52.378-31.914c-.457-.278-.933-.42-1.412-.42h-32.937c-8.257,0-14.975-7.357-14.975-16.4v-81.278c0-9.043,6.718-16.4,14.975-16.4h32.937c.48,0,.955-.141,1.412-.419l52.378-31.914c4.389-2.674,9.674-2.775,14.135-.269,5.019,2.819,8.137,8.413,8.137,14.599v150.086c0,6.186-3.117,11.779-8.137,14.599-2.151,1.208-4.494,1.811-6.835,1.811Zm-1.415-11.739c.914,.557,1.8,.578,2.71,.067,1.144-.643,2.366-2.225,2.366-4.737V117.783c0-2.513-1.223-4.095-2.366-4.737-.912-.512-1.798-.488-2.71,.066l-52.378,31.914c-2.224,1.355-4.747,2.071-7.297,2.071h-32.937c-1.986,0-3.664,2.33-3.664,5.089v81.278c0,2.759,1.678,5.09,3.664,5.09h32.937c2.548,0,5.071,.716,7.295,2.069l52.38,31.915Z"/></svg>