<svg width="68" height="68" viewBox="0 0 68 68" fill="none" xmlns="http://www.w3.org/2000/svg">
<path fill-rule="evenodd" clip-rule="evenodd" d="M67.8723 34.1569C67.8723 52.7337 52.8128 67.7932 34.236 67.7932C15.6591 67.7932 0.599609 52.7337 0.599609 34.1569C0.599609 15.58 15.6591 0.520508 34.236 0.520508C52.8128 0.520508 67.8723 15.58 67.8723 34.1569ZM60.6776 49.6928C60.2383 50.2242 59.8147 50.7366 59.7045 50.9267C58.3613 36.0441 28.3342 9.73715 9.74464 15C15.4182 8.64698 25.1438 2.9781 34.3351 2.9781C51.4424 2.9781 65.3103 16.8345 65.3103 33.9276C65.3103 39.104 64.0386 43.9797 61.7925 48.2652C61.6774 48.4833 61.1678 49.0998 60.6776 49.6928ZM3.54233 31.6711L3.54233 31.6711C3.45665 32.678 3.36375 33.7697 3.36375 33.9276C3.36375 51.0207 17.2316 64.8771 34.3389 64.8771C39.0268 64.8771 44.1924 63.5915 48.1729 61.7269C31.7579 61.6179 8.82286 45.2654 3.68354 29.9203C3.68012 30.0519 3.61373 30.832 3.54233 31.6711ZM40.4269 26.5652C53.7186 36.5183 60.5328 49.8676 55.6469 56.3817C50.7609 62.8958 36.025 60.1079 22.7333 50.1549C9.44155 40.2018 2.62733 26.8525 7.51328 20.3384C12.3992 13.8243 27.1352 16.6122 40.4269 26.5652Z" fill="white"/>
</svg>
