<svg width="35" height="39" viewBox="0 0 35 39" fill="none" xmlns="http://www.w3.org/2000/svg">
<g clip-path="url(#clip0_219_5639)">
<path d="M20.2397 1.86018L22.5367 7.04558C23.0791 8.26865 24.3539 9.0025 25.6913 8.85942L31.3493 8.24788C34.0125 7.95941 35.7532 10.9594 34.1701 13.1125L30.8069 17.6863C30.0142 18.7663 30.0142 20.2317 30.8069 21.3117L34.1701 25.8856C35.7532 28.0386 34.0125 31.0387 31.3493 30.7502L25.6913 30.1386C24.3562 29.9933 23.0791 30.7271 22.5367 31.9525L20.2397 37.1379C19.1595 39.5794 15.6804 39.5794 14.598 37.1379L12.3009 31.9525C11.7586 30.7294 10.4837 29.9956 9.14631 30.1386L3.48835 30.7502C0.825105 31.0387 -0.915619 28.0386 0.667493 25.8856L4.03074 21.3117C4.82346 20.2317 4.82346 18.7663 4.03074 17.6863L0.667493 13.1125C-0.915619 10.9594 0.825105 7.95941 3.48835 8.24788L9.14631 8.85942C10.4814 9.0048 11.7586 8.27096 12.3009 7.04558L14.598 1.86018C15.6804 -0.579046 19.1595 -0.579046 20.2397 1.86018Z" fill="white"/>
</g>
<defs>
<clipPath id="clip0_219_5639">
<rect width="35" height="39" fill="white"/>
</clipPath>
</defs>
</svg>
