<svg width="319" height="191" viewBox="0 0 319 191" fill="none" xmlns="http://www.w3.org/2000/svg">
<path d="M304.779 104.015C304.779 101.444 304.654 98.9086 304.404 96.3994C304.645 93.8989 304.779 91.3633 304.779 88.7924C304.779 78.5177 302.747 68.7361 299.174 59.7117C287.394 29.997 258.194 8.92822 223.95 8.92822H93.8096C59.5659 8.92822 30.3657 30.0058 18.5858 59.7117C15.0126 68.7361 12.981 78.5177 12.981 88.7924C12.981 91.3544 13.1146 93.8901 13.3552 96.3994C13.1057 98.8998 12.981 101.444 12.981 104.015C12.981 104.667 12.9899 105.318 13.0077 105.97C13.0255 106.595 13.0433 107.211 13.079 107.827C13.079 107.836 13.079 107.836 13.079 107.845C14.8255 144.339 41.3525 174.415 76.3982 182.013C76.5586 182.048 76.7101 182.083 76.8704 182.118C77.2447 182.198 77.6279 182.277 78.011 182.347C78.2249 182.391 78.4387 182.427 78.6526 182.471C79.1248 182.559 79.606 182.647 80.0783 182.726C80.4793 182.796 80.8803 182.858 81.2812 182.92C81.5575 182.964 81.8337 182.999 82.1188 183.043C82.4485 183.087 82.7871 183.14 83.1168 183.184C83.3842 183.219 83.6515 183.254 83.9277 183.281C84.302 183.325 84.6762 183.369 85.0505 183.404C85.2821 183.43 85.5049 183.457 85.7366 183.474C86.3247 183.536 86.9128 183.589 87.5098 183.633C87.6613 183.642 87.8128 183.65 87.9642 183.659C88.4365 183.694 88.9088 183.721 89.381 183.747C89.5949 183.756 89.8087 183.765 90.0226 183.782C90.4592 183.8 90.8959 183.818 91.3325 183.835C91.5285 183.844 91.7335 183.844 91.9295 183.853C92.5443 183.87 93.1503 183.879 93.7651 183.879C93.7829 183.879 93.7918 183.879 93.8007 183.879H223.932C223.95 183.879 223.959 183.879 223.968 183.879C224.583 183.879 225.197 183.87 225.803 183.853C225.999 183.844 226.204 183.844 226.4 183.835C226.837 183.826 227.274 183.809 227.71 183.782C227.924 183.774 228.138 183.765 228.352 183.747C228.824 183.721 229.296 183.694 229.769 183.659C229.92 183.65 230.072 183.642 230.223 183.633C230.811 183.589 231.408 183.536 231.996 183.474C232.228 183.448 232.451 183.43 232.682 183.404C233.057 183.36 233.431 183.325 233.805 183.281C234.073 183.245 234.34 183.21 234.607 183.184C234.946 183.14 235.275 183.096 235.605 183.043C235.881 182.999 236.158 182.964 236.443 182.92C236.844 182.858 237.245 182.788 237.646 182.726C238.118 182.647 238.599 182.559 239.071 182.471C239.285 182.427 239.499 182.391 239.713 182.347C240.096 182.277 240.47 182.198 240.845 182.118C241.005 182.083 241.165 182.048 241.317 182.013C276.371 174.406 302.899 144.33 304.636 107.845C304.636 107.836 304.636 107.836 304.636 107.827C304.663 107.211 304.69 106.595 304.707 105.97C304.77 105.327 304.779 104.675 304.779 104.015ZM304.039 93.3795C304.057 93.5379 304.084 93.6876 304.101 93.8461C304.084 93.6876 304.066 93.5379 304.039 93.3795ZM300.083 77.3819C300.109 77.47 300.145 77.5493 300.172 77.6373C300.145 77.5493 300.118 77.4612 300.083 77.3819ZM301.758 82.5677C301.785 82.6734 301.82 82.779 301.847 82.8935C301.82 82.7878 301.794 82.6822 301.758 82.5677ZM17.6769 77.3732C17.6501 77.4612 17.6145 77.5404 17.5878 77.6285C17.6145 77.5492 17.6412 77.4612 17.6769 77.3732ZM16.0017 82.5677C15.9749 82.6734 15.9393 82.779 15.9126 82.8935C15.9393 82.7878 15.9749 82.6822 16.0017 82.5677ZM14.674 87.9119C14.6472 88.044 14.6205 88.1761 14.5938 88.2993C14.6205 88.1673 14.6472 88.0352 14.674 87.9119Z" fill="#00976F"/>
<path d="M312.316 60.7383C299.478 25.2971 267.655 0.167969 230.336 0.167969H88.5169C51.1976 0.167969 19.3748 25.3076 6.53692 60.7383C2.64282 71.5019 0.428711 83.1686 0.428711 95.4234C0.428711 148.034 39.8649 190.679 88.5169 190.679H230.336C278.988 190.679 318.424 148.034 318.424 95.4234C318.434 83.1791 316.22 71.5019 312.316 60.7383Z" fill="white"/>
<path d="M299.183 63.8216C287.412 31.5307 258.234 8.63525 224.016 8.63525H93.984C59.7663 8.63525 30.5883 31.5402 18.8174 63.8216C15.2469 73.6284 13.2168 84.2581 13.2168 95.4235C13.2168 143.358 49.3755 182.212 93.984 182.212H224.016C268.625 182.212 304.784 143.358 304.784 95.4235C304.792 84.2676 302.762 73.6284 299.183 63.8216Z" fill="url(#paint0_linear_33_4458)"/>
<path d="M137.427 133.201C137.427 136.265 136.242 139.338 133.872 141.671C129.14 146.355 121.459 146.355 116.719 141.671L78.0378 103.452C73.2973 98.7764 73.2973 91.1871 78.0378 86.5032C82.7693 81.8193 90.4503 81.8193 95.1908 86.5032L133.872 124.723C136.242 127.074 137.427 130.137 137.427 133.201Z" fill="#FEFAF7"/>
<path d="M137.427 56.762C137.427 59.8259 136.242 62.8986 133.872 65.2318L95.1908 103.451C90.4593 108.135 82.7783 108.135 78.0378 103.451C73.2973 98.7763 73.2973 91.187 78.0378 86.5031L116.719 48.2834C121.451 43.5995 129.132 43.5995 133.872 48.2834C136.242 50.6254 137.427 53.6893 137.427 56.762Z" fill="#FEFAF7"/>
<path d="M239.428 94.9816C239.428 102.633 233.146 108.84 225.403 108.84H99.5839C96.4474 108.84 93.8989 106.322 93.8989 103.222V86.7407C93.8989 83.6416 96.4474 81.1235 99.5839 81.1235H225.394C233.146 81.1235 239.428 87.3306 239.428 94.9816Z" fill="#FEFAF7"/>
<defs>
<linearGradient id="paint0_linear_33_4458" x1="159" y1="44.1973" x2="159" y2="172.051" gradientUnits="userSpaceOnUse">
<stop stop-color="#1E72B9"/>
<stop offset="1" stop-color="#253F7D"/>
</linearGradient>
</defs>
</svg>
