<?xml version="1.0" encoding="UTF-8"?><svg id="Layer_1" xmlns="http://www.w3.org/2000/svg" viewBox="0 0 1435.815 385.651"><defs><style>.cls-1{fill:#6584c2;}.cls-2{fill:#fff;}.cls-3,.cls-4{fill:none;}.cls-5{fill:#4f6ab1;}.cls-4{stroke:#151f33;stroke-miterlimit:10;stroke-width:44.947px;}.cls-6{fill:#3a507d;}</style></defs><path class="cls-4" d="M1261.083,22.474H178.003c-65.891,0-122.075,44.95-144.738,108.321-6.88,19.243-10.791,40.117-10.791,62.032,0,94.083,69.632,170.351,155.529,170.351H1261.083"/><path class="cls-4" d="M1257.812,22.474c65.891,0,122.075,44.95,144.738,108.321,6.88,19.243,10.791,40.117,10.791,62.032,0,94.083-69.632,170.351-155.529,170.351"/><path class="cls-5" d="M1405.822,130.794c-22.661-63.372-78.847-108.321-144.738-108.321H178.003c-65.891,0-122.076,44.949-144.737,108.321-6.881,19.242-10.793,40.118-10.793,62.031,0,94.082,69.633,170.352,155.53,170.352H1261.084c85.897,0,155.53-76.269,155.53-170.352,0-21.913-3.912-42.789-10.793-62.031Z"/><path class="cls-6" d="M178.003,333.519H1261.084c65.891,0,122.077-41.039,144.738-98.897,5.159-13.17,8.648-27.18,10.072-41.796,.462,4.881,.721,9.82,.721,14.821,0,20.006-3.912,39.066-10.793,56.634-22.661,57.858-78.847,98.897-144.738,98.897H178.003c-65.891,0-122.076-41.039-144.737-98.897-6.881-17.568-10.793-36.627-10.793-56.634,0-5.001,.259-9.94,.721-14.821,1.424,14.617,4.913,28.626,10.072,41.796,22.661,57.859,78.847,98.897,144.737,98.897Z"/><path class="cls-1" d="M1261.085,52.132H178.004c-65.891,0-122.077,41.039-144.738,98.897-5.159,13.17-8.648,27.18-10.072,41.796-.462-4.881-.721-9.82-.721-14.821,0-20.006,3.912-39.066,10.793-56.634C55.927,63.513,112.113,22.474,178.004,22.474H1261.085c65.891,0,122.076,41.039,144.737,98.897,6.881,17.568,10.793,36.627,10.793,56.634,0,5.001-.259,9.94-.721,14.821-1.424-14.617-4.913-28.626-10.072-41.796-22.661-57.859-78.847-98.897-144.737-98.897Z"/><g><path class="cls-2" d="M207.615,216.31c-8.411,9.572-18.562,14.213-30.744,14.213-22.623,0-39.3-17.258-39.3-39.445s16.677-39.446,39.3-39.446c12.037,0,22.768,4.786,30.454,13.922l-12.617,12.182c-5.221-6.381-10.586-9.572-17.837-9.572-12.327,0-21.028,9.716-21.028,22.914,0,13.051,8.701,22.912,21.028,22.912,6.091,0,12.327-2.175,17.692-10.006l13.052,12.326Z"/><path class="cls-2" d="M256.779,151.632c22.623,0,39.3,17.257,39.3,39.446s-16.677,39.445-39.3,39.445-39.3-17.258-39.3-39.445,16.677-39.446,39.3-39.446Zm20.883,39.446c0-13.197-8.556-22.914-20.883-22.914s-21.028,9.716-21.028,22.914c0,13.051,8.701,22.912,21.028,22.912s20.883-9.861,20.883-22.912Z"/><path class="cls-2" d="M313.192,228.927v-75.7h11.747l3.48,12.327c3.19-5.656,11.747-13.922,23.928-13.922,15.952,0,27.844,8.266,27.844,32.919v44.376h-17.982v-41.91c0-13.053-6.091-18.563-15.082-18.563-9.426,0-15.807,7.542-15.807,19.432v41.041h-18.127Z"/><path class="cls-2" d="M401.946,228.927v-75.7h11.747l3.48,12.327c3.19-5.656,11.747-13.922,23.928-13.922,15.952,0,27.844,8.266,27.844,32.919v44.376h-17.982v-41.91c0-13.053-6.091-18.563-15.082-18.563-9.426,0-15.807,7.542-15.807,19.432v41.041h-18.127Z"/><path class="cls-2" d="M503.607,198.038c2.175,10.73,9.861,16.677,21.173,16.677,8.266,0,13.197-1.595,21.173-7.106l8.411,12.182c-9.281,7.687-17.837,10.732-30.164,10.732-22.913,0-39.155-17.258-39.155-39.445s16.967-39.446,38.43-39.446c23.348,0,35.53,18.127,35.53,39.735v6.672h-55.397Zm37.56-13.053c-.87-9.136-6.236-17.837-17.547-17.837-10.296,0-18.127,6.381-20.158,17.837h37.705Z"/><path class="cls-2" d="M640.652,216.31c-8.411,9.572-18.562,14.213-30.744,14.213-22.623,0-39.3-17.258-39.3-39.445s16.677-39.446,39.3-39.446c12.037,0,22.768,4.786,30.454,13.922l-12.617,12.182c-5.221-6.381-10.586-9.572-17.837-9.572-12.327,0-21.028,9.716-21.028,22.914,0,13.051,8.701,22.912,21.028,22.912,6.091,0,12.327-2.175,17.692-10.006l13.052,12.326Z"/><path class="cls-2" d="M701.997,225.302c-6.526,4.35-13.777,5.221-18.562,5.221-15.807,0-25.523-8.412-25.523-27.119v-33.645h-9.571v-16.242h10.296v-16.387h17.402v16.387h23.203v16.242h-23.203v33.645c0,8.121,2.61,10.586,8.266,10.586,4.206,0,7.251-1.015,11.747-3.189l5.946,14.502Z"/></g><g><polygon class="cls-3" points="1186.671 186.093 1178.63 175.375 1125.417 104.447 1095.925 104.447 1162.256 193.05 1170.212 203.678 1226.574 278.965 1256.361 278.983 1186.671 186.093"/><path class="cls-2" d="M1195.4,176.766l79.835-85.296h-18.875l-69.017,74.499-55.586-74.499h-61.048l82.684,111.145-82.684,89.252h16.958l73.614-78.649,58.509,78.649h61.49l-85.881-115.101Zm-25.188,26.911l-7.956-10.627-66.331-88.603h29.492l53.213,70.928,8.041,10.717,69.69,92.891-29.787-.018-56.362-75.287Z"/></g></svg>