<?xml version="1.0" encoding="UTF-8"?><svg id="Layer_1" xmlns="http://www.w3.org/2000/svg" viewBox="0 0 1434.844 385.39"><defs><style>.cls-1{fill:#6584c2;}.cls-2{fill:#fff;}.cls-3{fill:#4f6ab1;}.cls-4{fill:#3a507d;}.cls-5{fill:none;stroke:#151f33;stroke-miterlimit:10;stroke-width:44.917px;}</style></defs><g><path class="cls-5" d="M1260.23,22.458H177.883c-65.847,0-121.993,44.92-144.64,108.248-6.876,19.23-10.784,40.09-10.784,61.99,0,94.019,69.585,170.235,155.424,170.235H1260.23"/><path class="cls-5" d="M1256.961,22.458c65.847,0,121.993,44.92,144.64,108.248,6.876,19.23,10.784,40.09,10.784,61.99,0,94.019-69.585,170.235-155.424,170.235"/><path class="cls-3" d="M1404.871,130.706c-22.646-63.329-78.794-108.248-144.64-108.248H177.883c-65.846,0-121.993,44.919-144.639,108.248-6.876,19.229-10.785,40.091-10.785,61.989,0,94.019,69.586,170.237,155.425,170.237H1260.231c85.839,0,155.425-76.218,155.425-170.237,0-21.898-3.909-42.76-10.785-61.989Z"/><path class="cls-4" d="M177.883,333.293H1260.231c65.846,0,121.994-41.011,144.64-98.83,5.155-13.161,8.642-27.161,10.065-41.768,.461,4.877,.721,9.813,.721,14.811,0,19.993-3.909,39.039-10.785,56.595-22.646,57.819-78.794,98.83-144.64,98.83H177.883c-65.846,0-121.993-41.011-144.639-98.83-6.876-17.556-10.785-36.603-10.785-56.595,0-4.998,.259-9.934,.721-14.811,1.423,14.607,4.91,28.607,10.065,41.768,22.646,57.819,78.793,98.83,144.639,98.83Z"/><path class="cls-1" d="M1260.232,52.097H177.883c-65.846,0-121.994,41.011-144.64,98.83-5.155,13.161-8.642,27.161-10.065,41.768-.461-4.877-.721-9.813-.721-14.811,0-19.993,3.909-39.039,10.785-56.595C55.889,63.47,112.037,22.458,177.883,22.458H1260.232c65.846,0,121.993,41.011,144.639,98.83,6.876,17.556,10.785,36.603,10.785,56.595,0,4.998-.259,9.934-.721,14.811-1.423-14.607-4.91-28.607-10.065-41.768-22.646-57.819-78.793-98.83-144.639-98.83Z"/></g><path class="cls-2" d="M1233.792,245.256c-15.56,0-28.219-12.658-28.219-28.219v-1.209c0-15.56,12.659-28.219,28.219-28.219h38.167v-40.967c0-8.103-6.569-14.672-14.672-14.672h-189.753v169.145h189.753c8.103,0,14.672-6.569,14.672-14.672v-41.187h-38.167Z"/><path class="cls-2" d="M1237.237,196.15c-11.028,0-20,8.972-20,20v1.455c0,11.028,8.972,20,20,20h45.924v-41.455h-45.924Zm4.989,30.354c-5.316,0-9.626-4.31-9.626-9.626s4.31-9.626,9.626-9.626,9.626,4.31,9.626,9.626-4.31,9.626-9.626,9.626Z"/><path class="cls-2" d="M1230.411,88.24l16.16,35.706h-134.085l95.754-43.99c8.409-3.863,18.355-.147,22.171,8.284Z"/><g><path class="cls-2" d="M207.476,225.159c-8.406,9.566-18.551,14.203-30.725,14.203-22.609,0-39.275-17.246-39.275-39.42s16.667-39.42,39.275-39.42c12.029,0,22.754,4.782,30.435,13.913l-12.609,12.174c-5.218-6.377-10.58-9.565-17.826-9.565-12.319,0-21.014,9.71-21.014,22.899,0,13.044,8.696,22.898,21.014,22.898,6.087,0,12.319-2.174,17.681-10l13.044,12.319Z"/><path class="cls-2" d="M256.604,160.521c22.609,0,39.275,17.246,39.275,39.42s-16.667,39.42-39.275,39.42-39.275-17.246-39.275-39.42,16.667-39.42,39.275-39.42Zm20.87,39.42c0-13.189-8.551-22.899-20.87-22.899s-21.014,9.71-21.014,22.899c0,13.044,8.696,22.898,21.014,22.898s20.87-9.855,20.87-22.898Z"/><path class="cls-2" d="M312.978,237.768v-75.652h11.739l3.478,12.319c3.188-5.652,11.739-13.913,23.913-13.913,15.942,0,27.826,8.261,27.826,32.898v44.348h-17.97v-41.885c0-13.043-6.087-18.551-15.073-18.551-9.42,0-15.797,7.536-15.797,19.421v41.015h-18.116Z"/><path class="cls-2" d="M401.672,237.768v-75.652h11.739l3.478,12.319c3.188-5.652,11.739-13.913,23.913-13.913,15.942,0,27.826,8.261,27.826,32.898v44.348h-17.97v-41.885c0-13.043-6.087-18.551-15.073-18.551-9.42,0-15.797,7.536-15.797,19.421v41.015h-18.116Z"/><path class="cls-2" d="M503.265,206.898c2.174,10.724,9.855,16.667,21.16,16.667,8.261,0,13.189-1.595,21.16-7.102l8.405,12.175c-9.275,7.68-17.826,10.724-30.145,10.724-22.898,0-39.131-17.246-39.131-39.42s16.956-39.42,38.406-39.42c23.333,0,35.508,18.116,35.508,39.71v6.668h-55.363Zm37.536-13.044c-.869-9.13-6.232-17.826-17.535-17.826-10.29,0-18.116,6.377-20.145,17.826h37.68Z"/><path class="cls-2" d="M640.219,225.159c-8.405,9.566-18.551,14.203-30.724,14.203-22.608,0-39.275-17.246-39.275-39.42s16.667-39.42,39.275-39.42c12.029,0,22.753,4.782,30.435,13.913l-12.609,12.174c-5.217-6.377-10.58-9.565-17.826-9.565-12.319,0-21.014,9.71-21.014,22.899,0,13.044,8.696,22.898,21.014,22.898,6.087,0,12.319-2.174,17.682-10l13.042,12.319Z"/><path class="cls-2" d="M701.521,234.145c-6.521,4.348-13.767,5.217-18.551,5.217-15.797,0-25.506-8.405-25.506-27.101v-33.623h-9.566v-16.232h10.291v-16.377h17.39v16.377h23.189v16.232h-23.189v33.623c0,8.116,2.609,10.58,8.261,10.58,4.203,0,7.246-1.014,11.739-3.189l5.942,14.493Z"/></g></svg>