<?xml version="1.0" encoding="UTF-8"?><svg id="Layer_1" xmlns="http://www.w3.org/2000/svg" viewBox="0 0 985.132 1582.384"><defs><style>.cls-1{fill:none;stroke:#122033;stroke-miterlimit:10;stroke-width:6.808px;}.cls-2{fill:#fff;}.cls-3{fill:#d8d8d8;}.cls-4{fill:#3b519f;}.cls-5{fill:#7094cd;}.cls-6{fill:#1e2c4c;}.cls-7{fill:#839ecd;}.cls-8{fill:#2a3b6b;}</style></defs><path class="cls-3" d="M928.974,423.706H426.736c-31.016,0-56.159-25.143-56.159-56.158v-59.647c.089-1.468,.22-2.987,.22-4.345V64.838C370.798,29.029,339.364,0,303.555,0H64.837C29.028,0,0,29.029,0,64.838v238.718c0,.923,.099,1.98,.137,2.956V1526.226c0,31.015,25.143,56.158,56.158,56.158H928.974c31.016,0,56.158-25.142,56.158-56.158V479.863c0-31.015-25.142-56.157-56.158-56.157Z"/><path class="cls-2" d="M911.968,444.617H409.73c-31.016,0-56.159-25.143-56.159-56.158V71.995c0-35.809-29.028-64.838-64.837-64.838H84.415C48.605,7.157,19.577,36.186,19.577,71.995v204.319c0,.881,.097,1.89,.131,2.818-.04,.777-.131,1.424-.131,2.304V1498.148c0,31.015,25.143,56.157,56.158,56.157H911.968c31.016,0,56.158-25.142,56.158-56.157V500.774c0-31.015-25.142-56.157-56.158-56.157Z"/><path class="cls-4" d="M299.034,108.37c-3.76-9.754-13.083-16.672-24.016-16.672H95.303c-10.933,0-20.256,6.918-24.016,16.672-1.142,2.962-1.791,6.175-1.791,9.547,0,14.48,11.554,26.219,25.807,26.219h179.715c14.253,0,25.807-11.739,25.807-26.219,0-3.373-.649-6.586-1.791-9.547Z"/><path class="cls-1" d="M299.18,108.102c-3.762-9.606-13.091-16.42-24.032-16.42H95.319c-10.94,0-20.269,6.814-24.032,16.42-1.142,2.917-1.792,6.081-1.792,9.403,0,14.262,11.561,25.823,25.823,25.823h179.829c14.262,0,25.824-11.561,25.824-25.823,0-3.322-.649-6.486-1.792-9.403Z"/><path class="cls-4" d="M299.268,174.759c-3.762-9.606-13.091-16.42-24.031-16.42H95.407c-10.94,0-20.269,6.814-24.031,16.42-1.143,2.917-1.792,6.081-1.792,9.403,0,14.262,11.561,25.823,25.823,25.823h179.829c14.262,0,25.823-11.562,25.823-25.823,0-3.322-.649-6.486-1.792-9.403Z"/><path class="cls-4" d="M299.268,243.442c-3.762-9.606-13.091-16.42-24.031-16.42H95.407c-10.94,0-20.269,6.814-24.031,16.42-1.143,2.917-1.792,6.081-1.792,9.403,0,14.262,11.561,25.823,25.823,25.823h179.829c14.262,0,25.823-11.562,25.823-25.823,0-3.322-.649-6.486-1.792-9.403Z"/><g><path class="cls-8" d="M275.115,124.523H95.286c-10.94,0-20.269-6.814-24.031-16.42-1.143,2.917-1.792,6.081-1.792,9.403,0,14.262,11.561,25.823,25.823,25.823h179.829c14.262,0,25.823-11.562,25.823-25.823,0-3.322-.649-6.486-1.792-9.403-3.762,9.606-13.091,16.42-24.031,16.42Z"/><path class="cls-4" d="M95.286,124.523h179.829c10.94,0,20.269-6.814,24.031-16.42-3.762-9.606-13.091-16.42-24.031-16.42H95.286c-10.94,0-20.269,6.814-24.031,16.42,3.762,9.606,13.091,16.42,24.031,16.42Z"/><g><line class="cls-5" x1="186.698" y1="102.773" x2="270.007" y2="102.773"/><path class="cls-7" d="M270.008,106.493h-83.31c-2.055,0-3.72-1.666-3.72-3.72s1.665-3.72,3.72-3.72h83.31c2.055,0,3.72,1.666,3.72,3.72s-1.665,3.72-3.72,3.72Z"/></g></g><path class="cls-1" d="M299.18,174.759c-3.762-9.606-13.091-16.42-24.032-16.42H95.319c-10.94,0-20.269,6.814-24.032,16.42-1.142,2.917-1.792,6.081-1.792,9.403,0,14.262,11.561,25.823,25.823,25.823h179.829c14.262,0,25.824-11.561,25.824-25.823,0-3.322-.649-6.486-1.792-9.403Z"/><g><path class="cls-8" d="M275.148,191.179H95.319c-10.94,0-20.269-6.814-24.031-16.42-1.143,2.917-1.792,6.081-1.792,9.403,0,14.262,11.561,25.823,25.823,25.823h179.829c14.262,0,25.823-11.562,25.823-25.823,0-3.322-.649-6.486-1.792-9.403-3.762,9.606-13.091,16.42-24.031,16.42Z"/><path class="cls-4" d="M95.319,191.179h179.829c10.94,0,20.269-6.814,24.031-16.42-3.762-9.606-13.091-16.42-24.031-16.42H95.319c-10.94,0-20.269,6.814-24.031,16.42,3.762,9.606,13.091,16.42,24.031,16.42Z"/><g><line class="cls-5" x1="186.731" y1="169.429" x2="270.04" y2="169.43"/><path class="cls-7" d="M270.04,173.149h-111.306c-2.055,0-3.72-1.666-3.72-3.72s1.665-3.72,3.72-3.72h111.306c2.055,0,3.72,1.666,3.72,3.72s-1.665,3.72-3.72,3.72Z"/></g></g><path class="cls-1" d="M299.18,243.442c-3.762-9.606-13.091-16.42-24.032-16.42H95.319c-10.94,0-20.269,6.814-24.032,16.42-1.142,2.917-1.792,6.081-1.792,9.403,0,14.262,11.561,25.823,25.823,25.823h179.829c14.262,0,25.824-11.561,25.824-25.823,0-3.322-.649-6.486-1.792-9.403Z"/><g><path class="cls-8" d="M93.531,270.757h183.965c9.95,0,18.587-5.497,23.088-13.598,.237-1.406,.389-2.841,.389-4.314,0-3.322-.649-6.486-1.792-9.403-3.762,9.606-13.091,16.42-24.031,16.42H95.319c-10.94,0-20.269-6.814-24.031-16.42-1.143,2.917-1.792,6.081-1.792,9.403,0,.942,.057,1.869,.155,2.785,4.223,8.933,13.314,15.127,23.879,15.127Z"/><path class="cls-6" d="M95.319,278.668h179.829c12.789,0,23.378-9.306,25.435-21.51-4.501,8.101-13.137,13.598-23.088,13.598H93.531c-10.566,0-19.656-6.194-23.879-15.127,1.39,12.951,12.348,23.039,25.668,23.039Z"/><path class="cls-6" d="M95.319,209.986h179.829c12.789,0,23.378-9.306,25.435-21.51-4.501,8.101-13.137,13.598-23.088,13.598H93.531c-10.566,0-19.656-6.194-23.879-15.127,1.39,12.951,12.348,23.039,25.668,23.039Z"/><path class="cls-6" d="M95.319,143.329h179.829c12.789,0,23.378-9.306,25.435-21.51-4.501,8.101-13.137,13.598-23.088,13.598H93.531c-10.566,0-19.656-6.194-23.879-15.127,1.39,12.951,12.348,23.039,25.668,23.039Z"/></g><path class="cls-4" d="M95.319,259.862h179.829c10.94,0,20.269-6.814,24.031-16.42-3.762-9.606-13.091-16.42-24.031-16.42H95.319c-10.94,0-20.269,6.814-24.031,16.42,3.762,9.606,13.091,16.42,24.031,16.42Z"/><g><line class="cls-5" x1="186.731" y1="238.112" x2="270.04" y2="238.112"/><path class="cls-7" d="M270.04,241.832h-83.31c-2.055,0-3.72-1.666-3.72-3.72s1.665-3.72,3.72-3.72h83.31c2.055,0,3.72,1.666,3.72,3.72s-1.665,3.72-3.72,3.72Z"/></g></svg>