<?xml version="1.0" encoding="UTF-8"?><svg id="Layer_1" xmlns="http://www.w3.org/2000/svg" xmlns:xlink="http://www.w3.org/1999/xlink" viewBox="0 0 1476.222 2786.86"><defs><style>.cls-1,.cls-2{opacity:.28;}.cls-2,.cls-3{fill:#8a6bad;}.cls-4{fill:url(#radial-gradient);}.cls-5{fill:url(#radial-gradient-2);}.cls-6{fill:url(#radial-gradient-3);}.cls-7{fill:url(#linear-gradient);}</style><radialGradient id="radial-gradient" cx="738.111" cy="2262.694" fx="738.111" fy="2262.694" r="640.14" gradientTransform="matrix(1, 0, 0, 1, 0, 0)" gradientUnits="userSpaceOnUse"><stop offset="0" stop-color="#fcfbf7"/><stop offset="0" stop-color="#a2a0ac"/><stop offset="0" stop-color="#5b5971"/><stop offset="0" stop-color="#2f2c4c"/><stop offset="0" stop-color="#1f1c3f"/></radialGradient><radialGradient id="radial-gradient-2" cy="262.906" fy="262.906" r="529.258" gradientTransform="translate(0 -569.278) scale(1 4.104)" xlink:href="#radial-gradient"/><radialGradient id="radial-gradient-3" cx="698.037" cy="1387.3" fx="698.037" fy="1387.3" r="639.39" gradientTransform="translate(40.075 -50.812)" gradientUnits="userSpaceOnUse"><stop offset=".069" stop-color="#fcfbf7"/><stop offset=".342" stop-color="#a2a0ac"/><stop offset=".578" stop-color="#5b5971"/><stop offset=".747" stop-color="#2f2c4c"/><stop offset=".832" stop-color="#1f1c3f"/></radialGradient><linearGradient id="linear-gradient" x1="738.111" y1="2345.722" x2="738.111" y2="-229.428" gradientTransform="matrix(1, 0, 0, 1, 0, 0)" gradientUnits="userSpaceOnUse"><stop offset="0" stop-color="#951b81" stop-opacity=".11"/><stop offset="1" stop-color="#662483"/></linearGradient></defs><rect class="cls-4" y="1738.529" width="1476.222" height="1048.332"/><rect class="cls-5" width="1476.222" height="1019.146"/><rect class="cls-6" x="215.78" y="598.376" width="1044.663" height="1476.222" transform="translate(2074.598 598.376) rotate(90)"/><rect class="cls-7" x="0" width="1476.222" height="2786.86"/><g class="cls-1"><path class="cls-3" d="M216.162,2003.265c0,9.48-7.685,17.166-17.166,17.166h-46.669c-15.702,0-28.43,12.729-28.43,28.43h0c0,15.702,12.729,28.431,28.43,28.431h208.669c25.478,0,46.133-20.654,46.133-46.133v-29.503c0-15.109-12.249-27.358-27.358-27.358h0c-15.109,0-27.358-12.249-27.358-27.358,0-9.777-7.926-17.702-17.702-17.702h-122.816c-9.48,0-17.166-7.685-17.166-17.166h0c0-9.48,7.685-17.166,17.166-17.166h49.887c15.702,0,28.431-12.729,28.431-28.43h0c0-15.702-12.729-28.431-28.431-28.431h-1.098c-11.554,0-20.921-9.366-20.921-20.921h0c0-11.554,9.367-20.921,20.921-20.921h200.459c15.702,0,28.43-12.729,28.43-28.431s-12.729-28.43-28.43-28.43H0v56.861H27.877c11.554,0,20.92,9.366,20.92,20.92h0c0,11.554-9.366,20.921-20.92,20.921H0v63.318c2.349,2.937,3.762,6.655,3.762,10.708h0c0,4.053-1.413,7.772-3.762,10.708v63.318H198.996c9.48,0,17.166,7.686,17.166,17.166Z"/><path class="cls-3" d="M643.999,992.503h39.453c13.274,0,24.034-10.761,24.034-24.034h0c0-13.274-10.76-24.035-24.034-24.035h-176.404c-21.539,0-38.999,17.461-38.999,38.999v24.942c0,12.773,10.354,23.127,23.127,23.127h0c12.773,0,23.127,10.354,23.127,23.127h0c0,8.265,6.7,14.965,14.965,14.965h103.826c8.014,0,14.511,6.497,14.511,14.511s-6.497,14.511-14.511,14.511h-42.174c-13.274,0-24.034,10.761-24.034,24.034h0c0,13.274,10.76,24.035,24.034,24.035h.928c9.768,0,17.686,7.918,17.686,17.686h0c0,9.768-7.918,17.686-17.686,17.686h-169.463c-13.274,0-24.034,10.761-24.034,24.034s10.76,24.034,24.034,24.034h451.442c13.274,0,24.034-10.76,24.034-24.034s-10.76-24.034-24.034-24.034h-85.169c-9.768,0-17.686-7.918-17.686-17.686h0c0-9.768,7.918-17.686,17.686-17.686h292.049c11.767,0,21.306-9.539,21.306-21.306h0c0-11.767,9.539-21.306,21.306-21.306h30.815c11.274,0,20.414-9.14,20.414-20.414s9.14-20.414,20.414-20.414h163.493c18.157,0,32.877-14.72,32.877-32.877s-14.72-32.877-32.877-32.877h-106.722c-12.022,0-21.767-9.745-21.767-21.767h0c0-12.022-9.745-21.767-21.767-21.767h-269.543c-13.274,0-24.034,10.76-24.034,24.034s10.761,24.034,24.034,24.034h83.426c14.906,0,26.99,12.084,26.99,26.99h0c0,14.906-12.084,26.99-26.99,26.99-4.956,0-8.973,4.017-8.973,8.973v24.667c0,4.955-4.017,8.973-8.973,8.973h-180.582c-8.014,0-14.511-6.497-14.511-14.511s6.497-14.511,14.511-14.511h26.777c13.274,0,24.034-10.761,24.034-24.034h0c0-13.274-10.761-24.035-24.034-24.035h-206.333c-8.015,0-14.511-6.497-14.511-14.511s6.497-14.511,14.511-14.511Z"/><path class="cls-3" d="M22.144,814.124h244.073c9.48,0,17.166,7.685,17.166,17.166s-7.685,17.166-17.166,17.166h-46.669c-15.702,0-28.43,12.729-28.43,28.431s12.729,28.431,28.43,28.431h208.669c25.479,0,46.133-20.654,46.133-46.133h0v-29.503c0-15.109-12.248-27.358-27.358-27.358h0c-15.109,0-27.358-12.248-27.358-27.358,0-9.777-7.926-17.702-17.702-17.702h-122.816c-9.48,0-17.166-7.685-17.166-17.166h0c0-9.48,7.685-17.166,17.166-17.166h49.888c15.702,0,28.43-12.729,28.43-28.431h0c0-15.702-12.729-28.431-28.43-28.431h-1.098c-11.554,0-20.92-9.366-20.92-20.921s9.366-20.921,20.92-20.921h200.459c15.702,0,28.431-12.729,28.431-28.43h0c0-15.702-12.729-28.431-28.431-28.431H0v56.861H95.098c11.554,0,20.921,9.366,20.921,20.921s-9.367,20.921-20.921,20.921H0v56.861H53.818c9.48,0,17.166,7.685,17.166,17.166h0c0,9.48-7.685,17.166-17.166,17.166H22.144c-8.952,0-16.933,4.141-22.144,10.608v35.645c5.211,6.467,13.192,10.608,22.144,10.608Z"/><path class="cls-3" d="M112.452,1588.523c0-15.702-12.729-28.431-28.43-28.431H0v56.861H84.021c15.702,0,28.43-12.729,28.43-28.431Z"/><path class="cls-3" d="M220.176,1445.834c9.48,0,17.166,7.685,17.166,17.166s-7.686,17.166-17.166,17.166h-31.674c-15.702,0-28.431,12.729-28.431,28.431s12.729,28.431,28.431,28.431h244.073c9.48,0,17.166,7.685,17.166,17.166s-7.685,17.166-17.166,17.166h-46.669c-15.702,0-28.43,12.729-28.43,28.431s12.729,28.431,28.43,28.431h208.669c25.478,0,46.133-20.654,46.133-46.132h0v-29.504c0-15.109-12.248-27.358-27.358-27.358h0c-15.109,0-27.358-12.249-27.358-27.358h0c0-9.777-7.926-17.702-17.702-17.702h-122.816c-9.48,0-17.166-7.685-17.166-17.166s7.685-17.166,17.166-17.166h49.887c15.702,0,28.431-12.729,28.431-28.431s-12.729-28.431-28.431-28.431h-1.098c-11.554,0-20.92-9.366-20.92-20.921s9.366-20.921,20.92-20.921h200.459c15.702,0,28.431-12.729,28.431-28.43h0c0-15.702-12.729-28.431-28.431-28.431H160.708c-15.702,0-28.431,12.729-28.431,28.431h0c0,15.702,12.729,28.431,28.431,28.431h100.747c11.554,0,20.921,9.366,20.921,20.921s-9.366,20.921-20.921,20.921H0v59.144c1.807-1.426,4.083-2.283,6.564-2.283H220.176Z"/><path class="cls-3" d="M253.167,25.221h208.669C479.785,25.221,495.327,14.965,502.954,0H224.922c1.595,14.19,13.629,25.221,28.245,25.221Z"/><path class="cls-3" d="M834.902,22.333v10.729h0c0,25.478,20.654,46.133,46.133,46.133h208.669c15.702,0,28.43-12.729,28.43-28.43h0c0-15.702-12.729-28.431-28.43-28.431h-46.669c-9.48,0-17.166-7.685-17.166-17.166,0-1.801,.28-3.536,.795-5.168h-191.524c-.151,1.166-.238,2.352-.238,3.558V22.333Z"/><path class="cls-3" d="M50.71,449.295h0c0-17.972-14.569-32.541-32.541-32.541H0v65.081H18.17c17.972,0,32.541-14.569,32.541-32.541Z"/><path class="cls-3" d="M276.652,344.919h0c0-17.972-14.569-32.541-32.541-32.541h-36.253c-10.851,0-19.647-8.796-19.647-19.647h0c0-10.851,8.796-19.647,19.647-19.647h244.493c6.709,0,12.148,5.439,12.148,12.148v33.396c0,6.709,5.439,12.148,12.148,12.148h0c20.181,0,36.542,16.36,36.542,36.542h0c0,20.181-16.36,36.542-36.542,36.542h-112.952c-17.972,0-32.541,14.569-32.541,32.541h0c0,17.972,14.569,32.541,32.541,32.541h364.939c16.276,0,29.471-13.194,29.471-29.471h0c0-16.276,13.194-29.471,29.471-29.471h144.493c24.584,0,44.513-19.929,44.513-44.513h0c0-24.584-19.929-44.513-44.513-44.513h-221.356c-15.265,0-27.639-12.374-27.639-27.639h0c0-15.265-12.375-27.639-27.639-27.639h-41.721c-15.931,0-28.846-12.915-28.846-28.846h0c0-15.931-12.915-28.846-28.846-28.846H160.611c-13.224,0-23.945-10.721-23.945-23.945h0c0-13.224,10.72-23.945,23.945-23.945h115.312c17.971,0,32.541-14.569,32.541-32.541h0c0-17.972-14.569-32.541-32.541-32.541H0V377.46H244.112c17.972,0,32.541-14.569,32.541-32.541Z"/><path class="cls-3" d="M986.036,218.751h0c0,15.702,12.729,28.431,28.43,28.431h200.459c11.554,0,20.921,9.366,20.921,20.921h0c0,11.554-9.366,20.921-20.921,20.921h-1.098c-15.702,0-28.43,12.729-28.43,28.431h0c0,15.702,12.729,28.431,28.43,28.431h49.887c9.48,0,17.166,7.685,17.166,17.166s-7.685,17.166-17.166,17.166h-122.816c-9.777,0-17.702,7.925-17.702,17.702h0c0,15.109-12.249,27.358-27.358,27.358h0c-15.109,0-27.357,12.248-27.357,27.358v29.503h0c0,25.478,20.654,46.133,46.132,46.133h208.669c15.702,0,28.431-12.729,28.431-28.43h0c0-15.702-12.729-28.431-28.431-28.431h-46.669c-9.48,0-17.166-7.685-17.166-17.166s7.685-17.166,17.166-17.166h199.608v-62.608c-2.712-3.036-4.374-7.028-4.374-11.419s1.662-8.383,4.374-11.419v-62.608h-28.488c-11.554,0-20.921-9.366-20.921-20.921h0c0-11.554,9.366-20.921,20.921-20.921h28.488v-56.861h-461.756c-15.702,0-28.43,12.729-28.43,28.43Z"/><path class="cls-3" d="M1325.973,1314.079c0-11.554,9.366-20.921,20.921-20.921h100.747c15.702,0,28.43-12.729,28.43-28.43h0c0-15.702-12.729-28.431-28.43-28.431H913.626c-15.702,0-28.43,12.729-28.43,28.431h0c0,15.702,12.729,28.431,28.43,28.431h200.459c11.554,0,20.921,9.366,20.921,20.921s-9.366,20.921-20.921,20.921h-1.098c-15.702,0-28.43,12.729-28.43,28.431s12.729,28.431,28.43,28.431h49.887c9.48,0,17.166,7.685,17.166,17.166s-7.685,17.166-17.166,17.166h-122.816c-9.777,0-17.702,7.926-17.702,17.702h0c0,15.109-12.249,27.358-27.358,27.358h0c-15.109,0-27.357,12.248-27.357,27.358v29.503c0,25.478,20.654,46.132,46.132,46.132h208.669c15.702,0,28.431-12.729,28.431-28.431s-12.729-28.43-28.431-28.43h-46.669c-9.48,0-17.166-7.685-17.166-17.166h0c0-9.48,7.685-17.166,17.166-17.166h244.073c15.702,0,28.43-12.729,28.43-28.43h0c0-15.702-12.729-28.431-28.43-28.431h-31.674c-9.48,0-17.166-7.685-17.166-17.166s7.685-17.166,17.166-17.166h88.049v-56.861h-129.329c-11.554,0-20.921-9.366-20.921-20.921Z"/><path class="cls-3" d="M1313.3,620.495h0c0,15.702,12.729,28.431,28.43,28.431h46.669c9.48,0,17.166,7.685,17.166,17.166h0c0,9.48-7.686,17.166-17.166,17.166h-244.073c-15.702,0-28.43,12.729-28.43,28.43h0c0,15.702,12.729,28.431,28.43,28.431h31.674c9.48,0,17.166,7.685,17.166,17.166h0c0,9.48-7.685,17.166-17.166,17.166h-213.612c-5.862,0-10.614-4.752-10.614-10.614v-29.178c0-5.862-4.752-10.614-10.614-10.614-17.632,0-31.926-14.294-31.926-31.926h0c0-17.632,14.294-31.926,31.926-31.926h98.685c15.702,0,28.43-12.729,28.43-28.431h0c0-15.702-12.729-28.431-28.43-28.431h-318.845c-14.22,0-25.748,11.528-25.748,25.748h0c0,14.221-11.528,25.748-25.749,25.748h-126.242c-21.479,0-38.891,17.412-38.891,38.891h0c0,21.479,17.412,38.891,38.891,38.891h193.397c13.337,0,24.148,10.812,24.148,24.148h0c0,13.337,10.812,24.148,24.148,24.148h36.452c13.919,0,25.203,11.284,25.203,25.203s11.284,25.203,25.203,25.203h345.467c11.554,0,20.921,9.366,20.921,20.921s-9.366,20.921-20.921,20.921h-100.747c-15.702,0-28.43,12.729-28.43,28.43h0c0,15.702,12.729,28.431,28.43,28.431h359.689v-56.861h-26.134c-11.554,0-20.921-9.366-20.921-20.921s9.366-20.921,20.921-20.921h1.098c10.823,0,20.233-6.049,25.036-14.95v-26.961c-4.803-8.901-14.212-14.95-25.036-14.95h-49.888c-9.48,0-17.166-7.685-17.166-17.166h0c0-9.48,7.686-17.166,17.166-17.166h74.923v-148.053h-134.491c-15.702,0-28.43,12.729-28.43,28.431Z"/><path class="cls-3" d="M1167.147,1676.596h0c0,17.972,14.569,32.541,32.541,32.541h115.312c13.224,0,23.945,10.72,23.945,23.945s-10.721,23.945-23.945,23.945h-395.409c-15.931,0-28.846,12.915-28.846,28.846s-12.915,28.846-28.846,28.846h-41.722c-15.265,0-27.639,12.374-27.639,27.639h0c0,15.265-12.374,27.639-27.639,27.639h-221.356c-24.584,0-44.513,19.929-44.513,44.513s19.929,44.513,44.513,44.513h144.493c16.276,0,29.471,13.194,29.471,29.47h0c0,16.276,13.194,29.471,29.471,29.471h364.938c17.972,0,32.541-14.569,32.541-32.541h0c0-17.972-14.569-32.541-32.541-32.541h-112.952c-20.181,0-36.542-16.36-36.542-36.542s16.36-36.542,36.542-36.542h0c6.709,0,12.148-5.439,12.148-12.148v-33.396c0-6.709,5.439-12.148,12.148-12.148h244.492c10.851,0,19.647,8.796,19.647,19.647s-8.796,19.647-19.647,19.647h-36.253c-17.972,0-32.541,14.569-32.541,32.541s14.569,32.541,32.541,32.541h244.724v-282.428h-276.535c-17.972,0-32.541,14.569-32.541,32.541Z"/><path class="cls-3" d="M1363.158,39.499h0c0,15.702,12.729,28.431,28.43,28.431h84.633V11.068h-84.633c-15.702,0-28.43,12.729-28.43,28.43Z"/><path class="cls-3" d="M387.508,2484.138h0c0-15.702-12.729-28.431-28.43-28.431h-100.747c-11.554,0-20.92-9.366-20.92-20.921s9.366-20.921,20.92-20.921h345.467c13.919,0,25.203-11.284,25.203-25.203s11.284-25.203,25.203-25.203h36.452c13.336,0,24.148-10.812,24.148-24.148s10.812-24.148,24.148-24.148h193.397c21.479,0,38.891-17.412,38.891-38.891h0c0-21.479-17.412-38.891-38.891-38.891h-126.242c-14.22,0-25.748-11.528-25.748-25.748s-11.528-25.748-25.749-25.748H435.764c-15.702,0-28.431,12.729-28.431,28.43s12.729,28.431,28.431,28.431h98.685c17.633,0,31.926,14.294,31.926,31.926s-14.294,31.926-31.926,31.926h0c-5.862,0-10.614,4.752-10.614,10.614v29.178c0,5.862-4.752,10.614-10.614,10.614h-213.612c-9.48,0-17.166-7.685-17.166-17.166h0c0-9.48,7.685-17.166,17.166-17.166h31.674c15.702,0,28.43-12.729,28.43-28.43s-12.729-28.431-28.43-28.431H87.21c-9.48,0-17.166-7.685-17.166-17.166s7.685-17.166,17.166-17.166h46.669c15.702,0,28.431-12.729,28.431-28.431s-12.729-28.431-28.431-28.431H0v148.053H74.311c9.48,0,17.166,7.685,17.166,17.166h0c0,9.48-7.685,17.166-17.166,17.166H24.424c-10.382,0-19.461,5.568-24.424,13.878v29.105c4.962,8.31,14.041,13.878,24.424,13.878h1.098c11.554,0,20.921,9.367,20.921,20.921s-9.366,20.921-20.921,20.921H0v56.861H359.077c15.702,0,28.43-12.729,28.43-28.43Z"/><path class="cls-3" d="M1053.224,2764.614h-169.463c-9.768,0-17.686-7.918-17.686-17.686h0c0-9.768,7.918-17.686,17.686-17.686h.928c13.274,0,24.034-10.761,24.034-24.034s-10.76-24.035-24.034-24.035h-42.174c-8.014,0-14.511-6.497-14.511-14.511s6.497-14.511,14.511-14.511h103.826c8.265,0,14.965-6.7,14.965-14.965,0-12.773,10.354-23.127,23.127-23.127s23.127-10.355,23.127-23.127v-24.942c0-21.539-17.46-38.999-38.999-38.999h-176.404c-13.274,0-24.035,10.761-24.035,24.034h0c0,13.274,10.761,24.034,24.035,24.034h39.453c8.014,0,14.511,6.497,14.511,14.511s-6.497,14.511-14.511,14.511h-206.333c-13.274,0-24.034,10.76-24.034,24.034s10.76,24.035,24.034,24.035h26.777c8.014,0,14.511,6.497,14.511,14.511s-6.497,14.511-14.511,14.511h-180.582c-4.956,0-8.973-4.017-8.973-8.973v-24.667c0-4.955-4.017-8.973-8.973-8.973-14.906,0-26.99-12.083-26.99-26.99h0c0-14.906,12.083-26.99,26.99-26.99h83.426c13.274,0,24.034-10.76,24.034-24.034s-10.76-24.034-24.034-24.034H267.41c-12.022,0-21.767,9.745-21.767,21.767h0c0,12.022-9.745,21.767-21.767,21.767H117.154c-18.158,0-32.877,14.72-32.877,32.877s14.72,32.877,32.877,32.877h163.493c11.274,0,20.414,9.14,20.414,20.414s9.14,20.414,20.414,20.414h30.815c11.767,0,21.306,9.539,21.306,21.306s9.539,21.306,21.306,21.306h292.049c9.768,0,17.686,7.918,17.686,17.686h0c0,9.768-7.918,17.686-17.686,17.686h-85.169c-12.672,0-23.046,9.809-23.961,22.246h499.365c-.916-12.438-11.29-22.246-23.961-22.246Z"/><path class="cls-3" d="M1424.9,1998.319c0,17.972,14.569,32.541,32.541,32.541h18.782v-65.081h-18.782c-17.971,0-32.541,14.569-32.541,32.541Z"/><path class="cls-3" d="M918.814,2178.355c0,15.702,12.729,28.43,28.43,28.43h200.459c11.554,0,20.921,9.366,20.921,20.921s-9.367,20.92-20.921,20.92h-1.098c-15.702,0-28.431,12.729-28.431,28.431s12.729,28.431,28.431,28.431h49.887c9.48,0,17.166,7.685,17.166,17.166s-7.685,17.166-17.166,17.166h-122.816c-9.777,0-17.702,7.925-17.702,17.702,0,15.109-12.249,27.357-27.358,27.357s-27.358,12.249-27.358,27.358v29.503c0,25.478,20.654,46.132,46.133,46.132h208.669c15.702,0,28.43-12.729,28.43-28.43s-12.729-28.43-28.43-28.43h-46.669c-9.48,0-17.166-7.686-17.166-17.166s7.685-17.166,17.166-17.166h244.074c9.307,0,17.57-4.473,22.756-11.386v-34.088c-5.186-6.913-13.448-11.386-22.756-11.386h-31.674c-9.48,0-17.166-7.685-17.166-17.166s7.685-17.166,17.166-17.166h54.43v-56.861h-95.71c-11.554,0-20.92-9.366-20.92-20.92s9.366-20.921,20.92-20.921h95.71v-56.861H947.245c-15.702,0-28.43,12.729-28.43,28.431Z"/></g><rect class="cls-2" x="620.89" y="798.58" width="124.768" height="23.145" rx="10.705" ry="10.705"/><rect class="cls-2" x="926.809" y="1716.199" width="124.768" height="23.145" rx="10.705" ry="10.705"/></svg>