<?xml version="1.0" encoding="UTF-8"?><svg id="Layer_1" xmlns="http://www.w3.org/2000/svg" viewBox="0 0 885.882 284.686"><defs><style>.cls-1{fill:#fff;}.cls-2{fill:#d5ba47;}.cls-3{fill:#d8d8d8;}.cls-4{fill:#fab537;}.cls-5{stroke:#141f33;stroke-width:9.518px;}.cls-5,.cls-6,.cls-7{stroke-miterlimit:10;}.cls-5,.cls-7{fill:none;}.cls-8{fill:#cc8228;}.cls-6{fill:#7ba7a8;stroke:#462e15;stroke-width:9.73px;}.cls-9{fill:#141f33;}.cls-10{fill:#293a56;}.cls-11{fill:#ffde53;}.cls-12{fill:#f9b667;}.cls-13{fill:#bf7529;}.cls-14{fill:#d68f1e;}.cls-15{fill:#e49723;}.cls-7{stroke:#151f33;stroke-width:27.791px;}</style></defs><path class="cls-7" d="M865.002,102.449c-14.664-37.44-51.022-63.996-93.66-63.996H189.216c-42.638,0-78.995,26.557-93.66,63.996-4.452,11.369-6.983,23.701-6.983,36.649,0,55.584,45.059,100.643,100.643,100.643H771.341c55.585,0,100.645-45.059,100.645-100.643,0-12.947-2.531-25.28-6.984-36.649Z"/><path class="cls-10" d="M865.002,102.449c-14.664-37.44-51.022-63.996-93.66-63.996H189.216c-42.638,0-78.996,26.556-93.66,63.996-4.453,11.368-6.984,23.702-6.984,36.648,0,55.584,45.059,100.644,100.644,100.644H771.342c55.584,0,100.644-45.06,100.644-100.644,0-12.946-2.531-25.28-6.984-36.648Z"/><rect class="cls-9" x="106.393" y="51.956" width="749.446" height="174.282" rx="87.141" ry="87.141"/><g><path class="cls-5" d="M206.831,4.759H77.855C37.485,4.759,4.759,37.485,4.759,77.855V206.831c0,40.37,32.726,73.096,73.096,73.096H206.831c40.37,0,73.096-32.726,73.096-73.096V77.855c0-40.37-32.726-73.096-73.096-73.096Zm58.57,172.387c0,43.859-35.555,79.413-79.413,79.413H98.832c-43.859,0-79.413-35.555-79.413-79.413V89.991C19.419,46.132,54.973,10.578,98.832,10.578h87.156c43.859,0,79.413,35.555,79.413,79.413v87.156Z"/><rect class="cls-5" x="19.419" y="10.578" width="245.982" height="245.982" rx="79.413" ry="79.413"/></g><g><path class="cls-3" d="M206.831,4.759H77.855C37.485,4.759,4.759,37.485,4.759,77.855V206.831c0,40.37,32.726,73.096,73.096,73.096H206.831c40.37,0,73.096-32.726,73.096-73.096V77.855c0-40.37-32.726-73.096-73.096-73.096Zm58.57,172.387c0,43.859-35.555,79.413-79.413,79.413H98.832c-43.859,0-79.413-35.555-79.413-79.413V89.991C19.419,46.132,54.973,10.578,98.832,10.578h87.156c43.859,0,79.413,35.555,79.413,79.413v87.156Z"/><rect class="cls-1" x="19.419" y="10.578" width="245.982" height="245.982" rx="79.413" ry="79.413"/></g><circle class="cls-6" cx="142.343" cy="139.278" r="82.625" transform="translate(-56.793 141.445) rotate(-45)"/><g><path class="cls-4" d="M142.41,221.903c45.633,0,82.625-36.993,82.625-82.625H59.785c0,45.633,36.993,82.625,82.625,82.625Z"/><path class="cls-11" d="M142.41,56.653c-45.633,0-82.625,36.993-82.625,82.625H225.035c0-45.633-36.993-82.625-82.625-82.625Z"/><path class="cls-11" d="M142.41,201.247c34.224,0,61.969-27.744,61.969-61.969H80.441c0,34.224,27.744,61.969,61.969,61.969Z"/><path class="cls-14" d="M142.41,77.309c-34.224,0-61.969,27.744-61.969,61.969h123.938c0-34.224-27.744-61.969-61.969-61.969Z"/><circle class="cls-15" cx="142.231" cy="139.278" r="53.989"/><path class="cls-12" d="M71.265,126.079c-.46,0-.926-.059-1.392-.181-2.912-.766-4.652-3.749-3.885-6.661,9.064-34.435,40.293-58.485,75.944-58.485,16.115,0,31.602,4.846,44.786,14.016,2.472,1.719,3.083,5.117,1.363,7.59-1.719,2.472-5.117,3.082-7.59,1.363-11.348-7.892-24.681-12.063-38.559-12.063-30.701,0-57.593,20.707-65.398,50.356-.644,2.447-2.853,4.066-5.269,4.066Z"/><path class="cls-8" d="M141.932,217.804c-3.011,0-5.453-2.441-5.453-5.453s2.441-5.453,5.453-5.453c9.757,0,19.168-2.031,27.973-6.038,11.205-5.098,20.822-13.174,27.813-23.355,1.704-2.482,5.099-3.113,7.582-1.408,2.482,1.705,3.113,5.099,1.408,7.582-8.113,11.815-19.277,21.189-32.287,27.108-10.233,4.656-21.164,7.017-32.489,7.017Z"/><path class="cls-1" d="M71.265,126.079c-.46,0-.926-.059-1.392-.181-2.912-.766-4.652-3.749-3.885-6.661,9.064-34.435,40.293-58.485,75.944-58.485,3.011,0,5.453,2.441,5.453,5.453s-2.441,5.453-5.453,5.453c-30.701,0-57.593,20.707-65.398,50.356-.644,2.447-2.853,4.066-5.269,4.066Z"/></g><circle class="cls-13" cx="142.41" cy="139.278" r="38.542"/><g><g><path class="cls-2" d="M167.891,115.244c.948,3.357,1.466,6.895,1.466,10.555,0,6.976-1.852,13.516-5.076,19.172,3.664,4.549,6.534,8.818,8.222,12.111,.269-.461,.531-.926,.779-1.4,2.568-4.904,4.021-10.485,4.021-16.405,0-9.279-3.573-17.72-9.412-24.034Z"/><path class="cls-2" d="M113.715,160.723c6.469,8.487,16.68,13.968,28.176,13.968,5.358,0,10.436-1.194,14.988-3.325-6.351-1.078-13.416-3.697-20.273-7.259-1.964,.306-3.975,.468-6.024,.468-6.045,0-11.767-1.385-16.867-3.852Z"/><path class="cls-2" d="M138.155,163.831c12.159,6.262,23.677,7.052,28.109,1.139,3.264-4.356,1.955-11.383-2.725-18.744-5.566,8.961-14.681,15.485-25.384,17.605Z"/><path class="cls-11" d="M167.891,115.244c-6.469-6.995-15.721-11.379-26-11.379-10.509,0-19.943,4.582-26.429,11.851,15.71-4.058,36.653,14.15,48.819,29.255,3.225-5.656,5.076-12.196,5.076-19.172,0-3.661-.518-7.198-1.466-10.555Z"/><path class="cls-11" d="M106.503,138.28c-.009,.332-.025,.663-.025,.998,0,8.063,2.699,15.492,7.237,21.445,5.1,2.468,10.821,3.852,16.867,3.852,2.049,0,4.061-.162,6.024-.468-12.723-6.609-24.726-16.474-30.103-25.827Z"/><path class="cls-11" d="M148.861,130.849c-15.198-11.39-32.047-14.58-37.634-7.126-5.587,7.454,2.205,22.731,17.403,34.121,3.143,2.355,6.356,4.354,9.526,5.987,10.703-2.12,19.818-8.643,25.384-17.605-3.329-5.237-8.361-10.642-14.678-15.377Z"/></g><path class="cls-1" d="M169.358,139.2c-6.071-.409-10.869-5.459-10.869-11.634,0,6.174-4.798,11.225-10.869,11.634,6.071,.409,10.869,5.459,10.869,11.634,0-6.174,4.798-11.225,10.869-11.634Z"/></g></svg>