<?xml version="1.0" encoding="UTF-8"?><svg id="Layer_1" xmlns="http://www.w3.org/2000/svg" viewBox="0 0 735.169 735.169"><defs><style>.cls-1{stroke:#122033;}.cls-1,.cls-2,.cls-3{stroke-miterlimit:10;}.cls-1,.cls-4{fill:#2a3b6b;}.cls-5{fill:#fff;}.cls-6{fill:#d8d8d8;}.cls-2{stroke-width:17.803px;}.cls-2,.cls-3{fill:none;stroke:#1b212b;}.cls-7{fill:#3b519f;}.cls-8{fill:#1b212b;}.cls-9{fill:#1e2c4c;}.cls-10{fill:#839ecd;}.cls-3{stroke-width:15.002px;}</style></defs><g><rect class="cls-6" width="735.169" height="735.169" rx="195.292" ry="195.292"/><rect class="cls-5" x="39.166" y="15.545" width="657.192" height="657.192" rx="212.169" ry="212.169"/></g><g><g><path class="cls-1" d="M627.048,162.9c-.656-6.461-6.112-11.503-12.747-11.503h-79.575c-7.076,0-12.813,5.737-12.813,12.814,0,1.052,.162,2.06,.402,3.039,.104,.427,.237,.842,.382,1.251,.034,.095,.072,.188,.108,.282,.132,.346,.279,.685,.44,1.016,.026,.053,.05,.107,.077,.16,1.048,2.085,2.641,3.842,4.597,5.083l-9.596,38.481H103.943l.172,.68h-1.749l13.989,55.191,3.961,15.624,1.999,7.884,6.791,26.792h0l6.791,26.792,7.735,30.517,1.999,7.884,3.367,13.286,1.455,5.741c5.465,21.56,24.628,36.632,46.576,36.632h240.375c5.473,0,10.772-.938,15.73-2.679,.313,.982,.854,1.906,1.633,2.685l37.174,37.174H148.31c-3.75,0-6.789,3.04-6.789,6.789h0c0,3.75,3.04,6.789,6.789,6.789h68.765c-27.213,.003-49.273,22.064-49.273,49.278s22.062,49.278,49.278,49.278c.264,0,.524-.016,.787-.02,.264,.004,.525,.02,.79,.02,27.215,0,49.278-22.062,49.278-49.278s-22.063-49.278-49.278-49.278c-.264,0-.523,.016-.786,.02-.263-.004-.522-.02-.786-.02h220.755c-27.213,.003-49.273,22.064-49.273,49.278s22.062,49.278,49.278,49.278c.264,0,.524-.016,.787-.02,.264,.004,.525,.02,.79,.02,27.215,0,49.278-22.062,49.278-49.278s-22.063-49.278-49.278-49.278c-.264,0-.523,.016-.786,.02-.263-.004-.522-.02-.786-.02h70.78c2.598,0,4.828-1.475,5.969-3.618,1.776-2.597,1.634-6.115-.673-8.421l-47.886-47.886c9.412-6.505,16.526-16.341,19.518-28.144l1.455-5.741,3.367-13.286,1.999-7.884,7.736-30.517,13.582-53.584,1.999-7.884,3.96-15.624,13.989-55.191,8.888-36.5h73.161l-.188-.06c5.479-.514,9.929-4.491,11.206-9.715,.239-.979,.402-1.986,.402-3.039,0-.442-.022-.879-.066-1.31Z"/><g><circle class="cls-2" cx="218.338" cy="540.582" r="49.278"/><circle class="cls-2" cx="439.102" cy="540.582" r="49.278"/><path class="cls-2" d="M613.982,151.397h-79.574c-7.076,0-12.813,5.737-12.813,12.814,0,1.052,.162,2.06,.402,3.039,.91,3.721,3.447,6.778,6.802,8.434l-9.436,37.841H103.624l13.989,55.191,3.961,15.624,1.999,7.884,13.582,53.584,7.736,30.517,1.999,7.884,3.367,13.286,1.455,5.741c5.465,21.56,24.628,36.632,46.576,36.632h240.375c5.454,0,10.733-.934,15.675-2.663,.259,1.22,.74,2.401,1.688,3.348l37.173,37.174H149.567c-3.749,0-6.789,3.04-6.789,6.789s3.04,6.789,6.789,6.789H508.31c2.597,0,4.827-1.475,5.969-3.618,1.776-2.597,1.634-6.115-.673-8.421l-47.886-47.886c9.412-6.506,16.526-16.341,19.518-28.144l1.455-5.741,3.367-13.286,1.999-7.884,7.736-30.517,13.582-53.584,1.999-7.884,3.961-15.624,13.989-55.191h0l8.888-36.5h71.768c6.025,0,11.042-4.172,12.412-9.774,.239-.979,.402-1.986,.402-3.039,0-7.077-5.736-12.814-12.813-12.814Z"/></g><rect class="cls-4" x="442.522" y="453.237" width="81.433" height="13.342" rx="6.671" ry="6.671" transform="translate(466.741 -206.997) rotate(45)"/><path class="cls-2" d="M498.832,344.501l-7.736,30.517-1.999,7.884-3.367,13.286-1.455,5.741c-5.465,21.56-24.628,36.632-46.576,36.632h-82.976"/><circle class="cls-7" cx="216.761" cy="540.582" r="49.278"/><circle class="cls-7" cx="437.525" cy="540.582" r="49.278"/><g><path class="cls-9" d="M216.761,503.13c-20.684,0-37.451,16.767-37.451,37.451,0,1.257,.067,2.498,.187,3.723,1.87-18.935,17.837-33.728,37.264-33.728s35.394,14.793,37.264,33.728c.121-1.225,.187-2.466,.187-3.723,0-20.684-16.767-37.451-37.451-37.451Z"/><path class="cls-9" d="M437.526,510.577c19.427,0,35.394,14.793,37.263,33.728,.121-1.225,.188-2.466,.188-3.723,0-20.684-16.768-37.451-37.451-37.451s-37.451,16.767-37.451,37.451c0,1.257,.067,2.498,.187,3.723,1.87-18.935,17.837-33.728,37.264-33.728Z"/><path class="cls-4" d="M216.761,510.577c-19.427,0-35.394,14.793-37.264,33.728,1.87,18.935,17.837,33.728,37.264,33.728s35.394-14.793,37.264-33.728c-1.87-18.935-17.837-33.728-37.264-33.728Z"/><path class="cls-4" d="M437.526,578.033c19.427,0,35.394-14.793,37.263-33.728-1.869-18.935-17.836-33.728-37.263-33.728s-35.394,14.793-37.264,33.728c1.87,18.935,17.837,33.728,37.264,33.728Z"/></g><rect class="cls-4" x="141.202" y="477.725" width="372.321" height="13.579" rx="6.789" ry="6.789"/><rect class="cls-4" x="485.639" y="200.935" width="81.433" height="13.342" rx=".302" ry=".302" transform="translate(855.145 -252.88) rotate(104.002)"/><g><polygon class="cls-7" points="366.139 269.394 369.422 214.203 266.221 214.203 269.504 269.394 366.139 269.394"/><polygon class="cls-7" points="259.486 269.394 256.202 214.203 164.128 214.203 175.037 269.394 259.486 269.394"/><polygon class="cls-7" points="460.605 269.394 471.514 214.203 379.44 214.203 376.157 269.394 460.605 269.394"/><polygon class="cls-7" points="169.772 292.902 121.995 292.902 135.578 346.486 180.362 346.486 169.772 292.902"/><polygon class="cls-7" points="187.953 384.887 145.312 384.887 148.679 398.173 190.579 398.173 187.953 384.887"/><polygon class="cls-7" points="361.553 346.486 364.74 292.902 270.903 292.902 274.091 346.486 361.553 346.486"/><polygon class="cls-7" points="517.76 269.394 531.585 214.203 481.425 214.203 470.517 269.394 517.76 269.394"/><polygon class="cls-7" points="260.884 292.902 179.684 292.902 190.275 346.486 264.072 346.486 260.884 292.902"/><polygon class="cls-7" points="371.57 346.486 445.369 346.486 455.959 292.902 374.758 292.902 371.57 346.486"/><polygon class="cls-7" points="154.217 214.203 102.047 214.203 116.036 269.394 165.126 269.394 154.217 214.203"/><polygon class="cls-7" points="455.28 346.486 498.219 346.486 511.801 292.902 465.871 292.902 455.28 346.486"/><polygon class="cls-7" points="276.375 384.887 277.165 398.173 358.478 398.173 359.268 384.887 276.375 384.887"/><polygon class="cls-7" points="369.286 384.887 368.496 398.173 435.152 398.173 437.778 384.887 369.286 384.887"/><polygon class="cls-7" points="197.864 384.887 200.49 398.173 267.146 398.173 266.356 384.887 197.864 384.887"/><polygon class="cls-7" points="445.065 398.173 485.117 398.173 488.484 384.887 447.69 384.887 445.065 398.173"/><polygon class="cls-8" points="361.553 346.486 371.57 346.486 374.758 292.902 364.74 292.902 361.553 346.486"/><polygon class="cls-8" points="376.157 269.394 379.44 214.203 369.422 214.203 366.139 269.394 376.157 269.394"/><polygon class="cls-8" points="359.268 384.887 358.478 398.173 368.496 398.173 369.286 384.887 359.268 384.887"/><polygon class="cls-8" points="445.369 346.486 455.28 346.486 465.871 292.902 455.959 292.902 445.369 346.486"/><polygon class="cls-8" points="435.152 398.173 445.065 398.173 447.69 384.887 437.778 384.887 435.152 398.173"/><polygon class="cls-8" points="470.517 269.394 481.425 214.203 471.514 214.203 460.605 269.394 470.517 269.394"/><polygon class="cls-8" points="266.356 384.887 267.146 398.173 277.165 398.173 276.375 384.887 266.356 384.887"/><polygon class="cls-8" points="270.903 292.902 260.884 292.902 264.072 346.486 274.091 346.486 270.903 292.902"/><polygon class="cls-8" points="269.504 269.394 266.221 214.203 256.202 214.203 259.486 269.394 269.504 269.394"/><polygon class="cls-8" points="187.953 384.887 190.579 398.173 200.49 398.173 197.864 384.887 187.953 384.887"/><polygon class="cls-8" points="447.69 384.887 488.484 384.887 490.483 377.003 449.249 377.003 447.69 384.887"/><polygon class="cls-8" points="196.306 377.003 197.864 384.887 266.356 384.887 265.887 377.003 196.306 377.003"/><polygon class="cls-8" points="369.286 384.887 437.778 384.887 439.337 377.003 369.755 377.003 369.286 384.887"/><polygon class="cls-8" points="275.905 377.003 276.375 384.887 359.268 384.887 359.737 377.003 275.905 377.003"/><polygon class="cls-8" points="186.394 377.003 143.313 377.003 145.312 384.887 187.953 384.887 186.394 377.003"/><polygon class="cls-8" points="359.737 377.003 359.268 384.887 369.286 384.887 369.755 377.003 359.737 377.003"/><polygon class="cls-8" points="437.778 384.887 447.69 384.887 449.249 377.003 439.337 377.003 437.778 384.887"/><polygon class="cls-8" points="265.887 377.003 266.356 384.887 276.375 384.887 275.905 377.003 265.887 377.003"/><polygon class="cls-8" points="196.306 377.003 186.394 377.003 187.953 384.887 197.864 384.887 196.306 377.003"/><polygon class="cls-8" points="168.213 285.018 119.997 285.018 121.995 292.902 169.772 292.902 168.213 285.018"/><polygon class="cls-8" points="374.758 292.902 455.959 292.902 457.518 285.018 375.228 285.018 374.758 292.902"/><polygon class="cls-8" points="465.871 292.902 511.801 292.902 513.8 285.018 467.429 285.018 465.871 292.902"/><polygon class="cls-8" points="364.74 292.902 365.21 285.018 270.433 285.018 270.903 292.902 364.74 292.902"/><polygon class="cls-8" points="260.415 285.018 178.125 285.018 179.684 292.902 260.884 292.902 260.415 285.018"/><polygon class="cls-8" points="374.758 292.902 375.228 285.018 365.21 285.018 364.74 292.902 374.758 292.902"/><polygon class="cls-8" points="455.959 292.902 465.871 292.902 467.429 285.018 457.518 285.018 455.959 292.902"/><polygon class="cls-8" points="270.903 292.902 270.433 285.018 260.415 285.018 260.884 292.902 270.903 292.902"/><path class="cls-9" d="M148.679,398.173l1.455,5.741c5.465,21.56,24.628,36.632,46.577,36.632h2.242l-8.374-42.372h-41.9Z"/><polygon class="cls-9" points="277.165 398.173 279.686 440.546 355.957 440.546 358.478 398.173 277.165 398.173"/><polygon class="cls-9" points="368.496 398.173 365.975 440.546 426.778 440.546 435.152 398.173 368.496 398.173"/><polygon class="cls-9" points="200.49 398.173 208.865 440.546 269.667 440.546 267.146 398.173 200.49 398.173"/><path class="cls-9" d="M436.689,440.546h.396c21.948,0,41.112-15.072,46.577-36.632l1.455-5.741h-40.053l-8.375,42.372Z"/><polygon class="cls-8" points="358.478 398.173 355.957 440.546 365.975 440.546 368.496 398.173 358.478 398.173"/><polygon class="cls-8" points="435.152 398.173 426.778 440.546 436.689 440.546 445.065 398.173 435.152 398.173"/><polygon class="cls-8" points="267.146 398.173 269.667 440.546 279.686 440.546 277.165 398.173 267.146 398.173"/><polygon class="cls-8" points="190.579 398.173 198.953 440.546 208.865 440.546 200.49 398.173 190.579 398.173"/><polygon class="cls-4" points="180.362 346.486 135.578 346.486 143.313 377.003 186.394 377.003 180.362 346.486"/><polygon class="cls-4" points="274.091 346.486 275.905 377.003 359.737 377.003 361.553 346.486 274.091 346.486"/><polygon class="cls-4" points="264.072 346.486 190.275 346.486 196.306 377.003 265.887 377.003 264.072 346.486"/><polygon class="cls-4" points="369.755 377.003 439.337 377.003 445.369 346.486 371.57 346.486 369.755 377.003"/><polygon class="cls-4" points="449.249 377.003 490.483 377.003 498.219 346.486 455.28 346.486 449.249 377.003"/><polygon class="cls-8" points="359.737 377.003 369.755 377.003 371.57 346.486 361.553 346.486 359.737 377.003"/><polygon class="cls-8" points="439.337 377.003 449.249 377.003 455.28 346.486 445.369 346.486 439.337 377.003"/><polygon class="cls-8" points="264.072 346.486 265.887 377.003 275.905 377.003 274.091 346.486 264.072 346.486"/><polygon class="cls-10" points="365.21 285.018 366.139 269.394 269.504 269.394 270.433 285.018 365.21 285.018"/><polygon class="cls-10" points="260.415 285.018 259.486 269.394 175.037 269.394 178.125 285.018 260.415 285.018"/><polygon class="cls-10" points="457.518 285.018 460.605 269.394 376.157 269.394 375.228 285.018 457.518 285.018"/><polygon class="cls-10" points="470.517 269.394 467.429 285.018 513.8 285.018 517.76 269.394 470.517 269.394"/><polygon class="cls-10" points="165.126 269.394 116.036 269.394 119.997 285.018 168.213 285.018 165.126 269.394"/><polygon class="cls-8" points="375.228 285.018 376.157 269.394 366.139 269.394 365.21 285.018 375.228 285.018"/><polygon class="cls-8" points="457.518 285.018 467.429 285.018 470.517 269.394 460.605 269.394 457.518 285.018"/><polygon class="cls-8" points="270.433 285.018 269.504 269.394 259.486 269.394 260.415 285.018 270.433 285.018"/><polygon class="cls-8" points="190.275 346.486 179.684 292.902 178.125 285.018 175.037 269.394 164.128 214.203 154.217 214.203 165.126 269.394 168.213 285.018 169.772 292.902 180.362 346.486 186.394 377.003 196.306 377.003 190.275 346.486"/></g><path class="cls-3" d="M615.376,177.023h-80.567c-6.025,0-11.042-4.172-12.412-9.774-.239-.979-.402-1.986-.402-3.039,0-7.077,5.736-12.814,12.813-12.814"/><g><path class="cls-10" d="M534.407,157.474h79.574c6.025,0,11.042,4.172,12.412,9.775,.239-.979,.402-1.986,.402-3.039,0-7.077-5.736-12.814-12.814-12.814h-79.574c-7.076,0-12.813,5.737-12.813,12.814,0,1.052,.162,2.06,.402,3.039,1.37-5.602,6.388-9.775,12.412-9.775Z"/><path class="cls-4" d="M534.407,177.023h79.574c6.025,0,11.042-4.172,12.412-9.774-1.369-5.602-6.386-9.775-12.412-9.775h-79.574c-6.024,0-11.042,4.172-12.412,9.775,1.37,5.602,6.388,9.774,12.412,9.774Z"/></g></g><path class="cls-10" d="M470.517,269.394s26.75,.964,53.815-26.101l-9.22,36.551-44.595-1.421v-9.029Z"/><path class="cls-9" d="M145.312,384.887l3.367,13.286h41.9s-32.549-.568-45.267-13.286Z"/><path class="cls-4" d="M135.578,346.486l-6.791-26.792s13.228,26.792,51.576,26.792-44.785,0-44.785,0Z"/></g></svg>