<svg width="311" height="53" viewBox="0 0 311 53" fill="none" xmlns="http://www.w3.org/2000/svg">
<g clip-path="url(#clip0_171_21)">
<path d="M309.034 16.7848C305.294 6.96521 296.021 0 285.146 0L25.6699 3.83138e-05C14.7948 3.83138e-05 5.52145 6.96508 1.78127 16.7848C0.645614 19.7665 0 23.0013 0 26.3968C0 40.9752 11.4928 52.7935 25.6699 52.7935H285.146C299.323 52.7935 310.816 40.9752 310.816 26.3967C310.816 23.0012 310.17 19.7665 309.034 16.7848Z" fill="#293A56"/>
<path d="M305.26 18.2079C301.822 9.84247 293.298 3.90894 283.303 3.90894H28.2359C18.2401 3.90894 9.71666 9.84247 6.27889 18.2079C5.23499 20.7481 4.6416 23.5037 4.6416 26.3965C4.6416 38.8159 15.2051 48.884 28.2359 48.884H283.303C296.334 48.884 306.897 38.8159 306.897 26.3965C306.897 23.5037 306.304 20.7481 305.26 18.2079Z" fill="#141F33"/>
</g>
<defs>
<clipPath id="clip0_171_21">
<rect width="311" height="53" fill="white"/>
</clipPath>
</defs>
</svg>
