<?xml version="1.0" encoding="UTF-8"?><svg id="Layer_1" xmlns="http://www.w3.org/2000/svg" viewBox="0 0 735.169 735.169"><defs><style>.cls-1{fill:#fff;}.cls-2{fill:#d8d8d8;}.cls-3{fill:#b53433;}.cls-4{fill:#805141;}.cls-5{stroke:#141f33;}.cls-5,.cls-6{fill:none;stroke-miterlimit:10;stroke-width:13.752px;}.cls-7{fill:#f29699;}.cls-8{fill:#e84040;}.cls-9{fill:#aa6d55;}.cls-6{stroke:#122033;}.cls-10{fill:#8a2727;}</style></defs><g><rect class="cls-2" width="735.169" height="735.169" rx="195.292" ry="195.292"/><rect class="cls-1" x="39.166" y="15.545" width="657.192" height="657.192" rx="212.169" ry="212.169"/></g><path class="cls-5" d="M572.782,386.013l76.95-44.568-92.402-43.826c-14.288-6.777-18.939-26.886-10.388-44.915,1.238-2.61,2.2-5.264,2.895-7.915,4.108-15.658-1.652-30.961-13.871-36.757h0c-.15-.075-.286-.171-.439-.243l-124.389-58.998,.007-.011-6.586-3.124-.007,.011-5.64-2.675,.027-.041-27.396-12.994-.026,.042-2.58-1.224,3.967-8.365c1.907-4.02,.194-8.824-3.826-10.73l-6.11-2.898c-4.02-1.907-8.824-.194-10.73,3.826l-3.967,8.365-10.48-4.971c-7.146-3.389-15.686-.344-19.075,6.802l-49.66,104.7c-3.389,7.146-.344,15.686,6.802,19.076l10.48,4.971-145.744,307.28c-1.906,4.02-.194,8.824,3.826,10.731l2.462,1.168,3.648,1.73c4.02,1.906,8.824,.193,10.73-3.826l145.744-307.28,11.795,5.594h0l36.521,17.322c14.288,6.777,18.939,26.886,10.388,44.915-8.551,18.029-3.9,38.138,10.388,44.915l210.675,99.924-.093-.531,1.121,.531-15.016-86.01Z"/><g><path class="cls-9" d="M157.867,560.141c5.245-10.658,211.813-442.742,211.813-442.742,0,0,2.096-5.118-.602-7.719l-6.11-2.898c-4.02-1.907-8.824-.194-10.73,3.826l-211.644,446.222c-1.906,4.02-.194,8.824,3.826,10.731l2.462,1.168s5.741,2.071,10.986-8.587Z"/><path class="cls-4" d="M369.078,109.68c2.698,2.601,.602,7.719,.602,7.719,0,0-206.568,432.084-211.813,442.742-5.244,10.658-10.986,8.587-10.986,8.587l3.648,1.73c4.02,1.906,8.824,.193,10.73-3.826L372.905,120.41c1.907-4.02,.194-8.824-3.826-10.73Z"/></g><path class="cls-6" d="M649.732,341.445l-92.402-43.826c-5.847-2.773-10.081-7.78-12.455-13.963-3.428-8.925-2.984-20.302,2.068-30.952h0c8.551-18.029,3.9-38.138-10.388-44.915l-.163-.077-37.862-17.958-5.648-2.679-9.786-4.641-46.464-22.038-97.814-46.393c-7.146-3.389-15.686-.344-19.075,6.802l-49.66,104.7c-3.308,6.974-.456,15.241,6.324,18.787,.167,.087,.306,.207,.477,.288l31.997,15.176,7.411,3.515,5.424,2.572,34.581,16.402,.051,.024c11.854,5.623,17.075,20.422,13.626,35.597-.708,3.116-1.782,6.247-3.238,9.319-8.551,18.029-3.9,38.138,10.388,44.915l210.675,99.924-15.016-86.01,76.95-44.567Z"/><g><polygon class="cls-8" points="483.096 182.433 308.882 259.756 316.293 263.271 492.881 187.075 483.096 182.433"/><path class="cls-8" d="M338.818,114.002c-7.146-3.389-15.686-.344-19.075,6.802l-49.66,104.7c-3.308,6.974-.456,15.241,6.324,18.787l160.224-83.896-97.814-46.393Z"/><polygon class="cls-8" points="498.53 189.753 321.717 265.843 356.297 282.245 536.392 207.712 498.53 189.753"/><path class="cls-3" d="M403.516,337.874c7.042,7.846,172.77,83.856,175.772,85.402l.977,5.594-7.482-42.857,76.95-44.567-92.402-43.826c-5.847-2.773-10.081-7.78-12.455-13.963-3.428-8.925-2.984-20.302,2.068-30.953h0c8.551-18.029,3.9-38.138-10.388-44.915l-.163-.077-180.095,74.533,.051,.024c11.854,5.622,17.075,20.422,13.626,35.596-.708,3.116-1.782,6.247-3.238,9.319l40.675-17.609s-11.001,20.382-3.895,28.299Z"/><polygon class="cls-7" points="492.881 187.075 316.293 263.271 321.717 265.843 498.53 189.753 492.881 187.075"/><path class="cls-7" d="M436.632,160.395l-160.224,83.896c.167,.087,.306,.207,.477,.288l31.997,15.176,174.214-77.322-46.464-22.038Z"/><path d="M581.083,433.559l6.716,38.464-6.645-38.428-.071-.036Z"/><path class="cls-10" d="M580.265,428.87l-.977-5.594c-3.003-1.546-168.73-77.556-175.772-85.402-7.106-7.917,3.895-28.299,3.895-28.299l-40.675,17.609c-8.551,18.029-3.9,38.138,10.388,44.915l210.675,99.924-6.716-38.464-.819-4.689Z"/></g></svg>