<?xml version="1.0" encoding="UTF-8"?><svg id="Layer_1" xmlns="http://www.w3.org/2000/svg" viewBox="0 0 735.169 735.169"><defs><style>.cls-1{stroke:#112033;stroke-miterlimit:10;stroke-width:17.916px;}.cls-1,.cls-2{fill:none;}.cls-3{fill:#fff;}.cls-4{fill:#112033;}.cls-5{fill:#d8d8d8;}.cls-6{fill:#bed9f3;}.cls-7{fill:#8e1e72;}.cls-8{fill:#ddacd0;}.cls-9{fill:#af3e8f;}.cls-10{fill:#bd62a3;}</style></defs><g><rect class="cls-5" width="735.169" height="735.169" rx="195.292" ry="195.292"/><rect class="cls-3" x="39.166" y="15.545" width="657.192" height="657.192" rx="212.169" ry="212.169"/></g><g><path class="cls-1" d="M593.205,231.602h-125.462c16.267-9.099,30.389-19.094,37.949-26.654,22.531-22.53,22.531-59.059,0-81.59-22.53-22.53-59.06-22.53-81.589,0-18.403,18.403-51.24,75.615-50.384,108.244h-.069c.855-32.628-31.982-89.841-50.386-108.244-22.53-22.53-59.06-22.53-81.589,0-22.531,22.531-22.531,59.06,0,81.59,7.56,7.56,21.683,17.555,37.949,26.654h-125.462c-9.129,0-16.53,7.401-16.53,16.53v30.416c0,9.129,7.401,16.53,16.53,16.53h9.698v247.292c0,21.18,17.17,38.35,38.351,38.35h342.946c21.181,0,38.351-17.17,38.351-38.35v-247.292h9.698c9.129,0,16.53-7.401,16.53-16.53v-30.416c0-9.129-7.401-16.53-16.53-16.53Zm-162.909-87.968c16.724-16.724,43.839-16.724,60.564,0,16.723,16.724,16.723,43.839,0,60.563-7.854,7.854-25.235,19.253-43.194,27.405h-53.474c-7.735-21.59,20.858-72.722,36.104-87.968Zm-173.79,0c16.724-16.724,43.839-16.724,60.564,0,15.246,15.247,43.839,66.378,36.105,87.968h-53.474c-17.959-8.152-35.34-19.551-43.194-27.405-16.723-16.724-16.723-43.839,0-60.563Z"/><g><path class="cls-2" d="M317.071,143.634c-.026-.026-.055-.047-.081-.073-16.731-16.646-43.784-16.625-60.483,.073-16.724,16.724-16.724,43.839,0,60.563,2.177,2.177,5.099,4.63,8.55,7.208,9,6.722,21.682,14.305,34.665,20.197h53.468c7.723-21.596-20.875-72.724-36.119-87.968Z"/><path class="cls-2" d="M489.498,204.197c16.724-16.724,16.724-43.839,0-60.563-16.699-16.698-43.751-16.719-60.483-.073-.026,.026-.055,.047-.081,.073-15.244,15.244-43.842,66.372-36.119,87.968h53.468c12.982-5.892,25.665-13.475,34.665-20.197,3.451-2.578,6.373-5.03,8.55-7.208Z"/><path class="cls-8" d="M248.36,128.801c20.049-20.049,51.16-22.21,73.651-6.575-22.61-21.337-58.21-20.995-80.336,1.133-22.531,22.531-22.531,59.06,0,81.59,2.672,2.673,6.185,5.656,10.301,8.791-1.315-1.154-2.549-2.282-3.616-3.348-22.531-22.53-22.531-59.06,0-81.59Z"/><path class="cls-10" d="M299.722,231.602c-12.982-5.892-25.665-13.475-34.665-20.197-3.451-2.578-6.373-5.03-8.55-7.208-16.724-16.724-16.724-43.839,0-60.563,16.699-16.698,43.751-16.719,60.483-.073,.026,.026,.055,.047,.081,.073,15.244,15.244,43.842,66.372,36.119,87.968h39.625c-7.723-21.596,20.875-72.724,36.119-87.968,.026-.026,.055-.047,.081-.073,16.731-16.646,43.784-16.625,60.483,.073,16.724,16.724,16.724,43.839,0,60.563-2.177,2.177-5.099,4.63-8.55,7.208-9,6.722-21.683,14.305-34.665,20.197h22.721c10.089-6.171,18.856-12.448,25.025-17.863,1.315-1.154,2.549-2.282,3.616-3.348,22.531-22.53,22.531-59.06,0-81.59-20.049-20.049-51.16-22.21-73.651-6.575-2.783,1.935-5.458,4.094-7.938,6.575-12.755,12.755-32.448,44.157-43.053,73.096-10.605-28.938-30.298-60.341-43.053-73.096-2.481-2.481-5.155-4.641-7.938-6.575-22.491-15.634-53.602-13.474-73.651,6.575-22.531,22.531-22.531,59.06,0,81.59,1.066,1.066,2.301,2.194,3.616,3.348,6.169,5.415,14.937,11.692,25.025,17.863h22.721Z"/><path class="cls-8" d="M497.645,128.801c22.531,22.531,22.531,59.06,0,81.59-1.066,1.066-2.301,2.194-3.616,3.348,4.116-3.135,7.629-6.118,10.301-8.791,22.531-22.53,22.531-59.059,0-81.59-22.127-22.128-57.726-22.469-80.336-1.133,22.491-15.634,53.602-13.474,73.651,6.575Z"/><path class="cls-10" d="M373.684,247.065h0v-15.463h0v63.476h-25.083v-63.476h-54.594v15.463H137.739c-.023,.359-.107,.701-.107,1.067v30.416c0,9.129,7.401,16.53,16.53,16.53h25.787v236.382c0,41.987,22.261,49.26,22.261,49.26h171.474V247.065Zm0,48.013v285.642h-25.083V295.078h25.083Z"/><path class="cls-7" d="M398.767,295.078h-25.083v285.642h0V295.078h74.453v285.642h97.02c21.181,0,38.351-17.17,38.351-38.35v-247.292h-184.741Z"/><path class="cls-9" d="M593.205,231.602h-219.522v15.463h0v48.013h219.522c9.129,0,16.53-7.401,16.53-16.53v-30.416c0-9.129-7.401-16.53-16.53-16.53Z"/><path class="cls-8" d="M294.007,231.602h54.594v63.476h25.083v-63.476h0v15.463h0v-15.463H154.162c-8.763,0-15.863,6.841-16.423,15.463h156.267v-15.463Z"/><polygon class="cls-6" points="373.684 247.065 373.684 247.065 373.684 231.602 374.896 231.602 374.896 231.602 373.684 231.602 373.684 247.065"/><path class="cls-8" d="M179.949,531.46v-236.382h-16.089v247.292c0,21.18,17.17,38.35,38.35,38.35,0,0-22.261-7.274-22.261-49.26Z"/><polygon class="cls-9" points="373.684 295.078 373.684 295.078 398.767 295.078 398.767 580.72 373.684 580.72 373.684 580.72 448.137 580.72 448.137 580.72 448.137 295.078 373.684 295.078"/><polygon class="cls-10" points="398.767 295.078 373.684 295.078 373.684 295.078 373.684 580.72 373.684 580.72 398.767 580.72 398.767 295.078"/><rect class="cls-8" x="348.6" y="295.078" width="25.083" height="285.642"/></g><rect class="cls-4" x="161.934" y="295.078" width="423.997" height="8.961" transform="translate(747.866 599.117) rotate(180)"/><rect class="cls-4" x="112.379" y="400.195" width="352.824" height="10.43" transform="translate(-116.619 694.202) rotate(-90)"/><rect class="cls-4" x="205.259" y="223.006" width="350.22" height="8.596"/><rect class="cls-4" x="283.456" y="400.239" width="352.737" height="10.43" transform="translate(54.37 865.278) rotate(-90)"/></g></svg>