<?xml version="1.0" encoding="UTF-8"?><svg id="Layer_1" xmlns="http://www.w3.org/2000/svg" viewBox="0 0 1344.116 300.6"><defs><style>.cls-1{fill:#141f33;}.cls-2{fill:#293a56;}.cls-3{fill:none;stroke:#151f33;stroke-miterlimit:10;stroke-width:19.613px;}</style></defs><path class="cls-1" d="M287.787,157.447h768.543v84.858c0,32.174-26.121,58.295-58.295,58.295H346.082c-32.174,0-58.295-26.121-58.295-58.295v-84.858h0Z"/><path class="cls-3" d="M1329.381,54.97c-10.349-26.422-36.007-45.164-66.098-45.164H80.833c-30.091,0-55.749,18.742-66.098,45.164-3.142,8.023-4.928,16.727-4.928,25.864,0,39.227,31.799,71.027,71.027,71.027H1263.282c39.228,0,71.028-31.799,71.028-71.027,0-9.137-1.786-17.84-4.929-25.864Z"/><path class="cls-2" d="M1329.381,54.97c-10.349-26.422-36.008-45.164-66.098-45.164H80.833c-30.091,0-55.749,18.741-66.098,45.164-3.142,8.023-4.929,16.727-4.929,25.863,0,39.227,31.8,71.027,71.027,71.027H1263.283c39.227,0,71.027-31.8,71.027-71.027,0-9.137-1.786-17.841-4.929-25.863Z"/><rect class="cls-1" x="41.479" y="36.264" width="1263.629" height="89.151" rx="44.575" ry="44.575"/></svg>