<?xml version="1.0" encoding="UTF-8"?><svg id="Layer_1" xmlns="http://www.w3.org/2000/svg" viewBox="0 0 1168.34 329.007"><defs><style>.cls-1{fill:#055863;}.cls-2{fill:#fff;}.cls-3{fill:#183650;}.cls-4{fill:#d8d8d8;}.cls-5{fill:#046477;}.cls-6{fill:#0c7f8e;}.cls-7{fill:#077f8d;}.cls-8{fill:#95cfc2;}.cls-9{fill:#1fb4b4;}.cls-10{fill:#141f33;}.cls-11{fill:#6abe9c;}.cls-12{fill:#00878b;}.cls-13,.cls-14{stroke:#141f33;stroke-width:11px;}.cls-13,.cls-14,.cls-15{fill:none;}.cls-13,.cls-15{stroke-miterlimit:10;}.cls-16{fill:#293a56;}.cls-17{fill:#c5e4df;}.cls-18{fill:#ddefed;}.cls-19{fill:#80afa3;}.cls-14{stroke-linejoin:round;}.cls-20{fill:#0d8993;}.cls-15{stroke:#151f33;stroke-width:25.614px;}.cls-21{fill:#132b3d;}</style></defs><path class="cls-15" d="M1149.095,130.727c-13.515-34.507-47.025-58.983-86.323-58.983H168.126c-39.298,0-72.806,24.476-86.323,58.983-4.104,10.478-6.436,21.845-6.436,33.777,0,51.23,41.529,92.759,92.759,92.759h894.647c51.231,0,92.76-41.529,92.76-92.759,0-11.933-2.333-23.299-6.437-33.777Z"/><path class="cls-16" d="M1149.096,130.726c-13.515-34.507-47.025-58.983-86.322-58.983H168.126c-39.298,0-72.807,24.476-86.322,58.983-4.104,10.478-6.437,21.845-6.437,33.777,0,51.229,41.529,92.759,92.759,92.759h894.648c51.229,0,92.759-41.53,92.759-92.759,0-11.932-2.333-23.299-6.437-33.777Z"/><rect class="cls-10" x="91.792" y="84.189" width="1049.554" height="160.628" rx="80.314" ry="80.314"/><g><path class="cls-13" d="M239.031,5.5H89.976C43.321,5.5,5.5,43.321,5.5,89.976V239.031c0,46.655,37.821,84.476,84.476,84.476H239.031c46.655,0,84.476-37.821,84.476-84.476V89.976c0-46.655-37.821-84.476-84.476-84.476Zm67.688,199.225c0,50.687-41.09,91.776-91.776,91.776H114.218c-50.687,0-91.776-41.09-91.776-91.776V104.001C22.442,53.314,63.531,12.224,114.218,12.224h100.724c50.687,0,91.776,41.09,91.776,91.776v100.724Z"/><rect class="cls-13" x="22.442" y="12.224" width="284.277" height="284.277" rx="91.776" ry="91.776"/></g><g><path class="cls-4" d="M239.031,5.5H89.976C43.321,5.5,5.5,43.321,5.5,89.976V239.031c0,46.655,37.821,84.476,84.476,84.476H239.031c46.655,0,84.476-37.821,84.476-84.476V89.976c0-46.655-37.821-84.476-84.476-84.476Zm67.688,199.225c0,50.687-41.09,91.776-91.776,91.776H114.218c-50.687,0-91.776-41.09-91.776-91.776V104.001C22.442,53.314,63.531,12.224,114.218,12.224h100.724c50.687,0,91.776,41.09,91.776,91.776v100.724Z"/><rect class="cls-2" x="22.442" y="12.224" width="284.277" height="284.277" rx="91.776" ry="91.776"/></g><g><polygon class="cls-14" points="235.681 135.882 200.407 92.106 166.852 50.464 133.298 92.106 98.024 135.882 98.024 135.882 98.024 135.882 117.274 244.226 166.852 260.688 216.43 244.226 235.681 135.882 235.681 135.882 235.681 135.882"/><polygon class="cls-5" points="117.274 244.026 149.776 220.4 166.852 145.046 98.024 135.682 117.274 244.026"/><polygon class="cls-3" points="216.43 244.026 183.928 220.4 166.852 145.046 235.681 135.682 216.43 244.026"/><path class="cls-12" d="M142.369,145.046h24.483l.491,75.354h-17.567l-15.112-65.676c-1.14-4.953,2.622-9.679,7.704-9.679Z"/><path class="cls-7" d="M191.335,145.046h-24.483v75.354h17.076l15.112-65.676c1.14-4.953-2.622-9.679-7.704-9.679Z"/><polygon class="cls-1" points="166.852 227.573 166.852 220.4 149.776 220.4 117.274 244.026 166.852 260.489 166.852 240.444 166.852 227.573"/><polygon class="cls-21" points="183.928 220.4 166.852 220.4 166.852 227.573 166.852 240.444 166.852 260.489 216.43 244.026 183.928 220.4"/><path class="cls-18" d="M133.298,91.906l-35.274,43.776,38.971,11.486,29.858-37.442s-24.757-2.103-33.554-17.82Z"/><path class="cls-17" d="M166.852,109.726V50.264l-33.554,41.642c8.797,15.717,33.554,17.82,33.554,17.82Z"/><path class="cls-6" d="M200.407,91.906l35.274,43.776-38.971,11.486-29.858-37.442s24.757-2.103,33.554-17.82Z"/><path class="cls-11" d="M166.852,109.726V50.264l33.554,41.642c-8.797,15.717-33.554,17.82-33.554,17.82Z"/><polygon class="cls-8" points="136.994 147.168 166.852 145.046 166.852 109.726 136.994 147.168"/><polygon class="cls-19" points="166.852 109.726 166.852 145.046 196.71 147.168 166.852 109.726"/><rect class="cls-20" x="85.507" y="197.324" width="63.535" height="7.067" rx=".311" ry=".311" transform="translate(293.687 49.281) rotate(79.61)"/><rect class="cls-21" x="189.817" y="171.456" width="63.535" height="7.067" rx=".311" ry=".311" transform="translate(433.043 -12.112) rotate(100.198)"/><rect class="cls-20" x="103.528" y="158.07" width="12.94" height="6.206" rx=".274" ry=".274" transform="translate(248.69 23.911) rotate(79.61)"/><path class="cls-9" d="M192.755,155.437l-2.091-3.394c-.532-.864-.131-1.957,.896-2.442h0c1.027-.485,2.291-.178,2.823,.686l2.091,3.394c.532,.864,.131,1.957-.896,2.442h0c-1.027,.485-2.291,.178-2.823-.686Z"/></g><g><polygon class="cls-14" points="235.681 135.882 200.407 92.106 166.852 50.464 133.298 92.106 98.024 135.882 98.024 135.882 98.024 135.882 117.274 244.226 166.852 260.688 216.43 244.226 235.681 135.882 235.681 135.882 235.681 135.882"/><polygon class="cls-5" points="117.274 244.026 149.776 220.4 166.852 145.046 98.024 135.682 117.274 244.026"/><polygon class="cls-3" points="216.43 244.026 183.928 220.4 166.852 145.046 235.681 135.682 216.43 244.026"/><path class="cls-12" d="M142.369,145.046h24.483l.491,75.354h-17.567l-15.112-65.676c-1.14-4.953,2.622-9.679,7.704-9.679Z"/><path class="cls-7" d="M191.335,145.046h-24.483v75.354h17.076l15.112-65.676c1.14-4.953-2.622-9.679-7.704-9.679Z"/><polygon class="cls-1" points="166.852 227.573 166.852 220.4 149.776 220.4 117.274 244.026 166.852 260.489 166.852 240.444 166.852 227.573"/><polygon class="cls-21" points="183.928 220.4 166.852 220.4 166.852 227.573 166.852 240.444 166.852 260.489 216.43 244.026 183.928 220.4"/><path class="cls-18" d="M133.298,91.906l-35.274,43.776,38.971,11.486,29.858-37.442s-24.757-2.103-33.554-17.82Z"/><path class="cls-17" d="M166.852,109.726V50.264l-33.554,41.642c8.797,15.717,33.554,17.82,33.554,17.82Z"/><path class="cls-6" d="M200.407,91.906l35.274,43.776-38.971,11.486-29.858-37.442s24.757-2.103,33.554-17.82Z"/><path class="cls-11" d="M166.852,109.726V50.264l33.554,41.642c-8.797,15.717-33.554,17.82-33.554,17.82Z"/><polygon class="cls-8" points="136.994 147.168 166.852 145.046 166.852 109.726 136.994 147.168"/><polygon class="cls-19" points="166.852 109.726 166.852 145.046 196.71 147.168 166.852 109.726"/><rect class="cls-20" x="85.507" y="197.324" width="63.535" height="7.067" rx=".311" ry=".311" transform="translate(293.687 49.281) rotate(79.61)"/><rect class="cls-21" x="189.817" y="171.456" width="63.535" height="7.067" rx=".311" ry=".311" transform="translate(433.043 -12.112) rotate(100.198)"/><rect class="cls-20" x="103.528" y="158.07" width="12.94" height="6.206" rx=".274" ry=".274" transform="translate(248.69 23.911) rotate(79.61)"/><path class="cls-9" d="M192.755,155.437l-2.091-3.394c-.532-.864-.131-1.957,.896-2.442h0c1.027-.485,2.291-.178,2.823,.686l2.091,3.394c.532,.864,.131,1.957-.896,2.442h0c-1.027,.485-2.291,.178-2.823-.686Z"/></g></svg>