<svg width="430" height="120" viewBox="0 0 430 120" fill="none" xmlns="http://www.w3.org/2000/svg">
<g clip-path="url(#clip0_171_94)">
<mask id="mask0_171_94" style="mask-type:luminance" maskUnits="userSpaceOnUse" x="0" y="0" width="430" height="112">
<path d="M430 0H0V112H430V0Z" fill="white"/>
</mask>
<g mask="url(#mask0_171_94)">
<path d="M430 109H0L5.50349e-06 45.6088C7.68889e-06 20.4365 14.6147 -1.5847e-06 32.6161 0L397.384 3.21113e-05C415.385 3.3696e-05 430 20.4365 430 45.6088V109Z" fill="#25344E"/>
</g>
<mask id="mask1_171_94" style="mask-type:luminance" maskUnits="userSpaceOnUse" x="0" y="8" width="430" height="112">
<path d="M430 8H0V120H430V8Z" fill="white"/>
</mask>
<g mask="url(#mask1_171_94)">
<path d="M430 109H0L4.80894e-06 53.6088C6.99434e-06 28.4365 14.6147 7.99999 32.6161 8L397.384 8.00003C415.385 8.00003 430 28.4365 430 53.6088V109Z" fill="#141F33"/>
</g>
</g>
<defs>
<clipPath id="clip0_171_94">
<rect width="430" height="120" fill="white"/>
</clipPath>
</defs>
</svg>
