<svg width="27" height="26" viewBox="0 0 27 26" fill="none" xmlns="http://www.w3.org/2000/svg">
<g clip-path="url(#clip0_219_6045)">
<path d="M10.028 8.92568C10.8981 9.68186 12.0276 10.1402 13.2635 10.1402C14.4994 10.1402 15.6288 9.68186 16.4989 8.92568C17.5637 7.99976 18.2398 6.6263 18.2398 5.09158C18.2398 2.303 16.0122 0.0429688 13.2635 0.0429688C10.5148 0.0429688 8.28711 2.303 8.28711 5.09158C8.28711 6.6263 8.96249 7.99976 10.028 8.92568Z" fill="white" stroke="white" stroke-width="0.1451" stroke-miterlimit="10" stroke-linecap="round" stroke-linejoin="round"/>
<path d="M20.4749 9.98432C21.0864 10.516 21.8797 10.8369 22.7475 10.8369C23.6153 10.8369 24.4086 10.5152 25.0201 9.98432C25.7685 9.33385 26.2431 8.36935 26.2431 7.29142C26.2431 5.33308 24.6778 3.74512 22.7475 3.74512C20.8172 3.74512 19.252 5.33308 19.252 7.29142C19.252 8.36858 19.7265 9.33385 20.4749 9.98432Z" fill="white" stroke="white" stroke-width="0.1451" stroke-miterlimit="10" stroke-linecap="round" stroke-linejoin="round"/>
<path d="M25.0201 10.8369C24.4086 11.3685 23.6153 11.6895 22.7475 11.6895C21.8797 11.6895 21.0864 11.3678 20.4749 10.8369C19.7821 11.3045 19.1211 11.9712 18.8085 12.8994C18.3415 11.6695 17.441 10.7759 16.4995 10.1401C15.6294 10.8963 14.4999 11.3546 13.264 11.3546C12.0281 11.3546 10.8987 10.8963 10.0286 10.1401C8.66566 11.0607 7.38867 12.5205 7.38867 14.7605C7.38867 19.5661 7.38867 24.9187 7.38867 24.9187H13.2648H19.1409C19.1409 24.9187 19.1409 23.3824 19.1409 21.2165H22.7483H26.8751C26.8751 21.2165 26.8751 17.4565 26.8751 14.0815C26.8743 12.509 25.9776 11.4835 25.0201 10.8369Z" fill="white" stroke="white" stroke-width="0.1451" stroke-miterlimit="10" stroke-linecap="round" stroke-linejoin="round"/>
<path d="M3.38451 10.0991H2.33113V12.4641H0V13.532H2.33113V15.897H3.38451V13.532H5.71487V12.4641H3.38451V10.0991Z" fill="white" stroke="white" stroke-width="0.1451" stroke-miterlimit="10" stroke-linecap="round" stroke-linejoin="round"/>
</g>
<defs>
<clipPath id="clip0_219_6045">
<rect width="27" height="25" fill="white" transform="translate(0 0.0429688)"/>
</clipPath>
</defs>
</svg>
