<svg width="1334" height="302" viewBox="0 0 1334 302" fill="none" xmlns="http://www.w3.org/2000/svg">
<path d="M1327.75 191.934C1315.61 160.987 1286.34 140.983 1253.15 140.983H1230.38V104.878C1230.38 47.4228 1183.79 0.852051 1126.32 0.852051H207.114C149.641 0.852051 103.056 47.4228 103.056 104.878V140.968H80.8476C47.6621 140.968 18.3948 160.957 6.2662 191.904C2.58723 201.323 0.702881 211.146 0.702881 221.088C0.702881 265.252 36.6551 301.193 80.8476 301.193H1253.15C1297.34 301.193 1333.3 265.252 1333.3 221.088C1333.3 211.161 1331.43 201.353 1327.75 191.934Z" fill="#141F33"/>
<path d="M1230.38 105.207C1230.38 47.7519 1183.79 1.18115 1126.32 1.18115H207.114C149.641 1.18115 103.056 47.7519 103.056 105.207V141.297H1230.38V105.207Z" fill="#141F33"/>
<path d="M1327.75 192.263C1315.61 161.316 1286.34 141.312 1253.15 141.312H1230.38H103.056H80.8476C47.6621 141.312 18.3948 161.301 6.2662 192.248C2.58723 201.667 0.702881 211.49 0.702881 221.432C0.702881 265.595 36.6551 301.536 80.8476 301.536H1253.15C1297.34 301.536 1333.3 265.595 1333.3 221.432C1333.3 211.49 1331.43 201.682 1327.75 192.263ZM1253.15 291.819H80.8476C41.9642 291.819 10.4237 260.303 10.4237 221.417C10.4237 212.357 12.1884 203.73 15.3141 195.777C25.5733 169.583 51.012 151.015 80.8476 151.015H1253.15C1282.99 151.015 1308.43 169.583 1318.69 195.777C1321.8 203.73 1323.58 212.357 1323.58 221.417C1323.58 260.303 1292.05 291.819 1253.15 291.819Z" fill="#151F33"/>
<path d="M1253.15 151.03H80.8477C51.0121 151.03 25.5734 169.598 15.3142 195.792C12.2035 203.745 10.4238 212.372 10.4238 221.432C10.4238 260.318 41.9493 291.834 80.8477 291.834H1253.15C1292.04 291.834 1323.58 260.318 1323.58 221.432C1323.58 212.372 1321.81 203.745 1318.69 195.792C1308.43 169.598 1282.99 151.03 1253.15 151.03ZM1250.43 265.61H86.0221C61.6153 265.61 41.8297 245.831 41.8297 221.432C41.8297 197.032 61.6153 177.253 86.0221 177.253H1250.43C1274.84 177.253 1294.62 197.032 1294.62 221.432C1294.62 245.831 1274.84 265.61 1250.43 265.61Z" fill="#293A56"/>
<path d="M1250.43 177.253H86.0221C61.6153 177.253 41.8296 197.032 41.8296 221.432C41.8296 245.831 61.6153 265.61 86.0221 265.61H1250.43C1274.84 265.61 1294.62 245.831 1294.62 221.432C1294.62 197.032 1274.84 177.253 1250.43 177.253Z" fill="#141F33"/>
</svg>
