<?xml version="1.0" encoding="UTF-8"?><svg id="Layer_1" xmlns="http://www.w3.org/2000/svg" viewBox="0 0 1334.147 415.048"><defs><style>.cls-1{fill:none;stroke:#151f33;stroke-miterlimit:10;stroke-width:48.373px;}.cls-2{fill:#fff;}.cls-3{fill:#fefaf7;}.cls-4{fill:#315f53;}.cls-5{fill:#00976f;}.cls-6{fill:#b4dcd5;}</style></defs><path class="cls-5" d="M1309.96,226.463c0-5.386-.264-10.708-.775-15.957,.496-5.249,.775-10.561,.775-15.939,0-21.531-4.21-42.043-11.615-60.95-24.389-62.268-84.857-106.436-155.77-106.436H191.572c-70.913,0-131.382,44.167-155.771,106.436-7.405,18.907-11.615,39.419-11.615,60.95,0,5.379,.279,10.691,.775,15.94-.511,5.249-.775,10.571-.775,15.957v.005h0v.007c0,1.37,.018,2.735,.052,4.097,.031,1.302,.081,2.599,.142,3.893v.03c3.613,76.479,58.547,139.515,131.133,155.453,.327,.072,.655,.144,.983,.214,.783,.167,1.567,.33,2.355,.486,.442,.088,.886,.17,1.329,.255,.984,.187,1.971,.367,2.961,.536,.826,.142,1.654,.282,2.484,.412,.574,.089,1.151,.17,1.727,.253,.69,.1,1.38,.198,2.073,.29,.556,.073,1.112,.144,1.67,.212,.775,.095,1.552,.182,2.331,.266,.474,.051,.946,.105,1.421,.152,1.219,.121,2.441,.231,3.667,.326,.314,.024,.629,.042,.943,.064,.977,.07,1.956,.133,2.938,.186,.445,.024,.891,.045,1.337,.065,.902,.042,1.805,.076,2.711,.103,.412,.012,.824,.027,1.238,.036,1.266,.029,2.535,.048,3.808,.048,.028,0,.055,0,.083,0h951.003c.028,0,.055,0,.083,0,1.273,0,2.542-.019,3.808-.048,.413-.009,.825-.024,1.238-.036,.905-.027,1.809-.061,2.711-.103,.446-.021,.892-.041,1.337-.065,.982-.053,1.961-.116,2.938-.186,.314-.023,.63-.04,.944-.064,1.226-.095,2.448-.204,3.667-.326,.474-.047,.947-.101,1.42-.152,.779-.084,1.557-.172,2.332-.267,.557-.068,1.113-.139,1.669-.212,.693-.092,1.384-.19,2.074-.29,.575-.083,1.152-.164,1.725-.253,.835-.13,1.666-.271,2.496-.414,.986-.169,1.968-.348,2.947-.534,.444-.084,.889-.167,1.332-.255,.786-.156,1.57-.319,2.352-.486,.329-.07,.658-.142,.987-.215,72.585-15.939,127.519-78.974,131.131-155.452v-.03c.062-1.294,.112-2.591,.144-3.893,.034-1.362,.052-2.727,.052-4.097v-.006h0v-.005Zm-1.528-22.299c.044,.325,.088,.65,.13,.976-.043-.326-.086-.651-.13-.976Zm-8.189-33.535c.063,.176,.125,.352,.187,.528-.062-.176-.124-.352-.187-.528Zm3.466,10.883c.063,.225,.126,.45,.189,.676-.062-.225-.125-.451-.189-.676Zm2.744,11.192c.057,.271,.113,.542,.168,.813-.055-.271-.111-.542-.168-.813ZM25.715,204.16c-.045,.327-.089,.654-.131,.982,.043-.328,.087-.655,.131-.982Zm8.189-33.534c-.063,.177-.126,.354-.188,.531,.062-.177,.125-.354,.188-.531Zm-3.467,10.885c-.063,.225-.126,.45-.189,.676,.063-.225,.125-.451,.189-.676Zm-2.743,11.188c-.057,.273-.113,.546-.169,.82,.056-.273,.112-.547,.169-.82Z"/><path class="cls-1" d="M1298.344,140.765c-24.388-68.202-84.857-116.578-155.771-116.578H191.571c-70.914,0-131.381,48.376-155.771,116.578-7.405,20.71-11.614,43.175-11.614,66.76,0,101.254,74.94,183.336,167.385,183.336h951.002c92.447,0,167.387-82.082,167.387-183.336,0-23.585-4.209-46.05-11.616-66.76Z"/><path class="cls-5" d="M1298.345,162.524c-24.388-62.268-84.857-106.435-155.771-106.435H191.572c-70.913,0-131.381,44.167-155.77,106.435-7.406,18.907-11.615,39.419-11.615,60.951,0,92.445,74.94,167.386,167.385,167.386h951.003c92.445,0,167.386-74.942,167.386-167.386,0-21.532-4.21-42.044-11.615-60.951Z"/><path class="cls-4" d="M191.572,358.942h951.003c70.913,0,131.382-44.167,155.771-106.436,5.552-14.174,9.307-29.251,10.839-44.982,.497,5.253,.776,10.568,.776,15.951,0,21.531-4.21,42.043-11.615,60.95-24.388,62.268-84.857,106.436-155.771,106.436H191.572c-70.913,0-131.381-44.167-155.77-106.436-7.406-18.907-11.615-39.419-11.615-60.95,0-5.382,.279-10.698,.776-15.951,1.533,15.731,5.288,30.808,10.839,44.982,24.388,62.269,84.857,106.436,155.77,106.436Z"/><path class="cls-6" d="M1142.575,56.106H191.572c-70.913,0-131.382,44.167-155.771,106.436-5.552,14.174-9.307,29.251-10.839,44.982-.497-5.253-.776-10.568-.776-15.951,0-21.531,4.21-42.043,11.615-60.95C60.19,68.354,120.659,24.187,191.572,24.187h951.003c70.913,0,131.381,44.167,155.77,106.436,7.406,18.907,11.615,39.419,11.615,60.95,0,5.382-.279,10.698-.776,15.951-1.533-15.731-5.288-30.808-10.839-44.982-24.388-62.269-84.857-106.436-155.77-106.436Z"/><path class="cls-3" d="M1068.559,207.153c-4.521,0-9.042-1.725-12.491-5.175-6.899-6.898-6.899-18.084,0-24.983l56.348-56.349c6.897-6.899,18.083-6.899,24.983,0,6.899,6.898,6.899,18.084,0,24.983l-56.348,56.349c-3.449,3.45-7.97,5.175-12.491,5.175Z"/><path class="cls-3" d="M1181.256,207.153c-4.521,0-9.043-1.725-12.491-5.175l-56.349-56.349c-6.899-6.898-6.899-18.084,0-24.983,6.897-6.899,18.083-6.899,24.983,0l56.349,56.349c6.899,6.898,6.899,18.084,0,24.983-3.45,3.45-7.97,5.175-12.491,5.175Z"/><rect class="cls-3" x="1104.474" y="143.758" width="40.867" height="149.09" rx="11.773" ry="11.773"/><g><path class="cls-2" d="M159.765,156.094h20.273v64.463c0,20.59,10.137,29.935,26.451,29.935,16.472,0,26.451-9.345,26.451-29.935v-64.463h20.273v65.255c0,31.519-20.907,47.674-46.724,47.674s-46.724-16.155-46.724-47.674v-65.255Z"/><path class="cls-2" d="M278.555,266.964v-110.87h42.289c18.531,0,39.28,10.295,39.28,35.954s-20.749,36.27-39.28,36.27h-22.016v38.646h-20.273Zm20.273-56.861h20.115c15.522,0,20.749-8.236,20.749-18.056,0-9.662-5.227-17.739-20.749-17.739h-20.115v35.795Z"/><path class="cls-2" d="M430.128,224.517v-18.373h46.407v43.397c-12.354,12.988-30.41,19.481-45.932,19.481-31.994,0-56.86-25.183-56.86-57.494s24.867-57.494,56.86-57.494c15.681,0,32.786,6.969,43.557,18.848l-13.78,14.73c-8.395-9.662-17.898-15.047-29.777-15.047-22.174,0-36.429,18.215-36.429,38.963s14.255,38.963,36.429,38.963c10.137,0,19.481-3.484,25.659-8.235v-17.739h-26.134Z"/><path class="cls-2" d="M499.66,266.964v-110.87h47.674c17.739,0,37.696,7.919,37.696,32.311,0,21.224-15.681,29.776-31.677,31.519l34.528,47.041h-23.6l-34.37-46.724h-9.978v46.724h-20.273Zm20.273-64.305h25.5c14.571,0,19.006-6.177,19.006-14.255,0-8.553-4.435-14.096-19.006-14.096h-25.5v28.351Z"/><path class="cls-2" d="M593.266,266.964l49.258-110.87h19.165l49.1,110.87h-22.966l-9.979-22.966h-51.476l-10.137,22.966h-22.966Zm40.23-41.022h37.221l-18.531-41.813h-.316l-18.373,41.813Z"/><path class="cls-2" d="M724.569,266.964v-110.87h43.397c31.994,0,56.069,23.124,56.069,55.435s-24.075,55.436-56.069,55.436h-43.397Zm20.273-18.215h23.124c22.175,0,35.638-16.472,35.638-37.221s-13.463-37.22-35.638-37.22h-23.124v74.441Z"/><path class="cls-2" d="M843.993,266.964v-110.87h78.402v18.214h-58.129v27.717h55.277v18.215h-55.277v28.509h58.92v18.215h-79.193Z"/></g></svg>